<svg xmlns="http://www.w3.org/2000/svg" xmlns:xlink="http://www.w3.org/1999/xlink" width="1024" height="400" viewBox="0 0 1024 400"><defs><clipPath id="a"><path d="M0-666.665H529.445V-313.7H0Z" transform="translate(0 666.665)"/></clipPath><clipPath id="b"><path d="M130.386-597.723H513.993v237.577H130.386Z" transform="translate(-130.386 597.723)"/></clipPath><clipPath id="c"><path d="M130.386-534.3H511v204H130.386Z" transform="translate(-130.386 534.297)"/></clipPath><clipPath id="d"><path d="M834.943-484.42h10.581v11.389H834.943Z" transform="translate(-834.943 484.42)"/></clipPath><clipPath id="e"><path d="M206.2-564.381h13.928v13.928H206.2Z" transform="translate(-206.205 564.381)"/></clipPath><clipPath id="f"><path d="M118.223-599.665H491.084V-374.65H118.223Z" transform="translate(-118.223 599.665)"/></clipPath><clipPath id="g"><path d="M454.528-570.053c0,58.842.03,58.764.03,59.26h0l-.03,81.263c0,.5,0,0,.93-2.844h0l181.838-.006-.024-137.674Z" transform="translate(-454.528 570.053)"/></clipPath><clipPath id="i"><path d="M222.831-433.06h2.69v2.208h-2.69Z" transform="translate(-222.831 433.06)"/></clipPath></defs><g transform="translate(-448 -399.667)"><path d="M0-266.665H1024v-400H0Z" transform="translate(448 1066.332)" fill="none"/><g transform="translate(444.37)"><g transform="translate(13.552 -186)"><g transform="translate(448 609.667)"><g clip-path="url(#a)"><g transform="translate(69.033 36.501)"><g opacity="0.8" clip-path="url(#b)"><g transform="translate(0 33.58)"><g opacity="0.5" clip-path="url(#c)"><g transform="translate(0 0)"><path d="M-180.125-46.533a102.7,102.7,0,0,1-46.815-19.84c-20.679-15.607-63.951-42.166-105.231-28.937C-389.108-77.064-389.363-24.277-374.532,4.4s120,112.641,256.345,99.281C3.822,91.722,27.6-45.131-37.474-69.895c-56.438-21.479-75.692,33.248-142.652,23.362" transform="translate(382.794 98.89)" fill="#cdd4e7"/></g></g></g><g transform="translate(373.025 59.988)"><g opacity="0.5" clip-path="url(#d)"><g transform="translate(0.001 0)"><path d="M-9.4-5.061A5.5,5.5,0,0,1-14.694.633a5.5,5.5,0,0,1-5.29-5.694,5.5,5.5,0,0,1,5.29-5.694A5.5,5.5,0,0,1-9.4-5.061" transform="translate(19.984 10.755)" fill="#cdd4e7"/></g></g></g><g transform="translate(30.055 28.115)"><path d="M-2.545-.051A3.431,3.431,0,0,1,1.292,2.1C2.266,4.74-.286,7.7-3.722,6.372-6.685,4.177-5.4.474-2.545-.051" transform="translate(5.409 0.108)" fill="#cdd4e7"/></g><g transform="translate(356.981 7.894)"><path d="M-12.249-6.125A6.891,6.891,0,0,1-19.141.767a6.892,6.892,0,0,1-6.891-6.892,6.891,6.891,0,0,1,6.891-6.891,6.891,6.891,0,0,1,6.891,6.891" transform="translate(26.032 13.016)" fill="#cdd4e7"/></g><g transform="translate(40.142 17.652)"><g opacity="0.8" clip-path="url(#e)"><g transform="translate(0 0)"><path d="M-12.147-4.519a6.963,6.963,0,0,1-4.824,8.583A6.963,6.963,0,0,1-25.555-.76a6.963,6.963,0,0,1,4.824-8.583,6.962,6.962,0,0,1,8.583,4.824" transform="translate(25.815 9.603)" fill="#cdd4e7"/></g></g></g><g transform="translate(327.015 229.914)"><path d="M-1.994-.206a3.431,3.431,0,0,1,4.169,1.4c1.449,2.415-.508,5.8-4.13,5.133C-5.276,4.718-4.7.838-1.994-.206" transform="translate(4.238 0.439)" fill="#cdd4e7"/></g><g transform="translate(335.574 217.052)"><path d="M-11.732-3.439a6.962,6.962,0,0,1-3.143,9.331,6.963,6.963,0,0,1-9.331-3.143,6.963,6.963,0,0,1,3.144-9.331,6.962,6.962,0,0,1,9.33,3.143" transform="translate(24.933 7.309)" fill="#cdd4e7"/></g><g transform="translate(346.65 0)"><path d="M-7.536-3.768A4.239,4.239,0,0,1-11.775.471a4.24,4.24,0,0,1-4.24-4.239,4.24,4.24,0,0,1,4.24-4.24,4.239,4.239,0,0,1,4.239,4.24" transform="translate(16.015 8.008)" fill="#cdd4e7"/></g></g></g><g transform="translate(62.593 35.473)"><g opacity="0.8" clip-path="url(#f)"><g transform="translate(0 0)"><path d="M-331.386-72.942c-.006-37.874-31.541-79.376-70.788-81.883q-1.035-.066-2.089-.115c-56.265-2.623-60.553,66-111.459,73.742s-89.783-31.333-150.7-5.84c-54.708,22.9-69.526,151.55,91.215,156.708C-446.6,73.8-331.37,40.057-331.386-72.942" transform="translate(704.247 155.013)" fill="#cdd4e7"/></g></g></g><g transform="translate(210.571 293.253)"><path d="M-220.478-5.686c0,3.534-55.532,6.4-124.036,6.4s-124.036-2.864-124.036-6.4,55.533-6.4,124.036-6.4,124.036,2.864,124.036,6.4" transform="translate(468.549 12.084)" fill="#cdd4e7"/></g><g transform="translate(401.432 281.742)"><path d="M-15.277,0H-32.467V17.875h20.1V2.911A2.911,2.911,0,0,0-15.277,0" transform="translate(32.467)" fill="#cdd4e7"/></g><path d="M644.206-168.565H584.541v-38.3h59.665Z" transform="translate(-275.058 450.306)" fill="#cdd4e7"/><g transform="translate(250.168 281.742)"><path d="M-146.291-15.887h-164.6v-6.636a11.239,11.239,0,0,1,11.24-11.24h142.12a11.24,11.24,0,0,1,11.24,11.24Z" transform="translate(310.891 33.763)" fill="#fff"/></g><path d="M630.4-168.565H570.731v-38.3H630.4Z" transform="translate(-268.559 450.306)" fill="#fff"/><g transform="translate(302.172 243.438)"><path d="M0-10.453l59.665-4.778.008-6.984H.078Z" transform="translate(0 22.215)" fill="#cdd4e7"/></g><g transform="translate(197.037 77.292)"><path d="M-240.587-7.085V143.126a7.973,7.973,0,0,1-7.972,7.972H-503.313a7.972,7.972,0,0,1-7.971-7.972V-7.085a7.972,7.972,0,0,1,7.971-7.972h254.754a7.973,7.973,0,0,1,7.972,7.972" transform="translate(511.284 15.057)" fill="#cdd4e7"/></g><g transform="translate(443.089 77.292)"><path d="M-21.9-7.085v139.1H-46.549V-15.057h16.673A7.973,7.973,0,0,1-21.9-7.085" transform="translate(46.549 15.057)" fill="#575759"/></g><g transform="translate(197.036 77.292)"><path d="M-231.578-7.085V143.126a7.973,7.973,0,0,1-7.971,7.972H-484.167a7.973,7.973,0,0,1-7.972-7.972V-7.085a7.973,7.973,0,0,1,7.972-7.972h244.618c.119,0,.236,0,.354.008.087,0,.172.008.258.016h.011c.061,0,.124.01.185.018.1.008.2.022.308.036.068.008.133.018.2.032l.1.016c.066.01.13.023.195.038a7.974,7.974,0,0,1,6.366,7.809" transform="translate(492.139 15.057)" fill="#fff"/></g><g transform="translate(197.037 77.292)"><path d="M-222.393-118.367a2.167,2.167,0,0,1-2.169,2.168H-460.115a2.167,2.167,0,0,1-2.169-2.168V-239.044a2.167,2.167,0,0,1,2.169-2.168h235.554a2.167,2.167,0,0,1,2.169,2.168Zm3.969-133.018c-.066-.016-.129-.028-.195-.037-.032-.006-.064-.012-.1-.016-.068-.013-.133-.024-.2-.032-.1-.013-.2-.028-.308-.036-.061-.008-.124-.013-.184-.018h-.011c-.085-.008-.171-.012-.258-.016-.117-.006-.235-.008-.354-.008H-464.648a7.972,7.972,0,0,0-7.971,7.972v139.1h260.561v-139.1a7.974,7.974,0,0,0-6.366-7.809" transform="translate(472.619 251.547)" fill="#363638"/></g><g transform="translate(207.371 87.627)"><path d="M-213.207-1.927V118.751a2.167,2.167,0,0,1-2.169,2.168H-450.93a2.167,2.167,0,0,1-2.169-2.168V-1.927a2.167,2.167,0,0,1,2.169-2.168h235.554a2.167,2.167,0,0,1,2.169,2.168" transform="translate(453.099 4.095)" fill="#cdd4e7"/></g><g transform="translate(207.371 87.627)"><path d="M-213.207-1.927V9.462H-453.1V-1.927a2.167,2.167,0,0,1,2.169-2.168h235.554a2.167,2.167,0,0,1,2.169,2.168" transform="translate(453.099 4.095)" fill="#fff"/></g><g transform="translate(424.998 92.382)"><path d="M-3.274-1.637A1.842,1.842,0,0,1-5.116.2,1.842,1.842,0,0,1-6.959-1.637,1.842,1.842,0,0,1-5.116-3.479,1.842,1.842,0,0,1-3.274-1.637" transform="translate(6.959 3.479)" fill="#fe615b"/></g><g transform="translate(430.968 92.382)"><path d="M-3.274-1.637A1.842,1.842,0,0,1-5.116.2,1.842,1.842,0,0,1-6.959-1.637,1.842,1.842,0,0,1-5.116-3.479,1.842,1.842,0,0,1-3.274-1.637" transform="translate(6.959 3.479)" fill="#0593f6"/></g><g transform="translate(228.318 92.275)"><path d="M-168.087-3.464H-355.492a1.724,1.724,0,0,1-1.719-1.719v-.46a1.724,1.724,0,0,1,1.719-1.718h187.405a1.724,1.724,0,0,1,1.719,1.718v.46a1.724,1.724,0,0,1-1.719,1.719" transform="translate(357.211 7.361)" fill="#cfdded"/></g><g transform="translate(212.247 92.088)"><path d="M-3.365-1.9v1.8a.331.331,0,0,1-.5.287l-1.562-.9-1.562-.9a.331.331,0,0,1,0-.573l1.562-.9,1.562-.9a.331.331,0,0,1,.5.286Z" transform="translate(7.151 4.033)"/></g><g transform="translate(218.777 92.088)"><path d="M0-1.9v1.8A.331.331,0,0,0,.5.192l1.562-.9,1.562-.9a.331.331,0,0,0,0-.573l-1.562-.9L.5-3.988A.331.331,0,0,0,0-3.7Z" transform="translate(0 4.033)"/></g><g transform="translate(436.917 92.417)"><path d="M-.193-2.973l-.082-.083a.461.461,0,0,1,0-.653L2.2-6.183a.461.461,0,0,1,.653,0l.083.083a.463.463,0,0,1,0,.654L.46-2.973a.462.462,0,0,1-.654,0" transform="translate(0.411 6.319)" fill="#363638"/></g><g transform="translate(436.917 92.417)"><path d="M-2.9-2.973l.083-.083a.462.462,0,0,0,0-.653L-5.292-6.183a.461.461,0,0,0-.653,0l-.083.083a.462.462,0,0,0,0,.654l2.474,2.474a.462.462,0,0,0,.654,0" transform="translate(6.163 6.319)" fill="#363638"/></g><g transform="translate(234.488 103.933)"><path d="M-160.406-92.3H-336.354a4.534,4.534,0,0,1-4.533-4.533v-94.785a4.533,4.533,0,0,1,4.533-4.533h175.948a4.533,4.533,0,0,1,4.533,4.533v94.785a4.534,4.534,0,0,1-4.533,4.533" transform="translate(340.887 196.153)" fill="#fff"/></g><g transform="translate(246.348 154.817)"><path d="M-37.054-2H-77.618a1.127,1.127,0,0,1-1.127-1.127,1.127,1.127,0,0,1,1.127-1.127h40.565a1.127,1.127,0,0,1,1.127,1.127A1.127,1.127,0,0,1-37.054-2" transform="translate(78.745 4.256)" fill="#cdd4e7"/></g><g transform="translate(246.348 145.282)"><path d="M-37.054-2H-77.618a1.127,1.127,0,0,1-1.127-1.127,1.127,1.127,0,0,1,1.127-1.127h40.565a1.127,1.127,0,0,1,1.127,1.127A1.127,1.127,0,0,1-37.054-2" transform="translate(78.745 4.256)" fill="#cdd4e7"/></g><g transform="translate(246.348 164.351)"><path d="M-37.054-2H-77.618a1.127,1.127,0,0,1-1.127-1.127,1.127,1.127,0,0,1,1.127-1.127h40.565a1.127,1.127,0,0,1,1.127,1.127A1.127,1.127,0,0,1-37.054-2" transform="translate(78.745 4.256)" fill="#cdd4e7"/></g><g transform="translate(370.989 154.817)"><path d="M-37.054-2H-77.619a1.127,1.127,0,0,1-1.127-1.127,1.127,1.127,0,0,1,1.127-1.127h40.565a1.127,1.127,0,0,1,1.127,1.127A1.127,1.127,0,0,1-37.054-2" transform="translate(78.746 4.256)" fill="#cdd4e7"/></g><g transform="translate(370.989 145.282)"><path d="M-37.054-2H-77.619a1.127,1.127,0,0,1-1.127-1.127,1.127,1.127,0,0,1,1.127-1.127h40.565a1.127,1.127,0,0,1,1.127,1.127A1.127,1.127,0,0,1-37.054-2" transform="translate(78.746 4.256)" fill="#cdd4e7"/></g><g transform="translate(370.989 164.351)"><path d="M-37.054-2H-77.619a1.127,1.127,0,0,1-1.127-1.127,1.127,1.127,0,0,1,1.127-1.127h40.565a1.127,1.127,0,0,1,1.127,1.127A1.127,1.127,0,0,1-37.054-2" transform="translate(78.746 4.256)" fill="#cdd4e7"/></g><g transform="translate(234.488 191.657)"><path d="M0,0H185.015V15.168a.961.961,0,0,1-.961.959H.961A.961.961,0,0,1,0,15.168Z" fill="#363638"/></g><g transform="translate(400.113 195.052)"><path d="M-1.082-2.3V-3.664H.63V-4.88H-1.69a.608.608,0,0,0-.609.608V-2.3Z" transform="translate(2.299 4.88)" fill="#fff"/></g><g transform="translate(400.113 200.069)"><path d="M-1.082,0H-2.3V2.079a.609.609,0,0,0,.609.609H.63V1.471H-1.082Z" transform="translate(2.299)" fill="#fff"/></g><g transform="translate(404.98 195.052)"><path d="M-1.442-2.3H-.225V-4.272A.608.608,0,0,0-.833-4.88H-3.064v1.216h1.622Z" transform="translate(3.064 4.88)" fill="#fff"/></g><g transform="translate(404.98 200.069)"><path d="M-1.442,0V1.471H-3.064V2.688H-.833a.609.609,0,0,0,.609-.609V0Z" transform="translate(3.064)" fill="#fff"/></g><g transform="translate(245.265 195.324)"><path d="M0-3.415V-7.257L3.328-5.336,6.656-3.415,3.328-1.493,0,.428Z" transform="translate(0 7.257)" fill="#fff"/></g><g transform="translate(262.246 195.71)"><path d="M-1.3-6.217h-.874a.6.6,0,0,1-.594-.594v-5.808a.6.6,0,0,1,.594-.594H-1.3a.6.6,0,0,1,.594.594v5.808a.6.6,0,0,1-.594.594" transform="translate(2.773 13.212)" fill="#fff"/></g><g transform="translate(266.555 195.71)"><path d="M-1.3-6.217h-.874a.6.6,0,0,1-.594-.594v-5.808a.6.6,0,0,1,.594-.594H-1.3a.6.6,0,0,1,.594.594v5.808a.6.6,0,0,1-.594.594" transform="translate(2.773 13.212)" fill="#fff"/></g><path d="M627.907-307.364H442.892V-310.4H627.907Z" transform="translate(-208.405 499.022)" fill="#cdd4e7"/><path d="M537.827-307.362H442.894v-3.032h94.933Z" transform="translate(-208.405 499.02)" fill="#fe615b"/><g transform="translate(389.918 176.825)"><path d="M0,0H2.087V4.573H4.882V6.192H0Z" fill="#363638"/></g><path d="M746.77-332.685h2.087v6.192H746.77Z" transform="translate(-351.395 509.509)" fill="#363638"/><g transform="translate(397.798 176.825)"><path d="M-6.477,0-9.094,6.192h-2.051L-13.764,0h2.246l1.477,3.618L-8.528,0Z" transform="translate(13.764)" fill="#363638"/></g><g transform="translate(405.288 176.825)"><path d="M-4.575-4.1v1.574H-9.723V-8.72H-4.69v1.574h-2.98v.726h2.618v1.5H-7.671V-4.1Z" transform="translate(9.723 8.72)" fill="#363638"/></g><g transform="translate(381.39 177.325)"><path d="M-4.525-2.262A2.546,2.546,0,0,1-7.071.283,2.546,2.546,0,0,1-9.617-2.262,2.546,2.546,0,0,1-7.071-4.808,2.546,2.546,0,0,1-4.525-2.262" transform="translate(9.617 4.808)" fill="#fe615b"/></g><g transform="translate(250.561 176.314)"><path d="M-2.383-2.023A.568.568,0,0,0-1.8-1.4a.568.568,0,0,0,.582-.623A.568.568,0,0,0-1.8-2.647a.568.568,0,0,0-.582.624M-1,.9A.737.737,0,0,0-1.8.139.737.737,0,0,0-2.6.9a.737.737,0,0,0,.8.758A.737.737,0,0,0-1,.9M1.462.98C1.462,2.394.121,3.308-1.8,3.308S-5.064,2.394-5.064.98A1.9,1.9,0,0,1-4.087-.693,1.772,1.772,0,0,1-4.8-2.127c0-1.32,1.237-2.172,3-2.172s3,.852,3,2.172A1.77,1.77,0,0,1,.485-.693,1.9,1.9,0,0,1,1.462.98" transform="translate(5.064 4.299)" fill="#363638"/></g><g transform="translate(257.543 176.314)"><path d="M-3.666-3.38c0-1.4-.353-1.84-.831-1.84s-.832.437-.832,1.84.354,1.839.832,1.839.831-.436.831-1.839m-4.125,0c0-2.411,1.371-3.8,3.294-3.8S-1.2-5.792-1.2-3.38-2.575.422-4.5.422-7.791-.97-7.791-3.38" transform="translate(7.791 7.184)" fill="#363638"/></g><g transform="translate(241.826 175.839)"><path d="M-3.974-1.987A2.236,2.236,0,0,1-6.21.249,2.235,2.235,0,0,1-8.445-1.987,2.235,2.235,0,0,1-6.21-4.223,2.235,2.235,0,0,1-3.974-1.987" transform="translate(8.445 4.223)" fill="#fe615b"/></g><g transform="translate(239.881 181.077)"><path d="M-7.43-2.361h-8.36a4.326,4.326,0,0,1,4.117-2.656l.064,0,.063,0A4.326,4.326,0,0,1-7.43-2.361" transform="translate(15.791 5.017)" fill="#fe615b"/></g></g></g><g transform="translate(688.648 660.818)"><g transform="translate(0 0)" clip-path="url(#g)"><g transform="translate(8.663 62.444)"><path d="M-18.165-12.441S-19.284-5.62-24.306-4.4c-4.056.985-7.88-2.911-9.2-4.445-.316-.368-.488-.6-.488-.6a7.153,7.153,0,0,1-.753.025c-1.057-.014-2.938-.23-3.674-1.53-1.049-1.853,2.769-3.119,2.769-3.119s-1.958-1.749-1.468-3.02c.484-1.249,3.109-1.511,3.109-1.511s-2.827-1.835-1.881-3.436c1.423-2.407,4.349.241,4.581.387-.184-.212-3.847-4-1.842-4.684,1.749-.6,4.627,1.374,6.519,3.324.3.308.469.488.469.488s.114-.086.313-.218c.947-.633,3.851-2.328,5.7-.783,2.237,1.867,1.986,11.079,1.986,11.079" transform="translate(38.604 26.439)" fill="#ff9c79"/></g><g transform="translate(19.631 71.97)"><path d="M-3.758-7.7a.4.4,0,0,1-.4-.028.4.4,0,0,1-.109-.553,3.589,3.589,0,0,0,.608-2.986c-.663-2.554-4.079-4.321-4.113-4.339a.4.4,0,0,1-.174-.536.4.4,0,0,1,.537-.174c.153.078,3.771,1.951,4.523,4.849A4.352,4.352,0,0,1-3.6-7.832a.4.4,0,0,1-.156.136" transform="translate(7.987 16.356)" fill="#f66c63"/></g><g transform="translate(12.517 68.976)"><path d="M-6.982-1.62A1.24,1.24,0,0,1-7.545-.533,1.426,1.426,0,0,1-7.8-.4a2.892,2.892,0,0,1-.719.162,2.929,2.929,0,0,1,.511.416A1.379,1.379,0,0,1-7.7.645,1.039,1.039,0,0,1-7.88,1.651C-8.52,2.5-10,2.845-11.2,2.987A4.215,4.215,0,0,1-9.341,4.875,1.249,1.249,0,0,1-9.5,6.091a2.353,2.353,0,0,1-.864.634,13.008,13.008,0,0,1-3.235.9c-.318-.367-.489-.6-.489-.6a6.82,6.82,0,0,1-.755.027.383.383,0,0,1,.208-.084c1.475-.172,4-.69,4.5-1.351a.46.46,0,0,0,.039-.47,4.775,4.775,0,0,0-2.946-2.075.391.391,0,0,1-.3-.436.394.394,0,0,1,.4-.349c.985.019,3.7-.15,4.421-1.113.1-.14.078-.215.061-.255a1.325,1.325,0,0,0-.6-.552,9.835,9.835,0,0,0-2.361-.887.376.376,0,0,1-.205-.126A.386.386,0,0,1-11.716-1a.4.4,0,0,1,.482-.3c.138.032.424.1.779.215a8.924,8.924,0,0,0,1.8.066A1.571,1.571,0,0,0-7.978-1.2a.454.454,0,0,0,.2-.425,2.555,2.555,0,0,0-.429-1.209.389.389,0,0,1,.033-.445.083.083,0,0,0,.008-.011.39.39,0,0,1,.642.041A3.339,3.339,0,0,1-6.982-1.62" transform="translate(14.839 3.442)" fill="#f66c63"/></g><g transform="translate(12.19 33.055)"><path d="M-4.676-26.912a10.915,10.915,0,0,1,1.868,1.372c.568.539.925.813,1.313,1.169h0L-9.159-56.885a.394.394,0,0,0-.772.158l5.254,29.816h0" transform="translate(9.938 57.192)" fill="#363638"/></g><g transform="translate(19.007 71.24)"><path d="M-4.539-9.022c-2.656,1.714-3.4.445-3.4.445l-1.347-7.637c.039-.041.076-.086.111-.131A1.041,1.041,0,0,0-9-17.351a1.38,1.38,0,0,0-.308-.468,2.392,2.392,0,0,0-.31-.273l-.029-.166A2.8,2.8,0,0,0-9.1-18.4a1.427,1.427,0,0,0,.258-.131,1.174,1.174,0,0,0,.493-.645,1.972,1.972,0,0,0,1.194.535,2.6,2.6,0,0,0,.386.013Z" transform="translate(9.647 19.173)" fill="#363638"/></g><g transform="translate(19.475 65.876)"><path d="M-6.175-3.192A13.1,13.1,0,0,1-8.792-1.435,4.489,4.489,0,0,1-11.1-.883,1.994,1.994,0,0,1-12.541-1.7c-1.264-1.7-.182-3.914.577-5.085.3.308.469.488.469.488s.114-.086.313-.219c-.653.965-1.744,2.965-.719,4.339a1.2,1.2,0,0,0,.885.5C-9.61-1.529-7.425-3.152-6.7-3.789a.4.4,0,0,1,.563.035.4.4,0,0,1-.035.562" transform="translate(13.122 6.784)" fill="#f66c63"/></g><g transform="translate(18.649 61.558)"><path d="M-43.372-.021V-.035s0-.016,0,0l-.01.043-.02.1-.048.234-.106.518q-.053.265-.116.541c-.039.182-.08.365-.125.552-.169.741-.354,1.5-.557,2.253-.413,1.509-.852,3.028-1.364,4.52s-1.044,2.978-1.648,4.429c-.308.723-.61,1.447-.94,2.156-.311.719-.657,1.416-.99,2.121-.7,1.389-1.43,2.757-2.22,4.077-.187.338-.4.657-.6.985s-.395.659-.611.973c-.425.634-.836,1.278-1.282,1.892-.861,1.255-1.812,2.427-2.759,3.6-.983,1.133-1.981,2.252-3.049,3.289-.266.26-.527.527-.8.784l-.827.747-.412.376-.1.094.052-.047.072-.061a2.783,2.783,0,0,1,.308-.218,4.852,4.852,0,0,1,1.486-.688c.127-.032.233-.067.354-.088.059-.011.118-.02.177-.026l.149-.026a2.394,2.394,0,0,1,.3-.022,1.5,1.5,0,0,1,.232-.009c.035,0,.084.007.109.006s.054,0,.082,0c.052,0,.114.013.156.018a.448.448,0,0,1,.1.013l.045.012h.019c.116.037-.115,0-.46-.149a11.873,11.873,0,0,1-1.329-.695c-.511-.3-1.062-.669-1.628-1.072-1.137-.8-2.327-1.765-3.518-2.786s-2.392-2.128-3.583-3.271-2.387-2.32-3.56-3.532-2.356-2.44-3.512-3.692c-.583-.622-1.163-1.248-1.732-1.878L-79.307,14.2l-12.865,9.649.429.649.406.6.813,1.18q.822,1.165,1.662,2.308c1.13,1.52,2.286,3.022,3.489,4.5s2.45,2.94,3.752,4.385c.654.72,1.319,1.437,2,2.15s1.39,1.416,2.116,2.118a59.777,59.777,0,0,0,4.737,4.136c.873.675,1.791,1.343,2.8,2a28.493,28.493,0,0,0,3.387,1.907,20.528,20.528,0,0,0,4.63,1.582l.349.071c.121.022.252.042.378.061.253.039.509.074.764.106s.552.048.828.066l.419.022c.138.007.3,0,.445,0q.453,0,.906-.024c.316-.022.645-.058.965-.1.162-.02.32-.04.483-.066s.339-.064.507-.1c.34-.073.668-.142,1.009-.241a13.939,13.939,0,0,0,3.917-1.825c.287-.2.566-.411.842-.628l.2-.164.185-.152.148-.131.59-.525,1.177-1.055c.384-.359.757-.729,1.135-1.095,1.521-1.456,2.918-3.021,4.279-4.61,1.325-1.613,2.6-3.263,3.764-4.98,1.187-1.7,2.252-3.471,3.268-5.257l.736-1.353c.244-.451.467-.911.7-1.367s.462-.913.675-1.375l.65-1.385A75.232,75.232,0,0,0-28.54,13.848c.515-1.95.979-3.912,1.335-5.912.179-1,.347-2,.481-3.035.035-.256.066-.515.1-.777s.061-.522.088-.791.055-.54.079-.816l.074-.982Z" transform="translate(92.172 0.044)" fill="#ffb128"/></g><g transform="translate(27.053 82.289)"><path d="M0-1.07A1.109,1.109,0,0,0,1.2-.059a1.11,1.11,0,0,0,1.012-1.2,1.11,1.11,0,0,0-1.2-1.011A1.11,1.11,0,0,0,0-1.07" transform="translate(0.008 2.274)" fill="#dd7f21"/></g><g transform="translate(49.646 93.52)"><path d="M-.421-8.03a.474.474,0,0,0,.46-.359A35.7,35.7,0,0,0,.811-16.6a.474.474,0,0,0-.487-.461.475.475,0,0,0-.461.487A35.446,35.446,0,0,1-.881-8.618a.473.473,0,0,0,.344.574.464.464,0,0,0,.115.015" transform="translate(0.895 17.064)" fill="#dd7f21"/></g><g transform="translate(50.41 94.152)"><path d="M-2.437-4.418a.476.476,0,0,0,.212-.05A.474.474,0,0,0-2.014-5.1,38.328,38.328,0,0,0-4.335-9.209.474.474,0,0,0-5-9.286a.474.474,0,0,0-.076.666A39.124,39.124,0,0,1-2.862-4.68a.474.474,0,0,0,.424.263" transform="translate(5.18 9.388)" fill="#dd7f21"/></g><g transform="translate(23.175 81.075)"><path d="M-.421-10.331a.473.473,0,0,0,.34-.144C3.887-14.567,12.843-21.033,12.933-21.1a.473.473,0,0,0,.108-.661.474.474,0,0,0-.662-.108c-.09.065-9.114,6.579-13.14,10.731a.474.474,0,0,0,.011.67.473.473,0,0,0,.33.133" transform="translate(0.895 21.956)" fill="#dd7f21"/></g><g transform="translate(22.219 82.506)"><path d="M-4.678-5.95a.47.47,0,0,0,.3-.11.474.474,0,0,0,.061-.667L-9.1-12.475a.474.474,0,0,0-.667-.061.474.474,0,0,0-.061.668l4.789,5.747a.476.476,0,0,0,.365.171" transform="translate(9.942 12.646)" fill="#dd7f21"/></g><g transform="translate(55.189 151.591)"><path d="M-21.3-43.943l6.422-37.9.526-3.1-18.485-6.524-1.055-.371-4.4-1.553s-.352,1.62-.9,4.407c-.066.337-.135.69-.205,1.06-1.734,8.962-4.987,27.433-5.872,43.976Z" transform="translate(45.275 93.385)" fill="#363638"/></g><g transform="translate(74.864 161.975)"><path d="M-.9-34.714c2.778-15.11,6.348-37.192,6.556-38.48a.5.5,0,0,0-.414-.572.5.5,0,0,0-.571.414c-.052.318-3.758,23.241-6.589,38.638Z" transform="translate(1.923 73.773)" fill="#575759"/></g><g transform="translate(62.083 129.249)"><path d="M-48.417-9.1s1.391,13.2-1.611,20.546S-91.9,15.009-101.808,8.4c-4.063-2.713,4.591-27.742,4.591-27.742Z" transform="translate(102.894 19.347)" fill="#363638"/></g><g transform="translate(61.061 141.749)"><path d="M0-13.607a11.357,11.357,0,0,0,1.721-.443,11.534,11.534,0,0,0,2.556-1.237A13.437,13.437,0,0,0,6.56-17.15c4.285-4.323,5.546-10.856,5.606-11.176a.5.5,0,0,0-.4-.583.5.5,0,0,0-.582.4c-.014.078-1.327,6.874-5.678,10.987a12.022,12.022,0,0,1-1.775,1.4A10.572,10.572,0,0,1,1.291-14.96a10.415,10.415,0,0,1-1.086.292c-.066.337-.135.69-.205,1.062" transform="translate(0 28.917)" fill="#575759"/></g><g transform="translate(85.044 134.631)"><path d="M0-23.214a.491.491,0,0,0,.471.505h0A.491.491,0,0,0,1-23.165c.088-1.8.194-3.652.311-5.5q.03-.487.062-.975c.393-6.031.891-11.953,1.266-16.133.032-.338.06-.666.09-.981.084-.918.16-1.731.225-2.42-.331-.052-.662-.105-.989-.16-.064.69-.141,1.511-.225,2.438-.03.314-.059.643-.09.981C1.275-41.771.779-35.9.387-29.905c-.023.33-.044.663-.066.994C.2-27,.091-25.082,0-23.214" transform="translate(0.001 49.333)" fill="#575759"/></g><g transform="translate(83.344 135.226)"><path d="M-.247-17.027a13.127,13.127,0,0,0,1.744.668c.311.095.644.181.985.248a7.281,7.281,0,0,0,.945.123A3.443,3.443,0,0,0,5.1-16.251a2.042,2.042,0,0,0,1.136-1.524c.363-1.86,1.125-9.543,1.637-14.978.033-.334.064-.66.093-.977.081-.869.154-1.66.215-2.332-.329-.04-.661-.08-.993-.124-.062.676-.135,1.476-.218,2.356q-.044.473-.092.977c-.514,5.422-1.273,13.094-1.624,14.9a1.071,1.071,0,0,1-.6.841,3.52,3.52,0,0,1-2.109.028c-.336-.073-.67-.167-.983-.268A12.083,12.083,0,0,1,.193-17.89a.505.505,0,0,0-.667.217.474.474,0,0,0,.227.645" transform="translate(0.526 36.185)" fill="#575759"/></g><g transform="translate(87.697 147.93)"><path d="M-21.358-47.2c1.538-14.066,3.316-32.886,4.321-43.791.033-.342.062-.671.092-1,.443-4.812.716-7.842.716-7.842-2.385-.993-6.711-.31-11.313,1-.333.093-.666.188-1,.29a137.413,137.413,0,0,0-16.846,6.586V-47.2Z" transform="translate(45.389 100.301)" fill="#363638"/></g><g transform="translate(108.378 161.975)"><path d="M-.89-34.714C.44-50.349,2.013-72.941,2.035-73.238a.5.5,0,0,0-.465-.534.5.5,0,0,0-.532.464c-.02.3-1.6,22.972-2.929,38.594Z" transform="translate(1.891 73.772)" fill="#575759"/></g><g transform="translate(101.778 141.749)"><path d="M-.007-.526A26.143,26.143,0,0,0,2.749,6.822a16.126,16.126,0,0,0,5.133,5.69,11.671,11.671,0,0,0,6.375,1.864c.032-.341.062-.672.092-1a10.738,10.738,0,0,1-5.926-1.7A14.938,14.938,0,0,1,3.751,6.534,25.641,25.641,0,0,1,.975-.708a.5.5,0,0,0-.582-.4.5.5,0,0,0-.4.583" transform="translate(0.015 1.117)" fill="#575759"/></g><g transform="translate(61.807 47.801)"><path d="M0-80.752c10.76,10.045,36.206,15.385,55.818,5.834,2.152-5.88,4.518-26.864,5.151-33.135.128-1.249.229-2.5.313-3.749a164.477,164.477,0,0,0,.02-18.418c-.016-.344-.032-.689-.049-1.036-.257-5.215-.641-10.626-1-16.368-.717-11.369-4.511-18.375-11.1-19.423a26.921,26.921,0,0,1-7.277-2.195c-.219-.1-.425-.2-.625-.308a20.574,20.574,0,0,1-3.33-2.061h-14.7a11.211,11.211,0,0,1-4.577,3.826q-.285.136-.576.262c-5.22,2.253-11.305,1.8-12.561,8.1-.789,3.952,2.238,12.082,1.92,28.565q-.034,1.814-.126,3.763-.086,1.828-.231,3.778c-.089,1.21-.2,2.461-.326,3.745q-.167,1.688-.382,3.463-.22,1.821-.493,3.733C4.881-105.526,2.254-89.561,0-80.752" transform="translate(0 171.61)" fill="#ffb128"/></g><g transform="translate(111.76 80.385)"><path d="M-.393-54.844a.476.476,0,0,1-.116-.016.442.442,0,0,1-.31-.542c8.168-29.944,6.519-60.38,6.5-60.684a.442.442,0,0,1,.415-.466.442.442,0,0,1,.467.415c.017.3,1.674,30.886-6.531,60.967a.443.443,0,0,1-.426.325" transform="translate(0.834 116.553)" fill="#dd7f21"/></g><g transform="translate(67.414 76.245)"><path d="M-.422-23.959a.474.474,0,0,0,.47-.421c.977-8.66.988-25.89.988-26.063a.473.473,0,0,0-.473-.474.473.473,0,0,0-.474.474c0,.173-.012,17.35-.983,25.956a.474.474,0,0,0,.418.525.455.455,0,0,0,.054,0" transform="translate(0.897 50.916)" fill="#dd7f21"/></g><g transform="translate(88.027 134.616)"><path d="M0-1.07A1.109,1.109,0,0,0,1.2-.059a1.109,1.109,0,0,0,1.011-1.2,1.109,1.109,0,0,0-1.2-1.01A1.109,1.109,0,0,0,0-1.07" transform="translate(0.008 2.273)" fill="#dd7f21"/></g><g transform="translate(87.85 139.979)"><path d="M0-1.07A1.11,1.11,0,0,0,1.2-.058a1.111,1.111,0,0,0,1.011-1.2,1.11,1.11,0,0,0-1.2-1.01A1.11,1.11,0,0,0,0-1.07" transform="translate(0.008 2.273)" fill="#dd7f21"/></g><g transform="translate(72.915 70.651)"><path d="M-1-.842C-1.179.734-1.66,6.514.59,9.128A3.6,3.6,0,0,0,3.48,10.4,3.6,3.6,0,0,0,6.37,9.129C8.618,6.518,8.138.735,7.958-.842Zm.87,10.588C-3.015,6.393-1.932-1.07-1.885-1.386a.473.473,0,0,1,.468-.4H8.375a.472.472,0,0,1,.469.4c.048.316,1.13,7.779-1.756,11.132a4.554,4.554,0,0,1-3.608,1.6,4.555,4.555,0,0,1-3.608-1.6" transform="translate(2.122 1.789)" fill="#dd7f21"/></g><g transform="translate(72.406 2.764)"><path d="M-25.458-7.806c-2.743-1.775-11.37-2.665-11.37-2.665s-1.422-3.731-3.021-4.8c-3.636-2.423-4.086,2.488-4.086,2.488s-3.553-4.975-6.75-3.554.887,6.041.887,6.041-4.8-.889-4.264,3.2,5.153,5.863,5.153,5.863a8.966,8.966,0,0,0-.711,6.041c.711,3.73,2.31,3.908,2.31,3.908l19.9,1.776s4.087,0,5.152-5.151-2.487-7.284-2.487-7.284,2.309-3.909-.71-5.863" transform="translate(54.102 16.589)" fill="#363638"/></g><g transform="translate(84.797 36.079)"><path d="M0-8.2v3.738a11.643,11.643,0,0,0,1.323.927c6.49,3.9,13.492-.927,13.492-.927V-17.417L1.767-9.3Z" transform="translate(0 17.417)" fill="#ff9c79"/></g><g transform="translate(84.797 41.98)"><path d="M0-2.856V.989a11.554,11.554,0,0,0,1.323.927c5.526-2.187,9.548-7.985,9.548-7.985l-9.1,2.222Z" transform="translate(0 6.069)" fill="#363638"/></g><g transform="translate(91.039 45.242)"><path d="M-7.59,0A7.393,7.393,0,0,1-2.023,5.73c-4.255,4.452-8.018,8.312-14.107,9.439V6.227A15.758,15.758,0,0,0-7.59,0" transform="translate(16.129)" fill="#ffb128"/></g><g transform="translate(79.243 46.534)"><path d="M-4.815,0s-3.9.837-5.417,5.828c3.933,4.785,6.034,6.586,11.8,8.049V4.935S-1.649,4.884-4.815,0" transform="translate(10.232)" fill="#ffb128"/></g><g transform="translate(82.462 62.835)"><path d="M0-47.28l2.529,6.1v0l1.135,2.743,3.208,7.75,1.549-2.992.549-1.06,1.244-2.4.547-1.06L12-40.593l.547-1.059,1.244-2.4v0l.549-1.057,1.168-2.255-.025-.244-.181-1.79-.413-4.056-.182-1.792L14.3-59.3l-.181-1.789L13.7-65.147l-.182-1.789-.413-4.058-.181-1.79-.413-4.056-.182-1.79-.414-4.056-.181-1.791-.414-4.054L11.14-90.32l-.413-4.056-.182-1.789-.426-4.193-3.1-.121-.091.7-.187,1.42-.425,3.218-.187,1.42L5.7-90.506l-.188,1.421-.424,3.218L4.9-84.447l-.424,3.218L4.293-79.81l-.425,3.22-.187,1.42-.425,3.218-.187,1.419-.424,3.219-.188,1.421-.424,3.218-.188,1.42L1.42-58.036l-.188,1.421L.808-53.4.62-51.977.195-48.759.008-47.338Z" transform="translate(0 100.478)" fill="#363638"/></g><g transform="translate(89.203 63.532)"><path d="M0-1.262,3.986,2.724,3.8.935.188-2.681Z" transform="translate(0 2.681)" fill="#575759"/></g><g transform="translate(88.591 68.17)"><path d="M0-1.262,5.193,3.933,5.011,2.142.188-2.681Z" transform="translate(0 2.681)" fill="#575759"/></g><g transform="translate(87.979 72.807)"><path d="M0-1.264l6.4,6.4L6.219,3.345.188-2.685Z" transform="translate(0 2.685)" fill="#575759"/></g><g transform="translate(87.367 77.447)"><path d="M0-1.262,7.608,6.346l-.181-1.79L.188-2.681Z" transform="translate(0 2.681)" fill="#575759"/></g><g transform="translate(86.755 82.085)"><path d="M0-1.262,8.815,7.553,8.633,5.764.188-2.681Z" transform="translate(0 2.681)" fill="#575759"/></g><g transform="translate(86.142 86.725)"><path d="M0-1.262,10.022,8.76,9.84,6.972.188-2.681Z" transform="translate(0 2.681)" fill="#575759"/></g><g transform="translate(85.53 91.362)"><path d="M0-1.262,11.229,9.968l-.181-1.79L.188-2.681Z" transform="translate(0 2.681)" fill="#575759"/></g><g transform="translate(84.918 96)"><path d="M0-1.264,12.437,11.173l-.182-1.792L.188-2.685Z" transform="translate(0 2.685)" fill="#575759"/></g><g transform="translate(84.306 100.639)"><path d="M0-1.262,13.644,12.382l-.182-1.79L.188-2.681Z" transform="translate(0 2.681)" fill="#575759"/></g><g transform="translate(83.694 105.277)"><path d="M0-1.264,12.564,11.3l.549-1.057L.188-2.685Z" transform="translate(0 2.685)" fill="#575759"/></g><g transform="translate(83.082 109.917)"><path d="M0-1.262,11.385,10.123l.547-1.059L.188-2.681Z" transform="translate(0 2.681)" fill="#575759"/></g><g transform="translate(82.469 114.555)"><path d="M0-1.263l10.206,10.2.547-1.06L.188-2.684Z" transform="translate(0 2.684)" fill="#575759"/></g><g transform="translate(84.99 122.139)"><path d="M0,0,1.135,2.743,5.892,7.5l.549-1.06Z" fill="#575759"/></g><g transform="translate(89.211 62.835)"><path d="M-3-.108-4.539,2.185-6.1-.229l-.271,2.063,1.8,1.836,1.729-2.181Z" transform="translate(6.367 0.229)" fill="#575759"/></g><g transform="translate(87.078 53.972)"><path d="M-7.194-4.561l-4.133,6.145-3.962-6.145,3.962-5.132Z" transform="translate(15.289 9.693)" fill="#363638"/></g><g transform="translate(78.779 50.498)"><path d="M-16.7-11.385a.473.473,0,0,0,.3-.1c4.093-3.263,7.577-11.7,7.724-12.054a.473.473,0,0,0-.259-.618.473.473,0,0,0-.618.259c-.034.082-3.316,8.023-7.061,11.354L-22.848-21a.468.468,0,0,0-.386-.193.474.474,0,0,0-.383.2l-5.808,8.245c-.885-1.6-3.218-5.852-5.177-9.794a.472.472,0,0,0-.635-.213.474.474,0,0,0-.214.635c2.472,4.975,5.534,10.439,5.565,10.494a.475.475,0,0,0,.39.241.472.472,0,0,0,.412-.2l5.863-8.324,6.135,8.333a.472.472,0,0,0,.32.188.459.459,0,0,0,.062,0" transform="translate(35.5 24.196)" fill="#dd7f21"/></g><g transform="translate(90.576 51.382)"><path d="M-.421-2.723A.474.474,0,0,0,.053-3.2V-5.313a.474.474,0,0,0-.474-.474.473.473,0,0,0-.474.474V-3.2a.473.473,0,0,0,.474.474" transform="translate(0.895 5.787)" fill="#dd7f21"/></g><g transform="translate(76.299 27.622)"><path d="M-3.4-.991s-2.123-2.508-3.323,0S-7,6.594-3.771,5.763Z" transform="translate(7.229 2.105)" fill="#f66c63"/></g><g transform="translate(77.862 14.068)"><path d="M0-20.853s-.011,7.728,8.027,7.71c7.988-.016,13.432-6.288,13.715-6.579l.008-.008.088-1.624.454-8.43.244-4.506s1.02-8.113-6.69-9.592c-5.633-1.081-10.916-.146-13.581,2.793-.086.1-.169.192-.249.292A6.935,6.935,0,0,0,.5-37.018L.25-28.926.189-26.942Z" transform="translate(0 44.317)" fill="#ff9c79"/></g><g transform="translate(86.608 21.344)"><path d="M-.429-2.054S2.942.458,4.95-1.143,2.281-4.49.743-4.358s-2.175,1.734-1.173,2.3" transform="translate(0.913 4.365)" fill="#363638"/></g><g transform="translate(77.548 21.344)"><path d="M-5.219-2.054S-8.591.458-10.6-1.143-7.93-4.49-6.393-4.358s2.175,1.734,1.173,2.3" transform="translate(11.092 4.365)" fill="#363638"/></g><g transform="translate(84.943 37.179)"><path d="M-1.008-1.21a3.344,3.344,0,0,0,2.3-.737.356.356,0,0,0,.038-.5.356.356,0,0,0-.5-.038,2.459,2.459,0,0,1-2.47.384.354.354,0,0,0-.469.181.355.355,0,0,0,.179.469,2.894,2.894,0,0,0,.924.243" transform="translate(2.143 2.572)" fill="#f66c63"/></g><g transform="translate(82.181 33.024)"><path d="M-6.56,0a36.269,36.269,0,0,1-7.381.765s.921,3.65,4.572,2.728A3.654,3.654,0,0,0-6.56,0" transform="translate(13.941)" fill="#fff"/></g><g transform="translate(79.877 14.068)"><path d="M0-3.129c1.261-.447,2.172-.031,4.137.832,2.841,1.247,6.016.124,8.823-1.31s4.49.561,3.534,1.871S15.641.635,16.7,2.3,14.7,4.751,16.39,6.061a1.733,1.733,0,0,1,.383,2.144,1.156,1.156,0,0,0,1.3,1.532c.913-.232,2.2-1.852,2.2-1.852l.243-4.506s1.021-8.113-6.689-9.592C8.2-7.295,2.914-6.36.249-3.421c-.087.1-.17.192-.249.292" transform="translate(0 6.649)" fill="#363638"/></g><g transform="translate(88.595 29.435)"><path d="M0-.905C0-.343,1.159.113,2.589.113S5.177-.343,5.177-.905,4.017-1.924,2.589-1.924,0-1.468,0-.905" transform="translate(0 1.924)" fill="#f66c63"/></g><g transform="translate(78.05 29.435)"><path d="M0-1.785c.2.02.409.03.624.03,1.427,0,2.587-.456,2.587-1.019S2.051-3.793.624-3.793q-.291,0-.563.025Z" transform="translate(0 3.793)" fill="#f66c63"/></g><g transform="translate(87.474 25.958)"><path d="M0-1.244C0-.471.35.156.782.156s.784-.627.784-1.4-.351-1.4-.784-1.4S0-2.017,0-1.244" transform="translate(0 2.643)" fill="#363638"/></g><g transform="translate(79.709 25.958)"><path d="M0-1.244C0-.471.35.156.782.156s.784-.627.784-1.4-.35-1.4-.784-1.4S0-2.017,0-1.244" transform="translate(0 2.643)" fill="#363638"/></g><g transform="translate(97.088 35.527)"><path d="M0,0C.037.085,1.053,2.445,2.516,3.136l.008-.008L2.611,1.5A5.546,5.546,0,0,1,0,0" transform="translate(0 0)" fill="#363638"/></g><g transform="translate(98.503 28.022)"><path d="M0-1.9s3.09-4.15,5.353-.889C7.219-.1,3.691,6.9,0,4.5Z" transform="translate(0 4.04)" fill="#ff9c79"/></g><g transform="translate(98.607 30.136)"><path d="M-.283-4.6a.317.317,0,0,0,.316-.283A5.312,5.312,0,0,1,3.119-9.166.318.318,0,0,0,3.3-9.579a.317.317,0,0,0-.413-.177A5.949,5.949,0,0,0-.6-4.954.318.318,0,0,0-.318-4.6h.035" transform="translate(0.601 9.779)" fill="#363638"/></g><g transform="translate(99.632 32.023)"><path d="M-2.009-1.212a.317.317,0,0,0,.247-.118.317.317,0,0,0-.046-.446,3.061,3.061,0,0,0-2.222-.757.318.318,0,0,0-.23.387.319.319,0,0,0,.388.229c.549-.14,1.386.41,1.663.634a.314.314,0,0,0,.2.071" transform="translate(4.269 2.575)" fill="#363638"/></g><g transform="translate(82.389 23.996)"><path d="M-2.289-6.445a.317.317,0,0,0,.318-.318.317.317,0,0,0-.318-.318,2.184,2.184,0,0,1-1.9-.885c1.267-2.614,2.528-5.249,2.541-5.275a.318.318,0,0,0-.15-.424.318.318,0,0,0-.424.15c-.013.027-1.321,2.763-2.614,5.425a.317.317,0,0,0,0,.273A2.715,2.715,0,0,0-2.289-6.445" transform="translate(4.865 13.696)" fill="#363638"/></g><g transform="translate(157.591 36.462)"><path d="M-3.808-20.83S.472-16.508,4.7-18.193C8.11-19.555,8.866-24.3,9.031-26.074c.04-.424.045-.678.045-.678a6.207,6.207,0,0,0,.553-.366c.751-.549,1.99-1.664,1.854-2.971-.192-1.864-3.576-.825-3.576-.825s.513-2.253-.488-2.914c-.983-.65-3,.5-3,.5s1.092-2.758-.4-3.424c-2.249-1-3,2.391-3.089,2.614.025-.246,1.095-10.643-.691-10.109-1.559.465-2.995,9.154-3.357,11.519-.058.374-.088.589-.088.589s-.125,0-.336,0c-1,.029-3.95.294-4.488,2.347-.653,2.48,4.225,8.96,4.225,8.96" transform="translate(8.094 44.267)" fill="#ff9c79"/></g><g transform="translate(166.896 49.34)"><path d="M-3.321-2.855a3.706,3.706,0,0,0-.368,2.3,1.093,1.093,0,0,0,.731.793,2.073,2.073,0,0,0,.942.014A11.487,11.487,0,0,0,.761-.753c.041-.426.045-.678.045-.678A5.9,5.9,0,0,0,1.36-1.8a.344.344,0,0,0-.191.045C.023-1.124-2.053-.206-2.748-.428a.405.405,0,0,1-.268-.316A4.2,4.2,0,0,1-1.961-3.734.347.347,0,0,0-1.967-4.2a.348.348,0,0,0-.466-.045c-.7.515-2.728,1.777-3.737,1.456-.147-.047-.167-.115-.175-.152a1.173,1.173,0,0,1,.152-.7,8.628,8.628,0,0,1,1.241-1.84.348.348,0,0,0,.085-.193.347.347,0,0,0-.116-.3.354.354,0,0,0-.5.033A9.53,9.53,0,0,0-6.746-4.12a2.97,2.97,0,0,0-.3.875,1.2,1.2,0,0,0,.019.493.908.908,0,0,0,.638.63,4.459,4.459,0,0,0,3.063-.734" transform="translate(7.058 6.068)" fill="#f66c63"/></g><g transform="translate(164.814 49.421)"><path d="M-.4-.158a.345.345,0,0,1,.251.3A2.259,2.259,0,0,0,.157,1.231a.4.4,0,0,0,.361.2,1.373,1.373,0,0,0,.577-.212A10.316,10.316,0,0,0,2.971-.336a.342.342,0,0,1-.083.193A8.653,8.653,0,0,0,1.646,1.7c-.069.046-.141.088-.21.128A2.647,2.647,0,0,1,.8,2.1a1.217,1.217,0,0,1-.251.037,1.093,1.093,0,0,1-.959-.493A2.934,2.934,0,0,1-.854.2a.343.343,0,0,1,.44-.357l.011,0" transform="translate(0.855 0.336)" fill="#f66c63"/></g><g transform="translate(159.928 48)"><path d="M-.279-4.914A11.564,11.564,0,0,0,2.5-4.989a3.944,3.944,0,0,0,1.936-.781A1.755,1.755,0,0,0,5.05-7.09c.04-1.862-1.866-2.9-3.007-3.354-.058.375-.088.589-.088.589s-.125,0-.336,0c.961.359,2.764,1.237,2.73,2.746a1.059,1.059,0,0,1-.38.809c-.934.823-3.329.773-4.173.685A.348.348,0,0,0-.59-5.3a.351.351,0,0,0,.311.385" transform="translate(0.592 10.444)" fill="#f66c63"/></g><g transform="translate(164.935 52)"><path d="M-2.521-7.314a.35.35,0,0,0,.27-.222.351.351,0,0,0-.2-.452A3.156,3.156,0,0,1-4.414-9.82c-.827-2.171.723-5.18.738-5.21a.35.35,0,0,0-.148-.473.351.351,0,0,0-.474.148c-.07.135-1.709,3.323-.771,5.785A3.83,3.83,0,0,0-2.7-7.332a.36.36,0,0,0,.182.018" transform="translate(5.358 15.543)" fill="#f66c63"/></g><g transform="translate(103.768 54.854)"><path d="M-10.6,0l7.316,6.353Q-1.527,7.991.239,9.6c1.173,1.081,2.344,2.157,3.522,3.215s2.351,2.112,3.525,3.144S9.637,18,10.8,18.973s2.32,1.911,3.408,2.719c.539.4,1.062.767,1.487,1.044l.282.181.116.072a.23.23,0,0,1,.042.037.735.735,0,0,1,.091.1c.037.05.032.088.08.128a.55.55,0,0,0,.361.056,5.54,5.54,0,0,0,2.051-.8,17.634,17.634,0,0,0,2.812-2.1,37.755,37.755,0,0,0,2.889-2.9,71.494,71.494,0,0,0,5.455-7.027c1.737-2.507,2.965-4.442,4.534-7.108A11.747,11.747,0,0,0,45.071,7.446a94.9,94.9,0,0,1-4.122,9.514,73.844,73.844,0,0,1-5.426,9.218A47.116,47.116,0,0,1,32,30.659a33.027,33.027,0,0,1-4.584,4.281,23.126,23.126,0,0,1-2.987,1.938,19.546,19.546,0,0,1-3.7,1.544,16.917,16.917,0,0,1-4.472.707,16.291,16.291,0,0,1-4.737-.6,17.146,17.146,0,0,1-2.19-.777l-.509-.23-.428-.208c-.148-.072-.269-.137-.4-.205s-.268-.138-.385-.2c-.989-.535-1.838-1.051-2.649-1.564C3.344,34.31,1.9,33.293.477,32.266s-2.766-2.075-4.106-3.122-2.654-2.1-3.944-3.172-2.574-2.142-3.841-3.225-2.515-2.183-3.76-3.281-2.473-2.216-3.695-3.34l-1.826-1.7-.907-.86c-.306-.29-.6-.57-.92-.884Z" transform="translate(22.521)" fill="#ffb128"/></g><g transform="translate(108.757 73.429)"><path d="M-12.368-10.163a.44.44,0,0,1-.252-.08c-4.83-3.381-13.418-10.5-13.5-10.575a.44.44,0,0,1-.057-.621.441.441,0,0,1,.621-.058c.086.071,8.646,7.172,13.446,10.531a.441.441,0,0,1,.109.614.44.44,0,0,1-.362.188" transform="translate(26.284 21.599)" fill="#dd7f21"/></g><g transform="translate(108.839 75.782)"><path d="M-3.416-1.224a.391.391,0,0,1-.064,0l-3.4-.495a.44.44,0,0,1-.373-.5.438.438,0,0,1,.5-.373l3.4.494a.441.441,0,0,1,.373.5.441.441,0,0,1-.436.378" transform="translate(7.26 2.602)" fill="#dd7f21"/></g><g transform="translate(158.202 61.93)"><path d="M-9.583-5.209A.448.448,0,0,0-9.352-5.7a.45.45,0,0,0-.535-.344c-6.407,1.4-9.6-4.716-9.629-4.777a.449.449,0,0,0-.6-.2l0,0a.449.449,0,0,0-.193.6c.035.068,3.544,6.79,10.621,5.248a.462.462,0,0,0,.112-.04" transform="translate(20.366 11.07)" fill="#dd7f21"/></g><g transform="translate(165.034 62.136)"><path d="M-.584-5.131a.448.448,0,0,0,.206-.222l2.109-4.925a.448.448,0,0,0-.236-.589.449.449,0,0,0-.59.236L-1.2-5.706a.45.45,0,0,0,.236.59.448.448,0,0,0,.384-.015" transform="translate(1.24 10.904)" fill="#dd7f21"/></g><g transform="translate(161.826 62.035)"><path d="M-.078-1.012A.778.778,0,0,0,.972-.68.779.779,0,0,0,1.3-1.73a.779.779,0,0,0-1.05-.332.779.779,0,0,0-.332,1.05" transform="translate(0.166 2.15)" fill="#dd7f21"/></g><g transform="translate(140.925 78.184)"><path d="M-.583-4.846a.447.447,0,0,0,.236-.325A19.442,19.442,0,0,1,.965-9.645a.449.449,0,0,0-.2-.6.45.45,0,0,0-.6.2,19.942,19.942,0,0,0-1.4,4.735A.448.448,0,0,0-.863-4.8a.444.444,0,0,0,.28-.044" transform="translate(1.24 10.299)" fill="#dd7f21"/></g><g transform="translate(142.185 78.588)"><path d="M-2.057-3.589a.433.433,0,0,0,.081-.055.448.448,0,0,0,.056-.633A8.265,8.265,0,0,1-3.482-7.268a.449.449,0,0,0-.53-.351.45.45,0,0,0-.35.53A9.045,9.045,0,0,0-2.608-3.7a.45.45,0,0,0,.551.11" transform="translate(4.372 7.628)" fill="#dd7f21"/></g></g></g><g transform="translate(448 609.667)"><g clip-path="url(#a)"><g transform="translate(29.524 320.753)"><path d="M-181.747-5.53c0,3.436-45.777,6.222-102.246,6.222S-386.24-2.093-386.24-5.53s45.778-6.222,102.247-6.222S-181.747-8.966-181.747-5.53" transform="translate(386.24 11.752)" fill="#cdd4e7"/></g><g transform="translate(109.736 147.919)"><path d="M-13.915-5.215-3.587,32.55-7.268,28.3a18.759,18.759,0,0,0,4.689,1.674,33.85,33.85,0,0,0,5.641.723c1.992.1,4.068.085,6.19,0s4.292-.247,6.494-.436h.012a5.9,5.9,0,0,1,1.431,11.71c-2.271.362-4.581.7-6.949.979s-4.8.479-7.313.537a47.051,47.051,0,0,1-7.812-.431,32.394,32.394,0,0,1-8.2-2.267,6.42,6.42,0,0,1-3.55-3.852l-.131-.392L-29.159-.592a7.967,7.967,0,0,1,5.037-10.08A7.967,7.967,0,0,1-14.042-5.635c.044.131.09.287.127.419" transform="translate(29.571 11.084)" fill="#ff9c79"/></g><g transform="translate(73.899 268.455)"><path d="M-49.3-19.764a1.348,1.348,0,0,1-.463-.081l-54.106-19.507a1.364,1.364,0,0,1-.82-1.746,1.363,1.363,0,0,1,1.746-.821l54.105,19.507a1.364,1.364,0,0,1,.821,1.747,1.364,1.364,0,0,1-1.283.9" transform="translate(104.771 42.001)" fill="#dd7f21"/></g><g transform="translate(71.652 268.134)"><path d="M-1.213-20.049a1.363,1.363,0,0,1-1.283-.9A1.364,1.364,0,0,1-1.677-22.7L53.07-42.525a1.365,1.365,0,0,1,1.748.818A1.364,1.364,0,0,1,54-39.959L-.748-20.13a1.354,1.354,0,0,1-.464.082" transform="translate(2.578 42.606)" fill="#dd7f21"/></g><g transform="translate(66.931 245.888)"><path d="M-59.77-70.8a2.336,2.336,0,0,1-2.312-2.026L-71.855-145.8h-40.894l-9.62,72.963a2.335,2.335,0,0,1-2.62,2.01A2.336,2.336,0,0,1-127-73.446l9.888-74.994a2.336,2.336,0,0,1,2.315-2.03h44.986a2.335,2.335,0,0,1,2.315,2.026L-57.452-73.45a2.336,2.336,0,0,1-2.006,2.625,2.351,2.351,0,0,1-.313.021" transform="translate(127.021 150.47)" fill="#ffb128"/></g><g transform="translate(59.261 167.716)"><path d="M-46.083-71.552H-75.3c-9.256,0-19.169-5.066-20.59-14.212a173.491,173.491,0,0,1-1.84-34.945,42.547,42.547,0,0,1,16.134-31.35s5.836,25.434-1.5,60.537c2.8,13.338,37.015,19.971,37.015,19.971" transform="translate(97.933 152.06)" fill="#ffb128"/></g><g transform="translate(78.033 92.062)"><path d="M-23.988-6.214s-3.475-8.369-12.669-6.794c-6.427,1.1-9.164,9.109-8.786,21.471.551,17.994-5.536,28.837-5.536,28.837l8.079,1.836S-22.336,8.291-23.988-6.214" transform="translate(50.979 13.205)" fill="#363638"/></g><g transform="translate(94.565 208.149)"><path d="M-74.781-76.556h-13.05s-3.02-14.485-4.033-22.607-1.54-27.379-1.54-27.379-10.4,3.379-32.17,2.105c-48.236-2.817-29.946-38.256-29.946-38.256,1.63,2.251,11.612.69,18.436,1.766,20.942,2.01,39.1,10.23,50,14.932a54.268,54.268,0,0,1,7,3.59c2.628,1.62,4.272,6.535,5.263,13,2.978,19.428.034,52.851.034,52.851" transform="translate(158.921 162.693)" fill="#363638"/></g><g transform="translate(97.986 208.707)"><path d="M-61.581-69.857a.468.468,0,0,1-.457-.375c-1.881-9.318-2.514-20.916-3.022-30.235-.421-7.728-.819-15.026-1.811-15.9-.8-.711-4.142-.156-8.369.546-8.407,1.4-21.111,3.5-35.122.244-7.632-1.775-13.242-5.482-16.675-11.018-5.921-9.546-3.221-21.381-3.194-21.5a.467.467,0,0,1,.562-.347.467.467,0,0,1,.348.562c-.028.114-2.636,11.587,3.082,20.8,3.3,5.313,8.711,8.877,16.089,10.593,13.83,3.218,26.424,1.127,34.757-.256,4.991-.829,8-1.329,9.14-.324,1.228,1.086,1.574,6.423,2.126,16.552.506,9.289,1.136,20.85,3,30.1a.466.466,0,0,1-.365.55.47.47,0,0,1-.093.01" transform="translate(130.869 148.457)" fill="#575759"/></g><g transform="translate(163.976 286.306)"><path d="M-13.313-1.108h-.011l-14.511-.311a.468.468,0,0,1-.457-.477.463.463,0,0,1,.477-.457l14.512.312a.467.467,0,0,1,.457.477.467.467,0,0,1-.467.457" transform="translate(28.292 2.354)" fill="#575759"/></g><g transform="translate(166.389 294.286)"><path d="M-10.626-14.861h-9.211l-1.774-10.807-.971-5.914h11.444l.182,5.914Z" transform="translate(22.583 31.581)" fill="#ff9c79"/></g><g transform="translate(167.361 300.199)"><path d="M-9.763-9.6h-9.211l-1.321-8.045-.453-2.762h10.655l.088,2.863Z" transform="translate(20.748 20.412)" fill="#ffb128"/></g><g transform="translate(167.36 300.2)"><path d="M-9.548-2.544l-10.29-.1-.453-2.761H-9.636Z" transform="translate(20.291 5.407)" fill="#dd7f21"/></g><g transform="translate(165.747 308.446)"><path d="M-31.4-15.205h-34.84A4.879,4.879,0,0,1-66.7-17.14c-.219-2.947.721-7.65,1.182-10.615.056-.347.1-.67.141-.962a10.252,10.252,0,0,0,.1-1.212,1.777,1.777,0,0,1,2.142-2c3.525,3.458,7.517-1.727,9.848-.026,0,0,.1.069.308.236.2.153.493.392.906.739.594.5,1.427,1.218,2.555,2.233,2.765,2.488,7.469,4.13,11.475,5.8q.766.321,1.424.639c.334.161.649.323.946.484,3.273,1.768,4.315,3.457,4.552,4.685a2.717,2.717,0,0,1-.286,1.935" transform="translate(66.729 32.313)" fill="#0076fb"/></g><g transform="translate(175.914 309.035)"><path d="M-18.572-8.8c-.9.714-2.894,2.143-4.494,2.143-.071,0-.141,0-.21-.008-1.13-.094-5.282-2.135-8.66-3.991-1.936-1.065-3.7-2.111-4.975-2.951-2.086-1.374-2.447-1.9-2.529-2.264-.3-1.374,1.969-2.332,3.563-2.828.2.153.493.392.906.739-1.98.54-3.606,1.386-3.53,1.868.194.407,2.255,1.979,7.186,4.678,3.762,2.058,7.33,3.723,8.121,3.789,1.072.086,2.649-.89,3.678-1.659q.5.241.946.484" transform="translate(39.468 18.697)" fill="#004ecc"/></g><g transform="translate(165.779 323.619)"><path d="M-31.371-1.72H-66.21a4.881,4.881,0,0,1-.458-1.935h35.583a2.718,2.718,0,0,1-.286,1.935" transform="translate(66.668 3.655)" fill="#004ecc"/></g><g transform="translate(166.961 312.041)"><path d="M-2.516-12.01H-3.551a7.647,7.647,0,0,0,1.873-5.578A9.825,9.825,0,0,0-5.347-24.56c.056-.347.1-.671.141-.963A10.674,10.674,0,0,1-.849-17.63a8.455,8.455,0,0,1-1.667,5.62" transform="translate(5.347 25.523)" fill="#004ecc"/></g><g transform="translate(181.802 312.372)"><path d="M-.51-1.5a.574.574,0,0,1-.557-.436.575.575,0,0,1,.419-.7l2.176-.54a.574.574,0,0,1,.7.419.575.575,0,0,1-.419.7l-2.176.54A.589.589,0,0,1-.51-1.5" transform="translate(1.084 3.19)" fill="#fff"/></g><g transform="translate(179.639 310.56)"><path d="M-.51-1.5a.574.574,0,0,1-.557-.436.574.574,0,0,1,.419-.7l2.176-.54a.574.574,0,0,1,.7.419.573.573,0,0,1-.419.695l-2.176.541A.589.589,0,0,1-.51-1.5" transform="translate(1.084 3.19)" fill="#fff"/></g><g transform="translate(183.978 313.637)"><path d="M-.51-1.5a.574.574,0,0,1-.557-.436.575.575,0,0,1,.419-.7l2.176-.54a.573.573,0,0,1,.7.419.575.575,0,0,1-.419.7l-2.176.54A.59.59,0,0,1-.51-1.5" transform="translate(1.084 3.19)" fill="#fff"/></g><g transform="translate(186.154 314.853)"><path d="M-.51-1.5a.574.574,0,0,1-.557-.436.575.575,0,0,1,.419-.7l2.176-.54a.574.574,0,0,1,.7.419.575.575,0,0,1-.419.7l-2.176.54A.58.58,0,0,1-.51-1.5" transform="translate(1.084 3.19)" fill="#fff"/></g><g transform="translate(188.527 315.978)"><path d="M-.51-1.5a.575.575,0,0,1-.557-.436.574.574,0,0,1,.419-.7l2.176-.54a.573.573,0,0,1,.7.419.575.575,0,0,1-.419.7l-2.176.541A.59.59,0,0,1-.51-1.5" transform="translate(1.084 3.19)" fill="#fff"/></g><g transform="translate(191.1 316.937)"><path d="M-.51-1.5a.575.575,0,0,1-.557-.436.574.574,0,0,1,.419-.7l2.176-.54a.573.573,0,0,1,.7.419.573.573,0,0,1-.419.695l-2.176.541A.58.58,0,0,1-.51-1.5" transform="translate(1.084 3.19)" fill="#fff"/></g><g transform="translate(73.798 192.975)"><path d="M-.012-3.5S-.425-.689,3.346.1l39.3,1.311a4.432,4.432,0,0,0,2.177-4.627S28.232-12.534-.012-3.5" transform="translate(0.025 7.443)" fill="#004ecc"/></g><g transform="translate(74.333 193.769)"><path d="M-37.931-14.35c-20.4,11.221-42.678,2.186-42.678,2.186a61.879,61.879,0,0,0,2.483-9.377c.68-3.547,1.062-6.682,1.235-8.329,8.679-.477,29.95-1.381,38.286.6l.066,3.34Z" transform="translate(80.609 30.496)" fill="#ff9c79"/></g><g transform="translate(100.32 202.511)"><path d="M-1.442-1.8C-1.593-.744-2.068.058-2.5,0s-.666-.966-.515-2.018.625-1.854,1.061-1.792.665.966.515,2.018" transform="translate(3.064 3.817)" fill="#f66c63"/></g><g transform="translate(76.816 193.769)"><path d="M-35.184-4.054c-8.688-.528-25.783-.712-39.588,4.394.681-3.548,1.062-6.682,1.235-8.33,8.679-.477,29.951-1.381,38.286.6Z" transform="translate(74.772 8.616)" fill="#f66c63"/></g><g transform="translate(72.219 137.774)"><path d="M-47.884-39.474a5.028,5.028,0,0,1-.293.709c-.042.083-.085.166-.131.247a19.243,19.243,0,0,1-4.2,5.033c-.294.259-.577.5-.839.709-.524.425-.967.755-1.273.973-.28.2-.445.3-.445.3,0,.019,0,.038,0,.061-.016.151-.028.31-.042.479-.049.642-.092,1.408-.124,2.279-.028.7-.047,1.472-.066,2.3-.011.613-.023,1.255-.029,1.922-11.53-5.15-35.274-1.9-44.838-.289q.263-1.24.482-2.425a75.546,75.546,0,0,0,1.206-9.873A103.906,103.906,0,0,0-99.564-54.8c-.059-.442-.121-.88-.186-1.322-.042-.288-.085-.574-.132-.862-.326-2.134-.705-4.272-1.139-6.345-1.886-9.047-.562-18.543,8.61-19.667.666-.081,1.323-.156,1.959-.224,4.324-.461,7.881-.618,8.869-.657l.273-.011,17.733,5.15,1.686.488q1.454.468,2.695.909.531.193,1.026.376c.86.323,1.64.638,2.347.95a19.607,19.607,0,0,1,3.434,1.872C-48.5-71.382-49.1-68.261-49.2-62.1c0,.028,0,.056,0,.083,0,.078,0,.156,0,.237,0,.035,0,.071,0,.106,0,.251,0,.5,0,.755q.007,1.192.082,2.38c.066,1.163.169,2.32.3,3.453.049.454.1.906.157,1.354.052.421.106.841.161,1.255.711,5.395,1.59,10.122.626,13" transform="translate(101.761 83.889)" fill="#0076fb"/></g><g transform="translate(120.251 159.645)"><path d="M-4.024,0c0,.078,0,.156,0,.237,0,.035,0,.071,0,.106,0,.251,0,.5,0,.755L-7.755,3.433a.516.516,0,0,1-.366.073.516.516,0,0,1-.352-.236.521.521,0,0,1,.164-.717L-4.356.074A.519.519,0,0,1-4.024,0" transform="translate(8.551 0.006)" fill="#004ecc"/></g><g transform="translate(99.691 175.445)"><path d="M-.462-3.7A.521.521,0,0,1-.849-3.87.521.521,0,0,1-.81-4.605l3.467-3.12a.52.52,0,0,1,.735.039.519.519,0,0,1-.039.734L-.114-3.831A.518.518,0,0,1-.462-3.7" transform="translate(0.982 7.859)" fill="#004ecc"/></g><g transform="translate(122.226 167.932)"><path d="M-2.883-1.116-5.258,1.022a.517.517,0,0,1-.349.133A.518.518,0,0,1-5.993.984.522.522,0,0,1-5.955.249l2.911-2.62c.052.421.106.841.162,1.255" transform="translate(6.127 2.371)" fill="#004ecc"/></g><g transform="translate(93.086 166.243)"><path d="M-.083-.726a.518.518,0,0,1-.079-.416.52.52,0,0,1,.625-.387L5-.459a.52.52,0,0,1,.387.625.52.52,0,0,1-.625.387L.226-.516a.521.521,0,0,1-.308-.21" transform="translate(0.176 1.542)" fill="#004ecc"/></g><g transform="translate(76.461 171.805)"><path d="M-.462-3.7A.521.521,0,0,1-.849-3.87.52.52,0,0,1-.81-4.6L2.657-7.725a.52.52,0,0,1,.735.039.52.52,0,0,1-.039.735L-.114-3.831A.518.518,0,0,1-.462-3.7" transform="translate(0.982 7.859)" fill="#004ecc"/></g><g transform="translate(117.308 174.867)"><path d="M-.024-.316A.518.518,0,0,1,.262-.628a.519.519,0,0,1,.684.269L2.809,3.917a.52.52,0,0,1-.954.415L-.008.056A.518.518,0,0,1-.024-.316" transform="translate(0.051 0.672)" fill="#004ecc"/></g><g transform="translate(122.776 181.331)"><path d="M-2.951-.763a5.028,5.028,0,0,1-.293.709c-.042.083-.085.166-.131.247L-5.907-.6A.513.513,0,0,1-6.2-.837a.51.51,0,0,1-.048-.419.519.519,0,0,1,.652-.34Z" transform="translate(6.271 1.621)" fill="#004ecc"/></g><g transform="translate(108.178 182.559)"><path d="M-3.2,0A.516.516,0,0,1-2.8.13a.52.52,0,0,1,.036.735L-5.9,4.318a.52.52,0,0,1-.734.035.519.519,0,0,1-.036-.734L-3.534.165A.518.518,0,0,1-3.2,0" transform="translate(6.804 0.005)" fill="#004ecc"/></g><g transform="translate(109.503 171.085)"><path d="M-.383-3.122a.516.516,0,0,1-.352-.236.521.521,0,0,1,.164-.717L3.38-6.554A.519.519,0,0,1,4.1-6.39a.521.521,0,0,1-.164.717L-.017-3.194a.518.518,0,0,1-.366.072" transform="translate(0.814 6.634)" fill="#004ecc"/></g><g transform="translate(106.906 158.898)"><path d="M-4.928-.6a.518.518,0,0,1,.13.4.519.519,0,0,1-.573.46l-4.637-.505a.52.52,0,0,1-.461-.573.52.52,0,0,1,.573-.46l4.637.505a.516.516,0,0,1,.331.17" transform="translate(10.472 1.282)" fill="#004ecc"/></g><g transform="translate(105.694 149.121)"><path d="M-.013-.353A.52.52,0,0,1,.246-.687a.52.52,0,0,1,.7.212L3.157,3.634a.52.52,0,1,1-.916.493L.034.017A.515.515,0,0,1-.013-.353" transform="translate(0.028 0.749)" fill="#004ecc"/></g><g transform="translate(119.986 186.623)"><path d="M-1.321-1.382c-.294.258-.577.5-.839.709L-2.77-2.225a.517.517,0,0,1,0-.373.518.518,0,0,1,.3-.3.518.518,0,0,1,.674.293Z" transform="translate(2.807 2.936)" fill="#004ecc"/></g><g transform="translate(78.774 179.51)"><path d="M-.055-.681A.519.519,0,0,1-.086-1.1a.52.52,0,0,1,.665-.313L4.968.163a.52.52,0,1,1-.352.979L.227-.437A.517.517,0,0,1-.055-.681" transform="translate(0.117 1.446)" fill="#004ecc"/></g><g transform="translate(76.968 186.208)"><path d="M-3.571,0a.521.521,0,0,1,.385.175.52.52,0,0,1-.045.734L-6.725,4a.52.52,0,0,1-.734-.044.521.521,0,0,1,.045-.735L-3.92.131A.516.516,0,0,1-3.571,0" transform="translate(7.589 0)" fill="#004ecc"/></g><g transform="translate(81.79 190.135)"><path d="M-4.911-.872a.518.518,0,0,1,.105.41.52.52,0,0,1-.6.426L-10-.82a.518.518,0,0,1-.425-.6.52.52,0,0,1,.6-.426l4.6.784a.518.518,0,0,1,.32.19" transform="translate(10.437 1.853)" fill="#004ecc"/></g><g transform="translate(91.143 146.791)"><path d="M-.016-.584A.519.519,0,0,1,.049-1a.519.519,0,0,1,.719-.155l3.92,2.529a.52.52,0,0,1-.564.874L.2-.283a.518.518,0,0,1-.22-.3" transform="translate(0.035 1.24)" fill="#004ecc"/></g><g transform="translate(116.073 150.364)"><path d="M-1.628-.056a.519.519,0,0,1,.422-.033A.52.52,0,0,1-.889.575l-1.56,4.4a.52.52,0,0,1-.664.316.52.52,0,0,1-.316-.664L-1.87.227a.515.515,0,0,1,.242-.283" transform="translate(3.46 0.12)" fill="#004ecc"/></g><g transform="translate(112.471 144.321)"><path d="M-2.969-.334l-2.41,3.089a.518.518,0,0,1-.729.09.518.518,0,0,1-.09-.729l2.2-2.826c.354.128.7.253,1.026.376" transform="translate(6.309 0.711)" fill="#004ecc"/></g><g transform="translate(92.232 185.865)"><path d="M-.019-1.33a.423.423,0,0,0,.32.281.406.406,0,0,0,.217-.012A24.5,24.5,0,0,1,16.078-.24,26.561,26.561,0,0,0,26.6,2.012c.012-.168.025-.328.04-.479,0-.021,0-.04.006-.059,0,0,.164-.106.445-.306A25.322,25.322,0,0,1,16.4-1.025,24.916,24.916,0,0,0,.25-1.867a.424.424,0,0,0-.269.537" transform="translate(0.041 2.827)" fill="#004ecc"/></g><g transform="translate(92.398 137.775)"><path d="M-16-4.577c-.992,1.54-3.044,3.285-7.194,2.984-5.726-.416-9.495-5.878-10.811-8.125.179-.007.272-.009.272-.009Z" transform="translate(34.007 9.727)" fill="#004ecc"/></g><g transform="translate(92.246 137.35)"><path d="M-10.724-13.963a4.159,4.159,0,0,0,.506.072,4.418,4.418,0,0,0,3.812-1.365c2.754-3.009,1.623-9.867,1.573-10.157a.425.425,0,0,0-.489-.347.424.424,0,0,0-.347.489c.011.068,1.111,6.741-1.363,9.442a3.564,3.564,0,0,1-3.117,1.091c-5.55-.446-11.766-14.539-11.828-14.682a.425.425,0,0,0-.559-.219.425.425,0,0,0-.219.559c.255.584,6.15,13.924,12.031,15.116" transform="translate(22.791 29.673)" fill="#fff"/></g><g transform="translate(121.52 147.52)"><path d="M-.064,0A30.95,30.95,0,0,0,3.2,15.605q-.093-1.562-.08-3.134c0-.035,0-.071,0-.106,0-.108,0-.214.006-.32.1-6.163.7-9.284-3.188-12.045" transform="translate(0.137)" fill="#ff9c79"/></g><g transform="translate(72.219 138.441)"><path d="M-14.892-14.43C-16.927-6.581-24.364-.282-29.451-2.247c-.06-.441-.123-.88-.187-1.322-.042-.287-.085-.574-.131-.862-.325-2.134-.707-4.271-1.14-6.345-1.885-9.046-.561-18.543,8.611-19.666.666-.081,1.322-.156,1.96-.224,4.593,1.957,7.788,7.2,5.446,16.236" transform="translate(31.649 30.667)" fill="#ff9c79"/></g><g transform="translate(71.954 141.919)"><path d="M-16.059-6.019-4.14,37.564l-4.249-4.9A21.645,21.645,0,0,0-2.977,34.6a39.174,39.174,0,0,0,6.511.834c2.3.119,4.694.1,7.143,0s4.953-.285,7.494-.5h.013a6.812,6.812,0,0,1,1.652,13.514c-2.621.419-5.287.813-8.02,1.13s-5.537.553-8.44.618a54.316,54.316,0,0,1-9.016-.5A37.453,37.453,0,0,1-15.1,47.076a7.414,7.414,0,0,1-4.1-4.445l-.151-.452L-33.653-.683A9.2,9.2,0,0,1-27.84-12.317,9.2,9.2,0,0,1-16.206-6.5c.05.151.1.332.147.484" transform="translate(34.128 12.792)" fill="#ff9c79"/></g><g transform="translate(95.004 188.474)"><path d="M-.314-2.139a.353.353,0,0,1-.307-.179A.353.353,0,0,1-.49-2.8,14.9,14.9,0,0,1,4.954-4.544a.351.351,0,0,1,.379.325.354.354,0,0,1-.325.379A14.4,14.4,0,0,0-.14-2.184a.354.354,0,0,1-.174.046" transform="translate(0.668 4.545)" fill="#f66c63"/></g><g transform="translate(95.524 187.401)"><path d="M-3.7-1.693a.353.353,0,0,1-.183-.051,9.3,9.3,0,0,0-3.653-1.15.353.353,0,0,1-.327-.377A.35.35,0,0,1-7.487-3.6a9.883,9.883,0,0,1,3.969,1.25.353.353,0,0,1,.119.485.352.352,0,0,1-.3.169" transform="translate(7.864 3.599)" fill="#f66c63"/></g><g transform="translate(95.892 154.844)"><path d="M-12.82-10.212c5.275,1.069,7.583-4.386,7.6-4.441a.424.424,0,0,0-.231-.554A.424.424,0,0,0-6-14.976c-.085.205-2.072,4.859-6.651,3.931-4.8-.973-13.77-10.43-13.859-10.525a.423.423,0,0,0-.6-.018.424.424,0,0,0-.018.6c.375.4,9.242,9.747,14.308,10.775" transform="translate(27.244 21.703)" fill="#004ecc"/></g><g transform="translate(90.115 98.613)"><path d="M-10.585-29.681s-8.465-1.594-10.852-10.136c-2.272-8.134-.523-12.353,1.84-16.747,1.78-3.309,7.425-7.781,15.343-6.176C3.741-61.12,9.715-57.018,10.6-50.445c1.653,12.3-8.27,27.3-21.183,20.764" transform="translate(22.494 63.076)" fill="#363638"/></g><g transform="translate(89.263 98.168)"><path d="M-2.055-22.238a.44.44,0,0,1-.383-.222,19.161,19.161,0,0,1-.759-15.1,13.815,13.815,0,0,1,8.215-8.67,14.839,14.839,0,0,1,5.536-1.022.441.441,0,0,1,.419.462.439.439,0,0,1-.462.419A14.223,14.223,0,0,0,5.3-45.4,12.831,12.831,0,0,0-2.364-37.27,18.624,18.624,0,0,0-1.672-22.9a.442.442,0,0,1-.165.6.439.439,0,0,1-.218.058" transform="translate(4.368 47.26)" fill="#ffb128"/></g><g transform="translate(117.396 122.541)"><path d="M-.93-.7S1.825-2.876,2.549.005s-1.319,8-4.525,6.444Z" transform="translate(1.976 1.488)" fill="#f66c63"/></g><g transform="translate(112.784 128.544)"><path d="M-2.639-.068A4.378,4.378,0,0,0-5.524,3.1,4.154,4.154,0,0,0-2.283,7.994,4.153,4.153,0,0,0,2.606,4.752,4.153,4.153,0,0,0,.887.508,4.118,4.118,0,0,0-.635-.137L-.676-.144A.679.679,0,0,0-.561.542a3.459,3.459,0,0,1,1.219.6A3.5,3.5,0,0,1,1.975,4.624,3.506,3.506,0,0,1-2.154,7.362a3.507,3.507,0,0,1-2.738-4.13A3.4,3.4,0,0,1-2.313.57Z" transform="translate(5.607 0.144)" fill="#ffb128"/></g><g transform="translate(93.683 129.009)"><path d="M-14.588-5.92l-1.154,7.211S-21.14,6.8-31-3.083c2.647-1.973,3.657-6.542,3.348-9.5a14.351,14.351,0,0,1,1.976,1.552,7.858,7.858,0,0,0,.828.578c2.606,1.773,6.6,4.079,10.262,4.53" transform="translate(31.001 12.58)" fill="#ff9c79"/></g><g transform="translate(99.006 130.561)"><path d="M-9.857-4.54-10.4-1.121c-2.958-1.318-8.188-4.137-10.543-8.527q.385.275.828.578c2.606,1.773,6.6,4.079,10.262,4.53" transform="translate(20.947 9.648)" fill="#363638"/></g><g transform="translate(97.023 105.321)"><path d="M-21.407-14.46c-.153.763-.3,1.489-.443,2.179q-.23,1.123-.45,2.12c-1.091,4.992-1.992,7.664-3.448,8.666-7.361,5.062-19.343-5.189-19.729-5.519l-.01-.01c-.01-.588-.01-1.17,0-1.743a45.041,45.041,0,0,1,2.229-13.252,10.17,10.17,0,0,1,8.473-8.6c4.561-.686,7.991,1.953,10.136,3.122,3.239,1.766,4.508,6.671,3.239,13.036" transform="translate(45.493 30.729)" fill="#ff9c79"/></g><g transform="translate(99.395 101.874)"><path d="M-.1-6.782s5.152-9.909,15.431-7.144S26.151-6.387,26.332-4,21.01-5.841,21.01-5.841s-.189,4.773-2.024,3.3a29.875,29.875,0,0,1-4.767-5.7S8.1-2.219,2.279-3.842C-1.024-4.763-.1-6.782-.1-6.782" transform="translate(0.222 14.413)" fill="#363638"/></g><g transform="translate(109.739 129.715)"><path d="M-2.134-1.417a3.456,3.456,0,0,1-2.3-.971.367.367,0,0,1,.007-.52.367.367,0,0,1,.519.007A2.541,2.541,0,0,0-1.4-2.277a.367.367,0,0,1,.467.229.368.368,0,0,1-.229.466,2.988,2.988,0,0,1-.973.165" transform="translate(4.536 3.011)" fill="#f66c63"/></g><g transform="translate(109.054 125.309)"><path d="M-.007,0A37.5,37.5,0,0,0,7.521,1.469S6.235,5.141,2.563,3.856A3.778,3.778,0,0,1-.007,0" transform="translate(0.015)" fill="#fff"/></g><g transform="translate(117.162 114.987)"><path d="M-.979,0S-2.267-.135-2.058,1.113.942,1.6,2.323,4.1c0,0,1.333-2.62-3.3-4.1" transform="translate(2.081 0.008)" fill="#363638"/></g><g transform="translate(107.902 113.786)"><path d="M-4.123-.04s1.237.38.559,1.448-2.953-.721-5.2,1.044c0,0-.208-2.933,4.638-2.492" transform="translate(8.762 0.085)" fill="#363638"/></g><g transform="translate(104.878 121.027)"><path d="M-4.825-1.554c-.119.589-1.43.821-2.926.517s-2.613-1.026-2.494-1.616,1.43-.82,2.926-.517,2.613,1.027,2.494,1.616" transform="translate(10.254 3.303)" fill="#f66c63"/></g><g transform="translate(120.804 122.482)"><path d="M-3.672-.607l-4-.683a4.944,4.944,0,0,1-.1.5A.38.38,0,0,1-7.8-.706l4.032.687a.3.3,0,0,0,.344-.244.291.291,0,0,0-.244-.344" transform="translate(7.804 1.289)" fill="#fff"/></g><g transform="translate(104.163 114.694)"><path d="M-3.683-8.352c-.025,0-.048-.01-.073-.017A4.437,4.437,0,0,1-6.644-10.5a4.43,4.43,0,0,1-.494-3.1,4.516,4.516,0,0,1,.191-.659.314.314,0,0,0,.016-.04A4.454,4.454,0,0,1-3.05-17.143a4.391,4.391,0,0,1,1.165.084A4.405,4.405,0,0,1,.281-15.922,4.448,4.448,0,0,1,1.569-11.8,4.449,4.449,0,0,1-3.683-8.352M2.258-12.7a4.371,4.371,0,0,0-.036-.609A5.052,5.052,0,0,0,.873-16.173a4.99,4.99,0,0,0-2.587-1.459.3.3,0,0,0-.05-.012,5.052,5.052,0,0,0-5.606,2.838,4.442,4.442,0,0,0-.215.559,4.694,4.694,0,0,0-.138.52,5.025,5.025,0,0,0,.649,3.669,5,5,0,0,0,.8.984A4.99,4.99,0,0,0-3.805-7.766,5.043,5.043,0,0,0,.582-8.952a5.014,5.014,0,0,0,1.573-2.733s0-.009,0-.013a4.983,4.983,0,0,0,.1-1" transform="translate(7.828 17.748)" fill="#fff"/></g><g transform="translate(115.827 117.105)"><path d="M-8.352-5.282c-.02.1-.042.191-.069.282a3.445,3.445,0,0,1-.128.392,4.428,4.428,0,0,1-1.819,2.2,4.541,4.541,0,0,1-.958.448,4.385,4.385,0,0,1-.648.159c-.065.011-.127.02-.192.026a4.431,4.431,0,0,1-1.44-.057l-.133-.03c-.027-.007-.054-.014-.08-.019a4.4,4.4,0,0,1-1.863-1.008q-.115-.1-.222-.213A4.438,4.438,0,0,1-17.06-7.08a4.566,4.566,0,0,1,.311-.953,4.456,4.456,0,0,1,2.159-2.172,4.45,4.45,0,0,1,1.886-.423c.107,0,.214.006.324.013a4.5,4.5,0,0,1,.573.081c.139.03.275.063.407.1a4.188,4.188,0,0,1,.537.205,3.824,3.824,0,0,1,.4.206A4.453,4.453,0,0,1-8.352-5.282m-2.008-5.364c-.136-.072-.275-.136-.42-.2a5.018,5.018,0,0,0-.526-.181c-.124-.037-.249-.067-.378-.095a4.926,4.926,0,0,0-.707-.094,4.8,4.8,0,0,0-.844.018,5.052,5.052,0,0,0-2.14.739,5.017,5.017,0,0,0-1.719,1.794,4.691,4.691,0,0,0-.287.589.194.194,0,0,0-.011.032,4.851,4.851,0,0,0-.252.839,5.048,5.048,0,0,0,1.855,5.011,4.985,4.985,0,0,0,1.64.842c.092.028.186.053.28.073.046.014.094.024.142.034a4.988,4.988,0,0,0,1.445.085c.076,0,.152-.013.226-.023a5.13,5.13,0,0,0,.614-.12,4.992,4.992,0,0,0,1.079-.417,5.043,5.043,0,0,0,2.6-3.444,5.055,5.055,0,0,0-2.594-5.486" transform="translate(17.749 11.224)" fill="#fff"/></g><g transform="translate(98.006 116.611)"><path d="M-.212-1.718a.292.292,0,0,1-.1-.041A.3.3,0,0,1-.4-2.171c2-3.133,6.823-.32,6.871-.292a.3.3,0,0,1,.1.409.3.3,0,0,1-.409.1C6.121-1.975,1.794-4.5.1-1.849a.3.3,0,0,1-.312.131" transform="translate(0.45 3.65)" fill="#fff"/></g><g transform="translate(113.807 119.057)"><path d="M-2.319-1.22a.3.3,0,0,1-.19-.13c-.641-.99-2.013-.546-2.027-.541a.3.3,0,0,1-.378-.188.3.3,0,0,1,.188-.378,2.366,2.366,0,0,1,2.717.783.3.3,0,0,1-.088.412.3.3,0,0,1-.223.042" transform="translate(4.929 2.592)" fill="#fff"/></g><g transform="translate(117.977 123.681)"><g opacity="0.8" clip-path="url(#i)"><g transform="translate(0 0)"><path d="M-2.39-.078q-.23,1.125-.45,2.12C-4.2,1.714-5.183,1.04-5.07.485s1.29-.793,2.68-.563" transform="translate(5.079 0.165)" fill="#f66c63"/></g></g></g><g transform="translate(109.667 118.177)"><path d="M-1.5-1.458c-.164.809-.664,1.391-1.117,1.3s-.687-.822-.522-1.631.664-1.39,1.116-1.3.687.822.523,1.631" transform="translate(3.195 3.099)" fill="#363638"/></g><g transform="translate(117.672 119.799)"><path d="M-1.5-1.458c-.164.809-.664,1.391-1.117,1.3s-.687-.822-.522-1.631.664-1.39,1.116-1.3.687.822.523,1.631" transform="translate(3.195 3.099)" fill="#363638"/></g><g transform="translate(113.646 119.22)"><path d="M-1.409-3.9a3.026,3.026,0,0,0,.686.066A.339.339,0,0,0-.478-3.96.337.337,0,0,0-.4-4.223L-.92-8A.34.34,0,0,0-1.3-8.292a.34.34,0,0,0-.29.383l.46,3.364a2.681,2.681,0,0,1-1.3-.57.34.34,0,0,0-.479.044.339.339,0,0,0,.044.478,3.312,3.312,0,0,0,1.462.69" transform="translate(2.994 8.295)" fill="#363638"/></g><g transform="translate(97.023 126.287)"><path d="M-2.946,0C-3,.083-4.567,2.334-6.243,2.749h0l-.006-.01q-.016-.883,0-1.743A6.323,6.323,0,0,0-2.946,0" transform="translate(6.26)" fill="#363638"/></g><g transform="translate(93.513 117.378)"><path d="M-5.76-2.657s-2.354-5-5.417-2.066c-2.524,2.418-.317,10.5,4.058,8.77Z" transform="translate(12.241 5.646)" fill="#ff9c79"/></g><g transform="translate(91.23 124.602)"><path d="M-2.638-.068A4.376,4.376,0,0,0-5.523,3.1,4.152,4.152,0,0,0-2.282,7.993,4.152,4.152,0,0,0,2.607,4.752,4.155,4.155,0,0,0,.887.508,4.1,4.1,0,0,0-.635-.137l-.04-.007A.681.681,0,0,0-.561.542a3.464,3.464,0,0,1,1.219.6A3.507,3.507,0,0,1,1.976,4.624a3.508,3.508,0,0,1-4.13,2.738,3.508,3.508,0,0,1-2.738-4.13A3.4,3.4,0,0,1-2.312.57Z" transform="translate(5.606 0.144)" fill="#ffb128"/></g><g transform="translate(95.712 119.548)"><path d="M-2.441-5.444l.037,0a.339.339,0,0,0,.369-.307,6.357,6.357,0,0,0-2.627-5.767.34.34,0,0,0-.47.1.339.339,0,0,0,.1.469A5.676,5.676,0,0,1-2.712-5.807a.34.34,0,0,0,.27.364" transform="translate(5.188 11.568)" fill="#363638"/></g><g transform="translate(95.488 121.916)"><path d="M-.242-.986a.34.34,0,0,0,.224-.032,2.663,2.663,0,0,1,1.876-.311.34.34,0,0,0,.453-.158.34.34,0,0,0-.157-.454,3.266,3.266,0,0,0-2.487.322.339.339,0,0,0-.143.458.34.34,0,0,0,.234.175" transform="translate(0.515 2.096)" fill="#363638"/></g><g transform="translate(98.08 109.569)"><path d="M-4.4-2.06S-7.569,6.545-7.742,8.279c-.236,2.363-3.361-5.736-.216-12.657Z" transform="translate(9.352 4.377)" fill="#363638"/></g><g transform="translate(71.846 208.194)"><path d="M-74.78-76.556H-87.83s-3.02-14.485-4.033-22.607-1.54-27.379-1.54-27.379-10.4,3.379-32.17,2.105c-48.235-2.817-29.945-38.256-29.945-38.256,1.629,2.251,13.854,5.353,20.677,6.429,20.942,2.01,36.862,5.566,47.762,10.269a54.357,54.357,0,0,1,7,3.59c2.628,1.62,4.272,6.535,5.263,13,2.978,19.428.034,52.851.034,52.851" transform="translate(158.92 162.693)" fill="#363638"/></g><g transform="translate(75.267 208.752)"><path d="M-61.581-69.857a.467.467,0,0,1-.457-.375c-1.882-9.318-2.514-20.916-3.022-30.235-.421-7.728-.819-15.026-1.811-15.9-.8-.711-4.142-.156-8.369.546-8.407,1.4-21.111,3.5-35.122.244-7.632-1.775-13.242-5.482-16.675-11.018-5.921-9.546-3.222-21.381-3.194-21.5a.467.467,0,0,1,.562-.347.467.467,0,0,1,.347.562c-.027.114-2.635,11.588,3.083,20.8,3.3,5.313,8.711,8.877,16.089,10.593,13.829,3.218,26.423,1.127,34.757-.256,4.991-.828,8-1.329,9.14-.324,1.228,1.086,1.574,6.423,2.126,16.552.505,9.29,1.136,20.85,3,30.1a.466.466,0,0,1-.365.55.476.476,0,0,1-.093.01" transform="translate(130.87 148.457)" fill="#575759"/></g><g transform="translate(141.257 286.351)"><path d="M-13.313-1.108h-.01l-14.512-.311a.468.468,0,0,1-.457-.477.463.463,0,0,1,.477-.457l14.512.312a.468.468,0,0,1,.457.477.468.468,0,0,1-.467.457" transform="translate(28.292 2.354)" fill="#575759"/></g><g transform="translate(143.67 294.331)"><path d="M-10.626-14.861h-9.211l-1.774-10.807-.971-5.914h11.444l.181,5.914Z" transform="translate(22.583 31.581)" fill="#ff9c79"/></g><g transform="translate(144.642 300.244)"><path d="M-9.763-9.6h-9.211L-20.3-17.65l-.452-2.762h10.654l.088,2.863Z" transform="translate(20.748 20.412)" fill="#ffb128"/></g><g transform="translate(144.642 300.244)"><path d="M-9.547-2.544l-10.29-.1-.452-2.762H-9.635Z" transform="translate(20.289 5.407)" fill="#dd7f21"/></g><g transform="translate(143.028 308.49)"><path d="M-31.4-15.205h-34.84a4.875,4.875,0,0,1-.457-1.934c-.219-2.948.721-7.651,1.182-10.616.056-.347.1-.67.141-.962a10.252,10.252,0,0,0,.1-1.212,1.777,1.777,0,0,1,2.142-2c3.525,3.458,7.517-1.727,9.848-.026,0,0,.1.069.308.236.2.153.493.392.906.739.594.5,1.427,1.218,2.556,2.233,2.764,2.488,7.469,4.13,11.474,5.8q.766.321,1.425.639c.334.161.649.323.945.484,3.274,1.768,4.315,3.457,4.552,4.685a2.716,2.716,0,0,1-.286,1.934" transform="translate(66.729 32.313)" fill="#0076fb"/></g><g transform="translate(153.195 309.08)"><path d="M-18.572-8.8c-.9.714-2.893,2.143-4.494,2.143a2.079,2.079,0,0,1-.21-.008c-1.13-.094-5.282-2.135-8.66-3.991-1.936-1.065-3.7-2.111-4.975-2.951-2.086-1.374-2.447-1.9-2.529-2.264-.3-1.374,1.969-2.332,3.563-2.828.2.153.493.392.906.739-1.98.54-3.606,1.386-3.53,1.868.194.407,2.255,1.98,7.186,4.678,3.761,2.058,7.329,3.723,8.12,3.789,1.072.086,2.649-.89,3.679-1.659q.5.241.945.484" transform="translate(39.468 18.697)" fill="#004ecc"/></g><g transform="translate(143.061 323.664)"><path d="M-31.37-1.72H-66.209a4.87,4.87,0,0,1-.457-1.935h35.582A2.718,2.718,0,0,1-31.37-1.72" transform="translate(66.667 3.655)" fill="#004ecc"/></g><g transform="translate(144.242 312.086)"><path d="M-2.516-12.01H-3.551a7.647,7.647,0,0,0,1.873-5.578A9.825,9.825,0,0,0-5.347-24.56c.056-.347.1-.671.141-.963A10.677,10.677,0,0,1-.848-17.63a8.454,8.454,0,0,1-1.667,5.62" transform="translate(5.347 25.523)" fill="#004ecc"/></g><g transform="translate(159.082 312.418)"><path d="M-.51-1.5a.574.574,0,0,1-.557-.436.575.575,0,0,1,.419-.7l2.176-.539a.573.573,0,0,1,.7.419.575.575,0,0,1-.419.7l-2.176.541A.628.628,0,0,1-.51-1.5" transform="translate(1.084 3.189)" fill="#fff"/></g><g transform="translate(156.92 310.605)"><path d="M-.51-1.5a.574.574,0,0,1-.557-.436.575.575,0,0,1,.419-.7l2.176-.54a.573.573,0,0,1,.7.419.575.575,0,0,1-.419.7l-2.176.54A.58.58,0,0,1-.51-1.5" transform="translate(1.084 3.19)" fill="#fff"/></g><g transform="translate(161.259 313.682)"><path d="M-.51-1.5a.574.574,0,0,1-.557-.436.575.575,0,0,1,.419-.7l2.176-.539a.572.572,0,0,1,.7.419.575.575,0,0,1-.419.7l-2.176.54A.584.584,0,0,1-.51-1.5" transform="translate(1.084 3.189)" fill="#fff"/></g><g transform="translate(163.435 314.899)"><path d="M-.51-1.5a.574.574,0,0,1-.557-.436.576.576,0,0,1,.419-.7l2.176-.539a.573.573,0,0,1,.7.419.574.574,0,0,1-.419.7l-2.176.54A.59.59,0,0,1-.51-1.5" transform="translate(1.084 3.189)" fill="#fff"/></g><g transform="translate(165.808 316.023)"><path d="M-.51-1.5a.575.575,0,0,1-.557-.436.574.574,0,0,1,.419-.7l2.176-.54a.573.573,0,0,1,.7.419.574.574,0,0,1-.419.7l-2.176.541A.59.59,0,0,1-.51-1.5" transform="translate(1.084 3.19)" fill="#fff"/></g><g transform="translate(168.381 316.982)"><path d="M-.51-1.5a.574.574,0,0,1-.557-.436.575.575,0,0,1,.419-.7l2.176-.54a.573.573,0,0,1,.7.419.573.573,0,0,1-.419.695l-2.176.541A.59.59,0,0,1-.51-1.5" transform="translate(1.084 3.19)" fill="#fff"/></g><g transform="translate(43.228 204.662)"><path d="M-142.941-2.677V.216c0,1.665-1.006,3.014-2.248,3.014H-301.524c-1.241,0-2.247-1.349-2.247-3.014V-2.677c0-1.663,1.006-3.012,2.247-3.012h156.336c1.242,0,2.248,1.349,2.248,3.012" transform="translate(303.771 5.689)" fill="#00b670"/></g><path d="M242.478-271.361H81.648v-1.324H242.478Z" transform="translate(-38.42 481.276)" fill="#007d55"/><g transform="translate(51.215 213.547)"><path d="M-131.667-6.639H-278.623a1.191,1.191,0,0,1-1.191-1.191v-6.279h149.337V-7.83a1.191,1.191,0,0,1-1.191,1.191" transform="translate(279.814 14.109)" fill="#007d55"/></g><path d="M247.278-174.436H115.858v-5.122h131.42Z" transform="translate(-54.518 437.455)" fill="#007d55"/><g transform="translate(42.929 221.017)"><path d="M-7.942-93.759,17.5-199.253H8.566L-16.877-93.759Z" transform="translate(16.877 199.253)" fill="#00b670"/></g><g transform="translate(176.618 221.017)"><path d="M-22.613-93.759-48.057-199.253h8.936L-13.678-93.759Z" transform="translate(48.057 199.253)" fill="#00b670"/></g><g transform="translate(54.749 180.407)"><path d="M-5.284-18.486l-2.759.423-3.186-20.8,2.759-.423Z" transform="translate(11.229 39.287)" fill="#ffb128"/></g><g transform="translate(54.749 177.632)"><path d="M-2.452-2.467l-2.759.423L-4.6-4.152l.315-1.091.627.947Z" transform="translate(5.211 5.243)" fill="#ff9c79"/></g><g transform="translate(57.704 199.696)"><path d="M-2.658-1.343-5.417-.92l-.231-1.511,2.759-.423Z" transform="translate(5.648 2.855)" fill="#363638"/></g><g transform="translate(57.935 201.207)"><path d="M-2.453-1.1l-2.392.366a.186.186,0,0,1-.212-.155l-.157-1.021,2.759-.423L-2.3-1.307a.185.185,0,0,1-.155.212" transform="translate(5.213 2.328)" fill="#fe615b"/></g><g transform="translate(55.356 177.632)"><path d="M-.837-.841-1.779-.7l.315-1.091Z" transform="translate(1.779 1.788)" fill="#363638"/></g><g transform="translate(57.538 198.612)"><path d="M0-.376,2.759-.8,2.925.286.166.708Z" transform="translate(0 0.799)" fill="#dd7f21"/></g><g transform="translate(55.589 181.504)"><path d="M0-.219l2.359,15.4a.213.213,0,1,0,.421-.064L.419-.284A.214.214,0,0,0,.176-.462.214.214,0,0,0,0-.219" transform="translate(0.005 0.465)" fill="#dd7f21"/></g><g transform="translate(56.668 181.338)"><path d="M0-.218l2.36,15.4a.213.213,0,1,0,.421-.064L.419-.282A.213.213,0,0,0,.176-.461.214.214,0,0,0,0-.218" transform="translate(0.005 0.463)" fill="#dd7f21"/></g><g transform="translate(59.705 180.503)"><path d="M-2.542-18.7l-2.791.009L-5.4-39.735l2.791-.01Z" transform="translate(5.401 39.745)" fill="#00b670"/></g><g transform="translate(59.705 177.487)"><path d="M-2.481-2.681l-2.791.009.913-1.994L-3.886-5.7l.479,1.029Z" transform="translate(5.272 5.697)" fill="#ff9c79"/></g><g transform="translate(59.769 200.017)"><path d="M-2.485-1.359l-2.791.009,0-1.529,2.791-.009Z" transform="translate(5.281 2.888)" fill="#363638"/></g><g transform="translate(59.774 201.545)"><path d="M-2.319-1.084l-2.42.008a.185.185,0,0,1-.186-.186l0-1.033L-2.137-2.3l0,1.033a.185.185,0,0,1-.185.186" transform="translate(4.928 2.303)" fill="#fe615b"/></g><g transform="translate(60.618 177.487)"><path d="M-.846-.914l-.952,0,.473-1.032Z" transform="translate(1.799 1.943)" fill="#363638"/></g><g transform="translate(59.765 198.92)"><path d="M0-.008,2.791-.017l0,1.1L0,1.088Z" transform="translate(0 0.017)" fill="#007d55"/></g><g transform="translate(60.402 181.333)"><path d="M0-.19.051,15.393a.213.213,0,0,0,.426,0L.426-.192A.213.213,0,0,0,.212-.4.214.214,0,0,0,0-.19" transform="translate(0 0.404)" fill="#007d55"/></g><g transform="translate(61.494 181.328)"><path d="M0-.191.051,15.392a.213.213,0,0,0,.426,0L.426-.192A.214.214,0,0,0,.212-.405.214.214,0,0,0,0-.191" transform="translate(0 0.405)" fill="#007d55"/></g><g transform="translate(61.588 180.408)"><path d="M-2.456-18.865l-2.764-.393,2.96-20.833L.5-39.7Z" transform="translate(5.22 40.091)" fill="#0076fb"/></g><g transform="translate(64.548 177.612)"><path d="M-2.456-2.833-5.22-3.227l1.19-1.841.617-.954.326,1.087Z" transform="translate(5.22 6.021)" fill="#ff9c79"/></g><g transform="translate(61.588 199.727)"><path d="M-2.456-1.694-5.22-2.087-5-3.6l2.764.392Z" transform="translate(5.22 3.6)" fill="#363638"/></g><g transform="translate(61.441 201.24)"><path d="M-2.271-1.4l-2.4-.34a.186.186,0,0,1-.157-.21l.145-1.023,2.763.393-.145,1.022a.185.185,0,0,1-.21.158" transform="translate(4.826 2.972)" fill="#fe615b"/></g><g transform="translate(65.738 177.613)"><path d="M-.838-.966-1.781-1.1l.616-.954Z" transform="translate(1.781 2.053)" fill="#363638"/></g><g transform="translate(61.804 198.641)"><path d="M-.137,0,2.627.392,2.472,1.478-.291,1.086Z" transform="translate(0.291)" fill="#004ecc"/></g><g transform="translate(62.895 181.348)"><path d="M-1.95-.163-4.142,15.264a.214.214,0,0,0,.181.241.213.213,0,0,0,.241-.181L-1.528-.1a.213.213,0,0,0-.181-.241.213.213,0,0,0-.241.181" transform="translate(4.144 0.347)" fill="#004ecc"/></g><g transform="translate(63.977 181.5)"><path d="M-1.949-.163-4.141,15.264a.213.213,0,0,0,.181.241.214.214,0,0,0,.241-.181L-1.527-.1a.213.213,0,0,0-.181-.241.213.213,0,0,0-.241.181" transform="translate(4.143 0.347)" fill="#004ecc"/></g><g transform="translate(53.161 188.827)"><path d="M-13.382,0l-.145,1.129-.133,1.024-.2,1.557-.13,1.012-.2,1.571-.13,1-.2,1.582-.127.987-.207,1.595-.125.975-.208,1.609-.125.962-.107.832H-26.395L-26.5,15l-.126-.962-.208-1.609-.124-.975-.207-1.595-.128-.987-.2-1.582-.13-1-.2-1.571-.131-1.012-.2-1.557-.133-1.024L-28.439,0Z" transform="translate(28.439)" fill="#fe615b"/></g><g transform="translate(53.307 189.956)"><path d="M-13.123,0l-.132,1.024h-14.5L-27.889,0Z" transform="translate(27.889)" fill="#cf101d"/></g><g transform="translate(53.64 192.538)"><path d="M-12.53,0l-.131,1.013H-26.5L-26.629,0Z" transform="translate(26.629)" fill="#cf101d"/></g><g transform="translate(53.972 195.121)"><path d="M-11.939,0l-.13,1H-25.243l-.13-1Z" transform="translate(25.373)" fill="#cf101d"/></g><g transform="translate(54.307 197.703)"><path d="M-11.345,0l-.127.986H-23.984L-24.111,0Z" transform="translate(24.111)" fill="#cf101d"/></g><g transform="translate(54.64 200.285)"><path d="M-10.752,0l-.125.975H-22.726L-22.851,0Z" transform="translate(22.851)" fill="#cf101d"/></g><g transform="translate(54.973 202.868)"><path d="M-10.161,0l-.125.962H-21.47L-21.595,0Z" transform="translate(21.595)" fill="#cf101d"/></g><g transform="translate(124.863 145.575)"><path d="M-69.577-2.792l-9.354,39.558-.246,1.039-.629,2.665a2.552,2.552,0,0,1-2.486,1.968H-145.3a2.556,2.556,0,0,1-2.488-3.143l10.23-43.262a2.551,2.551,0,0,1,2.486-1.966h63.012a2.555,2.555,0,0,1,2.488,3.141" transform="translate(147.862 5.933)" fill="#363638"/></g><g transform="translate(128.121 188.274)"><path d="M-58.368,0l-.246,1.04h-65.427V0Z" transform="translate(124.041)" fill="#575759"/></g><g transform="translate(142.572 150.286)"><path d="M-9.1-4.512A6.4,6.4,0,0,1-15.126.564a4.1,4.1,0,0,1-4.13-5.076,6.4,6.4,0,0,1,6.024-5.077A4.1,4.1,0,0,1-9.1-4.512" transform="translate(19.344 9.589)" fill="#ffb128"/></g><g transform="translate(146.158 153.377)"><path d="M-.819-.9C-.924-.342-1.206.113-1.45.113S-1.807-.342-1.7-.9s.387-1.015.63-1.015.356.455.252,1.015" transform="translate(1.741 1.917)" fill="#363638"/></g><g transform="translate(148.807 153.377)"><path d="M-.82-.9c-.1.561-.387,1.015-.631,1.015S-1.807-.342-1.7-.9s.387-1.015.631-1.015S-.715-1.463-.82-.9" transform="translate(1.742 1.917)" fill="#363638"/></g><g transform="translate(145.044 155.363)"><path d="M-2.023-2.2A2.252,2.252,0,0,1-4.3-4.4a.276.276,0,0,1,.217-.263.18.18,0,0,1,.232.169,1.873,1.873,0,0,0,1.91,1.857A3,3,0,0,0,.662-4.5a.272.272,0,0,1,.294-.169.184.184,0,0,1,.119.263,3.618,3.618,0,0,1-3.1,2.2" transform="translate(4.3 4.67)" fill="#363638"/></g><g transform="translate(181.942 176.296)"><path d="M0-2.462C.054.164,4.5,3.452,4.5,3.452S9.671.164,10.3-2.462c.681-2.847-2.57-3.72-4.978-1.574C3.382-6.182-.061-5.309,0-2.462" transform="translate(0.001 5.232)" fill="#fe615b"/></g><g transform="translate(162.639 166.521)"><path d="M-8.791-4.382A5.646,5.646,0,0,1-14.264.548a4.331,4.331,0,0,1-4.387-4.93,5.646,5.646,0,0,1,5.474-4.93,4.331,4.331,0,0,1,4.387,4.93" transform="translate(18.681 9.312)" fill="#575759"/></g><g transform="translate(124.863 145.574)"><path d="M-13.582,0-24.473,48.372h-1.834a2.555,2.555,0,0,1-2.487-3.142L-18.566,1.967A2.555,2.555,0,0,1-16.079,0Z" transform="translate(28.864)" fill="#575759"/></g><g transform="translate(156.486 193.945)"><path d="M-1.7,0-3.611,10.75H2.7L4.614,0Z" transform="translate(3.611)" fill="#fff"/></g><g transform="translate(146.818 199.994)"><path d="M-.194-2.534,1.1-4.351a2.458,2.458,0,0,1,2-1.034h17.31a2.461,2.461,0,0,1,2.18,1.32L23.465-2.4A1.171,1.171,0,0,1,22.427-.685H.76a1.171,1.171,0,0,1-.954-1.85" transform="translate(0.413 5.385)" fill="#fff"/></g><g transform="translate(110.971 200.263)"><path d="M0-3.934H52L52.563-5.9a1.931,1.931,0,0,0-1.855-2.464H2.727a1.93,1.93,0,0,0-1.855,1.4Z" transform="translate(0 8.361)" fill="#fff"/></g><g transform="translate(154.539 115.283)"><path d="M-21.875-15.444l-23-.016a1.615,1.615,0,0,1-1.614-1.617l.01-14.131a1.616,1.616,0,0,1,1.616-1.614l23,.016a1.615,1.615,0,0,1,1.614,1.616l-.01,14.131a1.615,1.615,0,0,1-1.616,1.614" transform="translate(46.488 32.821)" fill="#fe615b"/></g><g transform="translate(172.018 130.052)"><path d="M-5.123,0l-2.1,7.92L-10.887.475Z" transform="translate(10.887)" fill="#fe615b"/></g><g transform="translate(161.805 119.552)"><path d="M-10.364-2.788c-.469,2.968-6.007,6.681-6.007,6.681S-21.7.172-22.006-2.8c-.329-3.218,3.481-4.2,5.87-1.775,2.524-2.423,6.28-1.434,5.771,1.783" transform="translate(22.026 5.925)" fill="#fff"/></g><g transform="translate(426.999 323.394)"><path d="M-69.611-3.439C-69.611-1.3-87.145.43-108.773.43S-147.934-1.3-147.934-3.439s17.533-3.87,39.161-3.87,39.162,1.732,39.162,3.87" transform="translate(147.934 7.309)" fill="#cdd4e7"/></g><g transform="translate(438.996 295.1)"><path d="M-45.452-3.72h-49.44a1.7,1.7,0,0,1-1.7-1.7V-6.2a1.7,1.7,0,0,1,1.7-1.7h49.44a1.7,1.7,0,0,1,1.7,1.7v.781a1.7,1.7,0,0,1-1.7,1.7" transform="translate(96.593 7.905)" fill="#363638"/></g><g transform="translate(439.864 248.723)"><path d="M-1.292,0h48.3a1.454,1.454,0,0,1,1.454,1.454V7.388a1.453,1.453,0,0,1-1.454,1.454h-48.3A1.454,1.454,0,0,1-2.747,7.388V1.454A1.454,1.454,0,0,1-1.292,0" transform="translate(2.747)" fill="#575759"/></g><g transform="translate(425.706 173.086)"><path d="M-24.013-33.787s-20.368-4.026-26.052-18.236,15.1-24.868,26.052-17.237c11.719,8.163,0,35.474,0,35.474" transform="translate(51.03 71.802)" fill="#00b670"/></g><g transform="translate(435.109 175.132)"><path d="M-26.42-65.148a.369.369,0,0,1-.364-.315c-1.951-13.2-9.816-32.189-16.07-45.795-6.783-14.755-13.183-26.53-13.247-26.647a.368.368,0,0,1,.147-.5.369.369,0,0,1,.5.148c.064.117,6.476,11.914,13.269,26.692,6.274,13.65,14.166,32.71,16.13,45.995a.368.368,0,0,1-.311.419.359.359,0,0,1-.054,0" transform="translate(56.146 138.45)" fill="#363638"/></g><g transform="translate(428.111 180.289)"><path d="M-21.2-26.164a.37.37,0,0,1-.325-.194c-8.859-16.5-23.245-28.472-23.389-28.591a.369.369,0,0,1-.049-.52.368.368,0,0,1,.518-.049c.145.119,14.641,12.179,23.57,28.81a.369.369,0,0,1-.15.5.375.375,0,0,1-.174.044" transform="translate(45.045 55.602)" fill="#363638"/></g><g transform="translate(426.219 191.179)"><path d="M-23.234-17.534a.365.365,0,0,1-.28-.13A70.733,70.733,0,0,0-41.006-32.623a43.983,43.983,0,0,0-8.113-3.92.368.368,0,0,1-.24-.462.369.369,0,0,1,.462-.24,43.735,43.735,0,0,1,8.244,3.974,71.438,71.438,0,0,1,17.7,15.131.367.367,0,0,1-.042.519.364.364,0,0,1-.239.088" transform="translate(49.377 37.263)" fill="#363638"/></g><g transform="translate(446.757 173.538)"><path d="M-3.389-29.369a.368.368,0,0,1-.349-.25C-8.7-44.193-6.876-61.906-6.857-62.083a.368.368,0,0,1,.406-.328.369.369,0,0,1,.327.406c-.018.176-1.828,17.731,3.085,32.149a.369.369,0,0,1-.229.467.374.374,0,0,1-.119.02" transform="translate(7.201 62.413)" fill="#363638"/></g><g transform="translate(450.735 179.46)"><path d="M-.963-26.67a.369.369,0,0,1-.364-.308,51.316,51.316,0,0,1,.9-21.441A34.02,34.02,0,0,1,2.688-56.5a.368.368,0,0,1,.5-.128.368.368,0,0,1,.128.505A34.076,34.076,0,0,0,.274-48.2,50.574,50.574,0,0,0-.6-27.1a.369.369,0,0,1-.3.424.449.449,0,0,1-.061,0" transform="translate(2.047 56.678)" fill="#363638"/></g><g transform="translate(470.292 177.346)"><path d="M-3.482-33.3S17.089-36.114,23.6-49.963,10-75.682-1.382-68.713c-12.181,7.455-2.1,35.412-2.1,35.412" transform="translate(7.399 70.769)" fill="#00b670"/></g><g transform="translate(466.039 179.928)"><path d="M-.327-59.813h0a.368.368,0,0,1-.364-.373A76.4,76.4,0,0,1,3.712-83.2a151.566,151.566,0,0,1,9.33-21.544A198.457,198.457,0,0,1,26.5-126.959a.368.368,0,0,1,.515-.082.368.368,0,0,1,.083.515A197.544,197.544,0,0,0,13.69-104.393C7.564-92.628.223-75.407.042-60.177a.368.368,0,0,1-.368.364" transform="translate(0.695 127.111)" fill="#363638"/></g><g transform="translate(474.707 185.489)"><path d="M-.328-24.884a.362.362,0,0,1-.193-.055.367.367,0,0,1-.121-.507C9.257-41.52,24.44-52.7,24.593-52.811a.368.368,0,0,1,.515.08.369.369,0,0,1-.08.515c-.151.11-15.221,11.209-25.041,27.156a.366.366,0,0,1-.313.176" transform="translate(0.696 52.882)" fill="#363638"/></g><g transform="translate(474.236 196.472)"><path d="M-.327-16.149a.366.366,0,0,1-.255-.1.369.369,0,0,1-.011-.521A71.465,71.465,0,0,1,17.97-30.829a43.731,43.731,0,0,1,8.464-3.48.37.37,0,0,1,.448.268.369.369,0,0,1-.267.448,43.914,43.914,0,0,0-8.332,3.432A70.731,70.731,0,0,0-.061-16.263a.367.367,0,0,1-.266.114" transform="translate(0.696 34.32)" fill="#363638"/></g><g transform="translate(476.281 177.627)"><path d="M-.327-29.155a.382.382,0,0,1-.138-.027.368.368,0,0,1-.2-.481c5.757-14.1,4.99-31.733,4.982-31.909a.369.369,0,0,1,.35-.385.369.369,0,0,1,.386.35c.008.178.784,17.969-5.036,32.224a.369.369,0,0,1-.342.229" transform="translate(0.695 61.958)" fill="#363638"/></g><g transform="translate(472.636 183.046)"><path d="M-2.307-26.833a.354.354,0,0,1-.081-.009.37.37,0,0,1-.279-.441A50.586,50.586,0,0,0-2.289-48.4a34.081,34.081,0,0,0-2.573-8.087.369.369,0,0,1,.157-.5.369.369,0,0,1,.5.157,34.077,34.077,0,0,1,2.635,8.249A51.312,51.312,0,0,1-1.948-27.12a.37.37,0,0,1-.359.287" transform="translate(4.904 57.024)" fill="#363638"/></g><g transform="translate(448.841 148.068)"><path d="M-15.507-35.5S-32.936-46.786-32.955-62.091-9.721-79.6-2.372-68.456C5.492-56.534-15.507-35.5-15.507-35.5" transform="translate(32.955 75.452)" fill="#00b670"/></g><g transform="translate(463.083 148.192)"><path d="M-.684-70.225a.392.392,0,0,1-.085-.01.37.37,0,0,1-.274-.444c3.075-12.982,2.8-33.534,2.03-48.49-.836-16.217-2.421-29.525-2.437-29.658a.368.368,0,0,1,.322-.409.37.37,0,0,1,.409.322c.016.133,1.6,13.466,2.442,29.708.774,15,1.047,35.631-2.048,48.7a.37.37,0,0,1-.359.284" transform="translate(1.453 149.239)" fill="#363638"/></g><g transform="translate(454.673 150.39)"><path d="M-10.266-32.078a.369.369,0,0,1-.366-.327c-2.119-18.608-11.05-35.056-11.14-35.219a.368.368,0,0,1,.145-.5.369.369,0,0,1,.5.145c.09.165,9.09,16.735,11.226,35.49a.368.368,0,0,1-.325.408.285.285,0,0,1-.042,0" transform="translate(21.817 68.17)" fill="#363638"/></g><g transform="translate(448.883 159.806)"><path d="M-15.356-24.817a.369.369,0,0,1-.349-.251A70.718,70.718,0,0,0-26.413-45.44,43.921,43.921,0,0,0-32.5-52.086a.367.367,0,0,1-.051-.518.368.368,0,0,1,.518-.052,43.691,43.691,0,0,1,6.186,6.744A71.445,71.445,0,0,1-15.007-25.3a.368.368,0,0,1-.232.467.377.377,0,0,1-.117.019" transform="translate(32.633 52.739)" fill="#363638"/></g><g transform="translate(465.729 151.15)"><path d="M-.328-28.348H-.347A.369.369,0,0,1-.7-28.735C.087-44.113,8.343-59.89,8.426-60.048a.37.37,0,0,1,.5-.154.369.369,0,0,1,.153.5C9-59.547.815-43.909.04-28.7a.369.369,0,0,1-.368.349" transform="translate(0.697 60.244)" fill="#363638"/></g><g transform="translate(465.821 159.541)"><path d="M-.328-23.684a.388.388,0,0,1-.08-.008.369.369,0,0,1-.281-.439A52.012,52.012,0,0,1,8.1-43.811a35.1,35.1,0,0,1,5.909-6.444.369.369,0,0,1,.517.064.369.369,0,0,1-.064.517A35.062,35.062,0,0,0,8.68-43.348,51.266,51.266,0,0,0,.031-23.973a.369.369,0,0,1-.359.289" transform="translate(0.697 50.332)" fill="#363638"/></g><g transform="translate(443.247 222.94)"><path d="M-39.4-2.031l-.608,1.612L-40.4.6l-1.1,2.926-.385,1.021-1.132,3.005-.384,1.02-4.855,12.892H-74.78L-79.635,8.575l-.384-1.02L-81.151,4.55l-.385-1.021L-82.639.6l-.383-1.021-.608-1.612a1.688,1.688,0,0,1,1.581-2.285h41.064A1.69,1.69,0,0,1-39.4-2.031" transform="translate(83.74 4.316)" fill="#0076fb"/></g><g transform="translate(443.965 226.836)"><path d="M-38.226,0l-.383,1.021H-80.852L-81.236,0Z" transform="translate(81.236)" fill="#004ecc"/></g><g transform="translate(445.451 230.784)"><path d="M-35.585,0l-.385,1.021H-75.238L-75.624,0Z" transform="translate(75.624)" fill="#004ecc"/></g><g transform="translate(446.969 234.811)"><path d="M-32.888,0l-.384,1.02H-69.508L-69.892,0Z" transform="translate(69.892)" fill="#004ecc"/></g><g transform="translate(432.415 257.566)"><path d="M-23.063,0l-1.471,4.742-20.477,66h-4L-36.027,6.09-34.8,0Z" transform="translate(49.013)" fill="#363638"/></g><g transform="translate(472.695 257.565)"><path d="M-23.063-62.877h-4l-21.083-67.957-.865-2.789h11.739l.3,1.479h0Z" transform="translate(49.013 133.624)" fill="#363638"/></g><g transform="translate(438.996 286)"><path d="M-45.452-3.72h-49.44a1.7,1.7,0,0,1-1.7-1.7V-6.2a1.7,1.7,0,0,1,1.7-1.7h49.439a1.7,1.7,0,0,1,1.7,1.7v.781a1.7,1.7,0,0,1-1.7,1.7" transform="translate(96.593 7.905)" fill="#575759"/></g><g transform="translate(148.605 50.144)"><path d="M-34.025-16.8A19.024,19.024,0,0,1-53.167,2.1,19.023,19.023,0,0,1-72.308-16.8a19.024,19.024,0,0,1,19.141-18.9A19.024,19.024,0,0,1-34.025-16.8" transform="translate(72.308 35.705)" fill="#cdd4e7"/></g><g transform="translate(148.605 47.683)"><path d="M-34.025-16.8A19.024,19.024,0,0,1-53.167,2.1,19.024,19.024,0,0,1-72.308-16.8a19.024,19.024,0,0,1,19.141-18.9A19.024,19.024,0,0,1-34.025-16.8" transform="translate(72.308 35.705)" fill="#0076fb"/></g><g transform="translate(152.184 51.219)"><path d="M-13.83-27.317A15.483,15.483,0,0,1-29.392-42.685,15.483,15.483,0,0,1-13.83-58.053,15.483,15.483,0,0,1,1.731-42.685,15.483,15.483,0,0,1-13.83-27.317" transform="translate(29.392 58.053)" fill="#fff"/></g><g transform="translate(152.185 51.22)"><path d="M-27.66-13.659q0,.614-.048,1.214A15.507,15.507,0,0,0-43.221-26.6,15.506,15.506,0,0,0-58.735-12.444q-.048-.6-.048-1.214A15.482,15.482,0,0,1-43.221-29.027,15.483,15.483,0,0,1-27.66-13.659" transform="translate(58.783 29.027)" fill="#cdd4e7"/></g><g transform="translate(159.723 57.267)"><path d="M-7.131-9.7a.391.391,0,0,1-.313-.155l-7.634-10.15a.382.382,0,0,1,.08-.538.392.392,0,0,1,.545.08L-7-10.564l8.465-3.669a.391.391,0,0,1,.513.2.383.383,0,0,1-.2.507L-6.974-9.737a.4.4,0,0,1-.157.032" transform="translate(15.154 20.624)" fill="#363638"/></g></g></g></g><g transform="translate(-394 -174)"><text transform="translate(515 675)" fill="#00b9f6" font-size="29" font-family="Montserrat-Bold, Montserrat" font-weight="700"><tspan x="0" y="0">Learn from thousands</tspan></text><text transform="translate(650 738)" fill="#00b9f6" font-size="58" font-family="Montserrat-Bold, Montserrat" font-weight="700"><tspan x="0" y="0">Videos</tspan></text></g><g transform="translate(-474 -124)"><text transform="translate(514.63 833)" fill="#575759" font-size="74" font-family="Montserrat-Bold, Montserrat" font-weight="700"><tspan x="0" y="0">Learn</tspan></text><text transform="translate(748.924 796)" fill="#00b9f6" font-size="36" font-family="Montserrat-Bold, Montserrat" font-weight="700"><tspan x="0" y="0">Anytime</tspan></text><text transform="translate(748.924 846.607)" fill="#00b9f6" font-size="36" font-family="Montserrat-Bold, Montserrat" font-weight="700"><tspan x="0" y="0">Anywhere</tspan></text></g></g></g></svg>