<svg xmlns="http://www.w3.org/2000/svg" xmlns:xlink="http://www.w3.org/1999/xlink" width="1919.717" height="400" viewBox="0 0 1919.717 400"><defs><clipPath id="a"><path d="M0-666.665H581.078V-279.28H0Z" transform="translate(0 666.665)"/></clipPath><clipPath id="b"><path d="M39.213-431.687h74.211v58.872H39.213Z" transform="translate(-39.213 431.687)"/></clipPath><clipPath id="c"><path d="M48.087-341.9h76.07v41.465H48.087Z" transform="translate(-48.087 341.896)"/></clipPath><clipPath id="d"><path d="M80.529-462.368h57.446v94.529H80.529Z" transform="translate(-80.529 462.368)"/></clipPath><clipPath id="f"><path d="M99.692-439.954h41.619V-358.9H99.692Z" transform="translate(-99.692 439.954)"/></clipPath><clipPath id="h"><path d="M883.663-517.1h58.48v58.694h-58.48Z" transform="translate(-883.663 517.1)"/></clipPath><clipPath id="i"><path d="M810.929-513.285h81.242V-438.2H810.929Z" transform="translate(-810.929 513.285)"/></clipPath><clipPath id="j"><path d="M823.421-485.191h51.2V-435.4h-51.2Z" transform="translate(-823.421 485.191)"/></clipPath><clipPath id="k"><path d="M829.782-430.626h70.895v27.191H829.782Z" transform="translate(-829.782 430.626)"/></clipPath><clipPath id="l"><path d="M87.863-170.78H595.4v15.234H87.863Z" transform="translate(-87.863 170.78)"/></clipPath><linearGradient id="m" x1="-0.219" y1="1.369" x2="-0.217" y2="1.369" gradientUnits="objectBoundingBox"><stop offset="0" stop-color="#fff"/><stop offset="0.644" stop-color="#fff"/><stop offset="0.822" stop-color="#fff"/><stop offset="1" stop-color="#c0eaf9"/></linearGradient><clipPath id="p"><path d="M179.08-583.823h5.506v5.505H179.08Z" transform="translate(-179.08 583.823)"/></clipPath><clipPath id="q"><path d="M466.518-387.767H623.768V-543.1H466.518Z" transform="translate(-466.518 543.101)"/></clipPath><clipPath id="r"><path d="M526.807-339.533h5.883v44.146h-5.883Z" transform="translate(-526.807 339.533)"/></clipPath><clipPath id="s"><path d="M655.209-339.533h5.883v44.146h-5.883Z" transform="translate(-655.209 339.533)"/></clipPath><clipPath id="t"><path d="M581.627-435.99h16.785v27.63H581.627Z" transform="translate(-581.627 435.99)"/></clipPath><clipPath id="u"><path d="M582.584-430.43h10.363v3.654H582.584Z" transform="translate(-582.584 430.43)"/></clipPath><clipPath id="v"><path d="M594.284-447.966h5.467v8.447h-5.467Z" transform="translate(-594.284 447.966)"/></clipPath><clipPath id="w"><path d="M482.111-375.227h15.176v14.408H482.111Z" transform="translate(-482.111 375.227)"/></clipPath><clipPath id="x"><path d="M498.113-378.806h8.86v11.777h-8.86Z" transform="translate(-498.113 378.806)"/></clipPath><clipPath id="y"><path d="M488.3-376.918H496.9v18.42H488.3Z" transform="translate(-488.304 376.918)"/></clipPath><clipPath id="z"><path d="M513.764-316.659h4.225v42.468h-4.225Z" transform="translate(-513.764 316.659)"/></clipPath><clipPath id="ab"><path d="M746.049-526.595H774.66V-482H746.049Z" transform="translate(-746.049 526.595)"/></clipPath><clipPath id="ac"><path d="M749.638-485.313h26.526v20.61H749.638Z" transform="translate(-749.638 485.313)"/></clipPath><clipPath id="ae"><path d="M721.294-511.056h58.768v43.993H721.294Z" transform="translate(-721.294 511.056)"/></clipPath><clipPath id="af"><path d="M384.507-365.1h58.768V-321.1H384.507Z" transform="translate(-384.507 365.096)"/></clipPath><clipPath id="ag"><path d="M856.374-416.718H867.18v149.3H856.374Z" transform="translate(-856.374 416.718)"/></clipPath><clipPath id="ah"><path d="M897.863-359h17.174V-243.24H897.863Z" transform="translate(-897.863 358.998)"/></clipPath><clipPath id="ai"><path d="M630.648-120.148H816.256v17.126H630.648Z" transform="translate(-630.648 120.148)"/></clipPath><clipPath id="aj"><path d="M781.9-314.821h9.831v16.183H781.9Z" transform="translate(-781.897 314.821)"/></clipPath><clipPath id="ak"><path d="M789.31-321.835h3.2v4.948h-3.2Z" transform="translate(-789.31 321.835)"/></clipPath><clipPath id="al"><path d="M782.979-313.071H789.9v3.177h-6.923Z" transform="translate(-782.979 313.071)"/></clipPath><clipPath id="am"><path d="M705.124-263.586h99.814v61.545H705.124Z" transform="translate(-705.124 263.586)"/></clipPath><clipPath id="an"><path d="M714.234-167h86.74v26.569h-86.74Z" transform="translate(-714.234 166.998)"/></clipPath><clipPath id="ao"><path d="M730.561-153.824h67.765v3.132H730.561Z" transform="translate(-730.561 153.824)"/></clipPath><clipPath id="ap"><path d="M780.133-196.5h10.91v10.91h-10.91Z" transform="translate(-780.133 196.505)"/></clipPath><clipPath id="aq"><path d="M746.866-150.585h48.982v13.692H746.866Z" transform="translate(-746.866 150.585)"/></clipPath><clipPath id="ar"><path d="M781.375-121.265H814.9v5.619H781.375Z" transform="translate(-781.375 121.265)"/></clipPath><clipPath id="as"><path d="M807.617-397.752h23.211v14.676H807.617Z" transform="translate(-807.617 397.752)"/></clipPath><clipPath id="at"><path d="M34.489-107.426H220.1V-90.3H34.489Z" transform="translate(-34.489 107.426)"/></clipPath><clipPath id="au"><path d="M89.333-158.417h131.6v12.266H89.333Z" transform="translate(-89.333 158.417)"/></clipPath><clipPath id="av"><path d="M229.975-211.816H252.42v4.881H229.975Z" transform="translate(-229.975 211.816)"/></clipPath><clipPath id="ax"><path d="M129.248-256.334h83.873v5.029H129.248Z" transform="translate(-129.248 256.334)"/></clipPath><clipPath id="ay"><path d="M177.016-271.593h10.221v4.04H177.016Z" transform="translate(-177.016 271.593)"/></clipPath><clipPath id="az"><path d="M203.861-271.593h10.221v4.04H203.861Z" transform="translate(-203.861 271.593)"/></clipPath><clipPath id="ba"><path d="M165.456-310.4h2.956v17h-2.956Z" transform="translate(-165.456 310.403)"/></clipPath><clipPath id="bb"><path d="M229.935-310.4h2.955v17h-2.955Z" transform="translate(-229.935 310.403)"/></clipPath><clipPath id="bc"><path d="M191.24-340.058h9.669v8.6H191.24Z" transform="translate(-191.24 340.058)"/></clipPath><clipPath id="bd"><path d="M190.117-361.406h3.493v7.313h-3.493Z" transform="translate(-190.117 361.406)"/></clipPath><clipPath id="be"><path d="M192.773-348.259h6.233v2.286h-6.233Z" transform="translate(-192.773 348.259)"/></clipPath><clipPath id="bf"><path d="M150.624-213.37h56.943v2.632H150.624Z" transform="translate(-150.624 213.37)"/></clipPath><clipPath id="bg"><path d="M192.28-246.265h9.167v9.168H192.28Z" transform="translate(-192.28 246.265)"/></clipPath><clipPath id="bh"><path d="M146.346-479.866H195.42V-444.2H146.346Z" transform="translate(-146.346 479.866)"/></clipPath></defs><g transform="translate(-0.283)"><path d="M0-266.665H1919.717v-400H0Z" transform="translate(0.283 666.665)" fill="none"/><g transform="translate(121)"><g transform="translate(401 7)"><g clip-path="url(#a)"><g transform="translate(61.551 86.035)"><path d="M-2.978-4.288a3.63,3.63,0,0,1,4.24,1.444c.014.027.028.054.041.081C2.022-1.295,1.272.43.043,1.615c.824,1.643,1.7,3.253,2.678,4.813.861,1.376,2.018,3.7,3.758,4.191Q7.368,3.669,8.7-3.24c-2-.562-3.945-2.383-3.556-4.4.006-.029.012-.06.019-.089a3.628,3.628,0,0,1,3.714-2.5c2.638.094,7.458,3.45,4.35,6.27a3.789,3.789,0,0,1-2.018.9q-1.219,6.3-2.068,12.63a8.87,8.87,0,0,0,6.758-5.5c-1.281-1.614-1.8-4.192-.333-5.6l.067-.063a3.628,3.628,0,0,1,4.478.1c2.1,1.6,4.1,7.121-.066,7.631a3.777,3.777,0,0,1-2.141-.413,11.452,11.452,0,0,1-9.05,6.438c-.012,0-.022,0-.036,0a216.186,216.186,0,0,0-.861,44.133,1.251,1.251,0,0,1-2.489.235A218.845,218.845,0,0,1,6.206,13.08c-1.866-.391-3.188-1.747-4.338-3.387A54.11,54.11,0,0,1-2.079,2.943,4.32,4.32,0,0,1-5.536,2.9C-9.273.993-5.5-3.507-2.978-4.288" transform="translate(7.108 10.235)" fill="#eef9fe"/></g><g transform="translate(22.786 136.541)"><g opacity="0.42" clip-path="url(#b)"><g transform="translate(0 0)"><path d="M-53.119-41.2C-59.3-43.743-65.571-46.57-71.645-49.71c2.927-2.991,3.948-8.364,1.723-11.833a5.591,5.591,0,0,0-4.816-2.5c-1.13.146-2.041.931-2.227,2.677a12.4,12.4,0,0,0,1.756,6.84c.452.8,1.01,1.546,1.414,2.376a6.958,6.958,0,0,1,.311,1.482c-2.463-1.309-4.89-2.668-7.257-4.09,2.138-.913,2.234-4.967,2.38-6.849.206-2.671.754-6.439-1.691-8.271a4.188,4.188,0,0,0-6,1.216,4.455,4.455,0,0,0-.534,1.419c-.454,2.392.918,4.738,2.1,6.7.226.378,2.539,4,3.173,5.436q-1.765-1.072-3.486-2.186c-4.68-3.043-9.4-6.266-13.865-9.8C-94.8-70.8-93.4-77.748-96.26-82.2c-1.24-1.933-3.951-3.424-6.057-3.151-1.421.184-2.567,1.171-2.8,3.366-.3,2.834.832,6.16,2.209,8.6.569,1.01,1.27,1.945,1.779,2.988a7.137,7.137,0,0,1,.348,1.582,82.249,82.249,0,0,1-9.309-8.97c-.01-.012-.022-.019-.031-.03-.028-6.533-.362-14.844-5.587-19.248-3.018-2.544-6.251-1.136-6.658,2.666a17.282,17.282,0,0,0,2.171,10.02,19.678,19.678,0,0,0,9.4,8.495q.883.984,1.8,1.946c-5.22-.135-9.589-5.948-15.234-4.257a3.467,3.467,0,0,0-2.275,4.812c1.32,3.319,5.585,3.522,8.61,3.263a29.084,29.084,0,0,0,4.982-.917,18.26,18.26,0,0,0,2.574-.833,23.4,23.4,0,0,0,2.007-1.378,101.377,101.377,0,0,0,8.086,7.42c-1.147,2.261-5.718,2.258-7.79,2.117-2.487-.168-6.9-.344-7.982,2.484-1.609,4.2,3.656,6.841,7,5.634,3.139-1.133,6.358-4.412,8.1-7.21a26.183,26.183,0,0,1,1.328-2.485A129.313,129.313,0,0,0-88.7-57.373a37.31,37.31,0,0,1-3.622.917c-2.767.428-5.751.9-7.708,3.109-2.08,2.349-.849,5.4,2.279,5.722,2.969.3,5.54-1.79,7.406-3.855.327-.362,2.11-3.228,3.094-4.96,3.356,2.135,6.8,4.147,10.3,6.042-1.308.325-2.661.8-3.949,1-2.767.428-5.75.9-7.708,3.11-2.081,2.348-.85,5.4,2.28,5.721,2.968.3,5.54-1.789,7.405-3.855.348-.385,2.344-3.605,3.273-5.276,7.215,3.837,14.615,7.192,21.812,10.153a.9.9,0,0,0,.712-1.651" transform="translate(126.8 98.346)" fill="#eef9fe"/></g></g></g><g transform="translate(16.217 182.113)"><path d="M-10.944-25.23c-3.31.979-6.862,1.76-10.234.549a6.551,6.551,0,0,1-3.608-2.867A5.682,5.682,0,0,1-25.3-31.8a8.722,8.722,0,0,1,6.2-5.873,11.836,11.836,0,0,1,2.831-.34,17.421,17.421,0,0,1-7.558-5.86c-2.688-3.917-3.469-10.055.166-13.67,3.93-3.91,10.292-2.727,15.094-1.536a60.168,60.168,0,0,1,17.388,7.4,60.929,60.929,0,0,1,8.913,6.8,10.011,10.011,0,0,1-.3-7.506,6.722,6.722,0,0,1,5.5-4.284,12,12,0,0,1,6.928,1.73,38.652,38.652,0,0,1,6.722,4.959,84.246,84.246,0,0,1,6.7,6.465,86.437,86.437,0,0,1,11.154,15A85.313,85.313,0,0,1,61.9-12q-.511.278-1,.583A63.3,63.3,0,0,0,45.92-17.726,65.36,65.36,0,0,0,27.2-20.079a63.137,63.137,0,0,0-9.4.888,76.181,76.181,0,0,0-9.271,2.313c-2.971.9-6.107,1.779-9.241,1.37a9.569,9.569,0,0,1-6.566-3.781,5.283,5.283,0,0,1,.04-6.469,5.974,5.974,0,0,1,.559-.6c-1.446.282-2.878.72-4.26,1.128" transform="translate(26.123 60.227)" fill="#eef9fe"/></g><g transform="translate(27.943 188.716)"><g clip-path="url(#c)"><g transform="translate(0 0)"><path d="M-1.366-15.677a84.138,84.138,0,0,1,18.294-9.076c-.26-.056-.518-.119-.778-.174A162.965,162.965,0,0,0-2.878-27.736c-.5-.044-.519-.825-.019-.781a164.993,164.993,0,0,1,19.806,2.976A76.224,76.224,0,0,0,1.246-36.69a.391.391,0,0,1,.377-.683A76.983,76.983,0,0,1,18.364-25.256l.056-.02a.336.336,0,0,1,.41.139q4.357.979,8.657,2.193a39.836,39.836,0,0,0-9.569-7.489.391.391,0,0,1,.377-.683A40.544,40.544,0,0,1,28.92-22.529c.707.207,1.413.411,2.117.628a164.267,164.267,0,0,1,16.223,5.934c.331.141.66.284.991.428A34.085,34.085,0,0,0,38.51-29.1a33.255,33.255,0,0,0-3.965-2.868c-.426-.263-.051-.949.377-.684a34.893,34.893,0,0,1,12,12.5,34.747,34.747,0,0,1,2.105,4.463.315.315,0,0,1-.153.418,90.945,90.945,0,0,1,10.4,5.23,194.882,194.882,0,0,0-13.1-17.831c-.317-.383.225-.947.545-.559A196.5,196.5,0,0,1,60.437-9.705a.341.341,0,0,1,.03.077l.017,0a.346.346,0,0,1,.262.488c.2.126.394.244.587.372,4.708,3.105,8.95,7.071,11.433,12.209.217.449-.452.853-.672.4-2.7-5.591-7.332-9.633-12.554-12.838a99.232,99.232,0,0,0-33.909.009q-4.807.836-9.513,2.143a.39.39,0,0,1-.216-.749A100.118,100.118,0,0,1,50.716-10.9q3.5.285,6.972.817c-2.99-1.689-6.114-3.145-9.148-4.478q-4-1.761-8.1-3.291a.324.324,0,0,1-.352.264A36.077,36.077,0,0,0,22.9-14.1c-.449.216-.853-.453-.4-.671A36.885,36.885,0,0,1,39-18.387q-4.946-1.806-10-3.292a.318.318,0,0,1-.273.342,51.017,51.017,0,0,0-11.4,3.773c-.451.212-.856-.456-.4-.671a51.848,51.848,0,0,1,11.06-3.729c-3.145-.9-6.314-1.728-9.507-2.442a.367.367,0,0,1-.26.026A83.361,83.361,0,0,0-.966-15.006c-.419.277-.819-.4-.4-.671" transform="translate(3.261 37.422)" fill="#eef9fe"/></g></g></g><g transform="translate(46.793 118.713)"><path d="M-5.5-22.192c-2.905-1.863-5.819-4.04-7.11-7.38a6.55,6.55,0,0,1-.192-4.605,5.681,5.681,0,0,1,2.881-3.17,8.724,8.724,0,0,1,8.5.845,11.837,11.837,0,0,1,2.11,1.918,17.414,17.414,0,0,1-.512-9.549c1.2-4.6,5.336-9.2,10.448-8.818,5.527.415,8.8,6,11.036,10.412a60.167,60.167,0,0,1,5.778,17.991,60.928,60.928,0,0,1,.685,11.192A10.013,10.013,0,0,1,33.6-18.49a6.722,6.722,0,0,1,6.839,1.359,12,12,0,0,1,3.224,6.372,38.691,38.691,0,0,1,.648,8.327,84.267,84.267,0,0,1-.51,9.294,86.45,86.45,0,0,1-4.05,18.25,85.329,85.329,0,0,1-7.6,16.444q-.544-.2-1.1-.375a63.319,63.319,0,0,0-5.028-15.455,65.379,65.379,0,0,0-10.469-15.7A63.184,63.184,0,0,0,8.727,3.5,76.229,76.229,0,0,0,.912-2C-1.714-3.66-4.427-5.459-6.167-8.1A9.561,9.561,0,0,1-7.6-15.536a5.283,5.283,0,0,1,4.92-4.2,5.733,5.733,0,0,1,.82.03c-1.159-.91-2.427-1.706-3.64-2.485" transform="translate(13.141 52.973)" fill="#eef9fe"/></g><g transform="translate(46.794 118.713)"><g clip-path="url(#d)"><g transform="translate(0 0)"><path d="M-5.5-22.192c-2.905-1.863-5.819-4.04-7.11-7.38a6.55,6.55,0,0,1-.192-4.605,5.681,5.681,0,0,1,2.881-3.17,8.724,8.724,0,0,1,8.5.845,11.837,11.837,0,0,1,2.11,1.918,17.414,17.414,0,0,1-.512-9.549c1.2-4.6,5.336-9.2,10.448-8.818,5.527.415,8.8,6,11.036,10.412a60.167,60.167,0,0,1,5.778,17.991,60.928,60.928,0,0,1,.685,11.192A10.013,10.013,0,0,1,33.6-18.49a6.722,6.722,0,0,1,6.839,1.359,12,12,0,0,1,3.224,6.372,38.691,38.691,0,0,1,.648,8.327,84.267,84.267,0,0,1-.51,9.294,86.45,86.45,0,0,1-4.05,18.25,85.329,85.329,0,0,1-7.6,16.444q-.544-.2-1.1-.375a63.319,63.319,0,0,0-5.028-15.455,65.379,65.379,0,0,0-10.469-15.7A63.184,63.184,0,0,0,8.727,3.5,76.229,76.229,0,0,0,.912-2C-1.714-3.66-4.427-5.459-6.167-8.1A9.561,9.561,0,0,1-7.6-15.536a5.283,5.283,0,0,1,4.92-4.2,5.733,5.733,0,0,1,.82.03c-1.159-.91-2.427-1.706-3.64-2.485" transform="translate(13.141 52.973)" fill="#c0eaf9"/></g></g></g><g transform="translate(46.794 118.713)"><g opacity="0.56" clip-path="url(#d)"><g transform="translate(0 0)"><path d="M-5.5-22.192c-2.905-1.863-5.819-4.04-7.11-7.38a6.55,6.55,0,0,1-.192-4.605,5.681,5.681,0,0,1,2.881-3.17,8.724,8.724,0,0,1,8.5.845,11.837,11.837,0,0,1,2.11,1.918,17.414,17.414,0,0,1-.512-9.549c1.2-4.6,5.336-9.2,10.448-8.818,5.527.415,8.8,6,11.036,10.412a60.167,60.167,0,0,1,5.778,17.991,60.928,60.928,0,0,1,.685,11.192A10.013,10.013,0,0,1,33.6-18.49a6.722,6.722,0,0,1,6.839,1.359,12,12,0,0,1,3.224,6.372,38.691,38.691,0,0,1,.648,8.327,84.267,84.267,0,0,1-.51,9.294,86.45,86.45,0,0,1-4.05,18.25,85.329,85.329,0,0,1-7.6,16.444q-.544-.2-1.1-.375a63.319,63.319,0,0,0-5.028-15.455,65.379,65.379,0,0,0-10.469-15.7A63.184,63.184,0,0,0,8.727,3.5,76.229,76.229,0,0,0,.912-2C-1.714-3.66-4.427-5.459-6.167-8.1A9.561,9.561,0,0,1-7.6-15.536a5.283,5.283,0,0,1,4.92-4.2,5.733,5.733,0,0,1,.82.03c-1.159-.91-2.427-1.706-3.64-2.485" transform="translate(13.141 52.973)" fill="#c0eaf9"/></g></g></g><g transform="translate(57.929 131.737)"><g clip-path="url(#f)"><g transform="translate(0 0)"><path d="M-.366-8.816a84.206,84.206,0,0,1,18.832,7.9c-.128-.232-.249-.469-.379-.7A163.006,163.006,0,0,0,7.766-17.849c-.292-.4.284-.931.578-.525A164.991,164.991,0,0,1,19.05-1.446a76.212,76.212,0,0,0-1.815-19.141A.391.391,0,0,1,18-20.749,77.01,77.01,0,0,1,19.786-.16l.052.029a.337.337,0,0,1,.163.4q2.112,3.935,4,7.982a39.854,39.854,0,0,0-.6-12.138.391.391,0,0,1,.764-.161,40.573,40.573,0,0,1,.456,13.653c.305.67.613,1.339.91,2.012a164.736,164.736,0,0,1,6.124,16.152q.163.513.325,1.029a34.091,34.091,0,0,0,3.884-16.238,33.373,33.373,0,0,0-.424-4.876c-.08-.494.683-.659.764-.161a34.908,34.908,0,0,1-1.6,17.255,34.714,34.714,0,0,1-2,4.511.316.316,0,0,1-.417.158A90.9,90.9,0,0,1,35.042,40.74a194.8,194.8,0,0,0,4.917-21.573c.082-.49.863-.449.779.047a196.76,196.76,0,0,1-5.191,22.622.471.471,0,0,1-.039.074.146.146,0,0,1,.009.015.347.347,0,0,1-.2.518c.033.229.072.458.1.687.732,5.593.508,11.4-1.754,16.634-.2.457-.941.216-.741-.246,2.461-5.7,2.489-11.848,1.5-17.894A99.067,99.067,0,0,0,24.685,28.14,99.523,99.523,0,0,0,12.235,15.98Q8.458,12.892,4.39,10.187a.39.39,0,0,1,.426-.654A100.2,100.2,0,0,1,18.495,20.481,100.123,100.123,0,0,1,30.094,33.7q2.076,2.833,3.944,5.807c-.679-3.366-1.621-6.681-2.6-9.848-.858-2.785-1.8-5.543-2.808-8.277a.325.325,0,0,1-.431-.093A36.042,36.042,0,0,0,14.319,10.568c-.457-.2-.215-.943.246-.741A36.866,36.866,0,0,1,28.09,19.942q-1.869-4.922-4.051-9.717a.32.32,0,0,1-.439.019A50.97,50.97,0,0,0,13.292,4.092c-.455-.2-.214-.947.246-.741A51.882,51.882,0,0,1,23.594,9.276Q21.534,4.822,19.222.489a.365.365,0,0,1-.189-.181A83.388,83.388,0,0,0-.612-8.075c-.483-.136-.238-.878.246-.741" transform="translate(0.874 21.045)" fill="#eef9fe"/></g></g></g><g transform="translate(57.929 131.737)"><g clip-path="url(#f)"><g transform="translate(0 0)"><path d="M-.366-8.816a84.206,84.206,0,0,1,18.832,7.9c-.128-.232-.249-.469-.379-.7A163.006,163.006,0,0,0,7.766-17.849c-.292-.4.284-.931.578-.525A164.991,164.991,0,0,1,19.05-1.446a76.212,76.212,0,0,0-1.815-19.141A.391.391,0,0,1,18-20.749,77.01,77.01,0,0,1,19.786-.16l.052.029a.337.337,0,0,1,.163.4q2.112,3.935,4,7.982a39.854,39.854,0,0,0-.6-12.138.391.391,0,0,1,.764-.161,40.573,40.573,0,0,1,.456,13.653c.305.67.613,1.339.91,2.012a164.736,164.736,0,0,1,6.124,16.152q.163.513.325,1.029a34.091,34.091,0,0,0,3.884-16.238,33.373,33.373,0,0,0-.424-4.876c-.08-.494.683-.659.764-.161a34.908,34.908,0,0,1-1.6,17.255,34.714,34.714,0,0,1-2,4.511.316.316,0,0,1-.417.158A90.9,90.9,0,0,1,35.042,40.74a194.8,194.8,0,0,0,4.917-21.573c.082-.49.863-.449.779.047a196.76,196.76,0,0,1-5.191,22.622.471.471,0,0,1-.039.074.146.146,0,0,1,.009.015.347.347,0,0,1-.2.518c.033.229.072.458.1.687.732,5.593.508,11.4-1.754,16.634-.2.457-.941.216-.741-.246,2.461-5.7,2.489-11.848,1.5-17.894A99.067,99.067,0,0,0,24.685,28.14,99.523,99.523,0,0,0,12.235,15.98Q8.458,12.892,4.39,10.187a.39.39,0,0,1,.426-.654A100.2,100.2,0,0,1,18.495,20.481,100.123,100.123,0,0,1,30.094,33.7q2.076,2.833,3.944,5.807c-.679-3.366-1.621-6.681-2.6-9.848-.858-2.785-1.8-5.543-2.808-8.277a.325.325,0,0,1-.431-.093A36.042,36.042,0,0,0,14.319,10.568c-.457-.2-.215-.943.246-.741A36.866,36.866,0,0,1,28.09,19.942q-1.869-4.922-4.051-9.717a.32.32,0,0,1-.439.019A50.97,50.97,0,0,0,13.292,4.092c-.455-.2-.214-.947.246-.741A51.882,51.882,0,0,1,23.594,9.276Q21.534,4.822,19.222.489a.365.365,0,0,1-.189-.181A83.388,83.388,0,0,0-.612-8.075c-.483-.136-.238-.878.246-.741" transform="translate(0.874 21.045)" fill="#eef9fe"/></g></g></g><g transform="translate(494.706 70.276)"><path d="M-20.483-6.347a3.118,3.118,0,0,0-3.843-.22l-.059.051A3.355,3.355,0,0,0-24.8-2.623C-25.983-1.583-27.2-.584-28.483.343c-1.13.818-2.8,2.3-4.347,2.123q1.54-5.82,2.708-11.753c1.771.2,3.91-.622,4.253-2.354.005-.026.01-.051.014-.077A3.119,3.119,0,0,0-28-14.913c-2.131-.778-7.053.337-5.49,3.587A3.261,3.261,0,0,0-32.18-9.954Q-33.243-4.545-34.614.771a7.625,7.625,0,0,1-3.6-6.564c1.543-.871,2.789-2.754,2.076-4.353l-.033-.071a3.118,3.118,0,0,0-3.6-1.368c-2.19.594-5.566,4.345-2.415,6.1a3.248,3.248,0,0,0,1.839.363,9.839,9.839,0,0,0,5.125,8.051c.009.005.019,0,.029.009A185.791,185.791,0,0,1-48.771,38.352a1.075,1.075,0,0,0,1.906.991A188.05,188.05,0,0,0-33.407,4.514a6.318,6.318,0,0,0,4.548-1.295,46.438,46.438,0,0,0,5.324-4.1A3.714,3.714,0,0,0-20.77.2c3.593-.312,2.042-5.115.287-6.551" transform="translate(48.895 15.15)" fill="#eef9fe"/></g><g transform="translate(513.479 86.909)"><g clip-path="url(#h)"><g transform="translate(0 0)"><path d="M-.258-41.287C4.654-44.267,9.6-47.5,14.34-50.972c-2.883-2.149-4.462-6.575-3.033-9.816a4.8,4.8,0,0,1,3.755-2.766c.979-.026,1.857.519,2.246,1.977a10.653,10.653,0,0,1-.583,6.04c-.277.741-.652,1.447-.886,2.206a6.144,6.144,0,0,0-.067,1.3c1.917-1.439,3.8-2.915,5.617-4.436-1.936-.491-2.556-3.92-2.929-5.5-.529-2.241-1.5-5.367.339-7.246a3.6,3.6,0,0,1,5.253.236,3.849,3.849,0,0,1,.642,1.133c.7,1.97-.151,4.144-.891,5.97-.142.351-1.625,3.73-1.973,5.036q1.356-1.145,2.668-2.319c3.57-3.2,7.154-6.568,10.472-10.158-3.77-2.636-5.88-8.35-4.045-12.51a6.043,6.043,0,0,1,4.724-3.48c1.232-.032,2.335.654,2.825,2.487a13.4,13.4,0,0,1-.734,7.6c-.349.933-.82,1.819-1.114,2.774a6.219,6.219,0,0,0-.085,1.389,70.572,70.572,0,0,0,6.713-8.851c.007-.011.016-.019.023-.029-.843-5.55-1.663-12.65,2.188-17.084,2.224-2.561,5.156-1.794,6.006,1.38a14.851,14.851,0,0,1-.513,8.8,16.914,16.914,0,0,1-6.856,8.46q-.619.953-1.269,1.891c4.414-.807,7.351-6.322,12.368-5.636a2.98,2.98,0,0,1,2.57,3.784c-.68,2.993-4.274,3.731-6.877,3.913a24.967,24.967,0,0,1-4.351-.117,15.744,15.744,0,0,1-2.3-.366,20.211,20.211,0,0,1-1.886-.9,86.986,86.986,0,0,1-5.881,7.373c1.274,1.767,5.154,1.158,6.895.764,2.09-.473,5.811-1.208,7.106,1.05,1.925,3.356-2.2,6.293-5.2,5.712-2.816-.545-5.983-2.9-7.835-5.045A22.343,22.343,0,0,0,35.992-67.9,111.093,111.093,0,0,1,27.8-59.74a31.974,31.974,0,0,0,3.2.3c2.406,0,5,0,6.957,1.618a2.843,2.843,0,0,1-1.175,5.159c-2.48.651-4.941-.783-6.8-2.289-.326-.264-2.22-2.461-3.286-3.8-2.566,2.258-5.227,4.424-7.946,6.5,1.154.1,2.365.325,3.486.323,2.406,0,5,0,6.957,1.618a2.843,2.843,0,0,1-1.176,5.159c-2.479.651-4.941-.783-6.8-2.289-.346-.281-2.469-2.75-3.478-4.046C12.119-47.279,6.282-43.449.565-39.98a.773.773,0,0,1-.824-1.307" transform="translate(0.617 98.555)" fill="#c0eaf9"/></g></g></g><g transform="translate(471.214 89.126)"><path d="M-4.031-50.663a65.28,65.28,0,0,1,14.89-8.425C18.267-62.332,26-65.158,32.625-69.9c5.647-4.039,9.967-9.459,13.629-15.3s6.728-12.045,10.289-17.955c3.445-5.719,7.424-11.235,12.753-15.351.676-.522,1.374-1.015,2.088-1.485.443-.292.222-1.089-.356-.926-10.365,2.946-37.86,11.533-57.068,25.651a28.955,28.955,0,0,0-10.277,14.1C1.71-75.364,1.328-69.209.042-63.253a32.542,32.542,0,0,1-4.71,11.79A35.318,35.318,0,0,0-7.5-48.935q-1.052,1.053-2,2.2c-.331.4.075,1.13.588.8a18.309,18.309,0,0,0,4.884-4.723" transform="translate(9.624 120.937)" fill="#c0eaf9"/></g><g transform="translate(471.214 89.126)"><g clip-path="url(#i)"><g transform="translate(0 0)"><path d="M-4.031-50.663a65.28,65.28,0,0,1,14.89-8.425C18.267-62.332,26-65.158,32.625-69.9c5.647-4.039,9.967-9.459,13.629-15.3s6.728-12.045,10.289-17.955c3.445-5.719,7.424-11.235,12.753-15.351.676-.522,1.374-1.015,2.088-1.485.443-.292.222-1.089-.356-.926-10.365,2.946-37.86,11.533-57.068,25.651a28.955,28.955,0,0,0-10.277,14.1C1.71-75.364,1.328-69.209.042-63.253a32.542,32.542,0,0,1-4.71,11.79A35.318,35.318,0,0,0-7.5-48.935q-1.052,1.053-2,2.2c-.331.4.075,1.13.588.8a18.309,18.309,0,0,0,4.884-4.723" transform="translate(9.624 120.937)" fill="#c0eaf9"/></g></g></g><g transform="translate(478.473 105.451)"><g opacity="0.47" clip-path="url(#j)"><g transform="translate(0 0)"><path d="M-.68-35.732q2.707-4.03,5.645-7.895a.463.463,0,0,0,.449.143,81.117,81.117,0,0,0,20.208-7c.576-.29.094-1.167-.481-.878A80.02,80.02,0,0,1,5.7-44.572q2.658-3.448,5.482-6.765a.482.482,0,0,0,.316.054,78.326,78.326,0,0,0,20.84-6.746c.579-.282.1-1.159-.481-.878a77.256,77.256,0,0,1-19.744,6.487q2.085-2.4,4.257-4.714c1.887-2.008,3.837-3.954,5.821-5.867a.418.418,0,0,0,.263.061,149.92,149.92,0,0,0,19.152-2.955.5.5,0,0,0-.231-.974,148,148,0,0,1-18.13,2.848q4.291-4.069,8.848-7.843c-.091.348.136.765.551.606l15.847-6.059c.593-.227.369-1.2-.231-.974L32.655-72.323c1.293-1.057,2.6-2.1,3.92-3.12q6.169-4.744,12.761-8.9c.542-.342.065-1.222-.481-.878A170.053,170.053,0,0,0,32.987-73.875a30.7,30.7,0,0,1,4.639-10.509c.366-.53-.492-1.044-.858-.515a31.444,31.444,0,0,0-4.945,11.636.489.489,0,0,0,.035.3q-2.589,2.12-5.095,4.339-2.409,2.136-4.733,4.366a29.765,29.765,0,0,1,3.759-15.2c.314-.56-.542-1.078-.858-.514a30.745,30.745,0,0,0-3.9,16,.477.477,0,0,0,.264.422q-5.58,5.405-10.648,11.306a26.669,26.669,0,0,1,3.5-17.284.5.5,0,0,0-.858-.514,27.752,27.752,0,0,0-3.611,18.1.4.4,0,0,0,.4.373c-.81.953-1.622,1.906-2.411,2.877q-4.882,6.01-9.2,12.444c-.359.535.5,1.049.858.514" transform="translate(1.624 85.295)" fill="#c0eaf9"/></g></g></g><g transform="translate(481.828 130.74)"><path d="M-44.895-26.633c2.319,1.849,4.9,3.618,7.97,3.744A5.624,5.624,0,0,0-33.125-24a4.879,4.879,0,0,0,1.784-3.221A7.5,7.5,0,0,0-34.378-33.9a10.144,10.144,0,0,0-2.143-1.186,14.971,14.971,0,0,0,7.91-2.223C-25.2-39.563-22.6-44.2-24.325-48.25c-1.866-4.384-7.314-5.5-11.522-6.1a51.711,51.711,0,0,0-16.235.272,52.385,52.385,0,0,0-9.3,2.537,8.608,8.608,0,0,0,2.662-5.88,5.78,5.78,0,0,0-3-5.189,10.314,10.314,0,0,0-6.077-.862A33.239,33.239,0,0,0-74.741-61.7a72.479,72.479,0,0,0-7.422,2.984A74.274,74.274,0,0,0-95.89-50.373a73.23,73.23,0,0,0-11.278,10.733q.316.386.607.788A54.362,54.362,0,0,1-92.6-39.034a56.132,56.132,0,0,1,15.667,4.178,54.174,54.174,0,0,1,7.2,3.744,65.3,65.3,0,0,1,6.634,4.838c2.074,1.679,4.288,3.389,6.916,4.076a8.225,8.225,0,0,0,6.45-.889,4.54,4.54,0,0,0,2.058-5.163,5,5,0,0,0-.252-.659c1.06.693,2.059,1.5,3.028,2.275" transform="translate(107.168 63.575)" fill="#eef9fe"/></g><g transform="translate(482.169 137.158)"><g clip-path="url(#k)"><g transform="translate(0 0)"><path d="M-47.092-18.554A72.319,72.319,0,0,0-58.726-31.692c.225.04.451.074.676.114a140.216,140.216,0,0,1,16.059,3.911c.409.126.68-.489.268-.615a141.98,141.98,0,0,0-16.732-4.031,65.49,65.49,0,0,1,16.074-3.815.336.336,0,0,0-.079-.666,66.179,66.179,0,0,0-17.246,4.239l-.038-.034a.291.291,0,0,0-.373-.022q-3.784-.629-7.6-1.05a34.2,34.2,0,0,1,10.039-2.871.336.336,0,0,0-.08-.666,34.827,34.827,0,0,0-11.235,3.4c-.628-.064-1.258-.129-1.888-.184A141.07,141.07,0,0,0-85.715-34.5c-.308.005-.618.013-.927.019A29.3,29.3,0,0,1-74.5-42.127a28.7,28.7,0,0,1,4.085-1c.425-.072.346-.739-.08-.666a29.994,29.994,0,0,0-13.6,6.074,29.99,29.99,0,0,0-3.118,2.874.272.272,0,0,0-.013.382,78.066,78.066,0,0,0-9.971.8,167.422,167.422,0,0,1,16.193-9.964c.375-.2.126-.827-.255-.621a168.85,168.85,0,0,0-16.97,10.476.343.343,0,0,0-.049.053l-.015,0a.3.3,0,0,0-.366.3c-.2.036-.391.067-.587.107A27.073,27.073,0,0,0-112.3-27.286c-.318.288.084.826.4.535,3.959-3.579,8.952-5.3,14.146-6.165a84.992,84.992,0,0,1,13.661,4.2A85.412,85.412,0,0,1-70.75-21.951q3.555,2.219,6.881,4.781a.336.336,0,0,0,.415-.528,86.106,86.106,0,0,0-12.688-8.1A85.969,85.969,0,0,0-90.1-31.583q-2.878-.905-5.815-1.6c2.926-.378,5.884-.527,8.73-.609,2.5-.073,5.008-.069,7.511,0a.279.279,0,0,0,.194.325,30.983,30.983,0,0,1,12.561,8.332c.287.316.827-.084.535-.405a31.688,31.688,0,0,0-11.969-8.207q4.521.16,9.026.609a.274.274,0,0,0,.106.362A43.814,43.814,0,0,1-61.37-26.1c.291.314.829-.088.535-.406a44.593,44.593,0,0,0-7.6-6.543c2.8.3,5.585.665,8.358,1.128a.313.313,0,0,0,.2.1A71.647,71.647,0,0,1-47.627-18.149c.245.356.779-.049.535-.4" transform="translate(112.413 44.289)" fill="#eef9fe"/></g></g></g><g transform="translate(51.055 288.149)"><g transform="translate(0 0)"><g clip-path="url(#l)"><g transform="translate(0 0)"><path d="M-365.9-5.491c0-4.207-113.616-7.617-253.768-7.617S-873.439-9.7-873.439-5.491-759.823,2.126-619.67,2.126-365.9-1.283-365.9-5.491" transform="translate(873.439 13.108)" fill="#c0eaf9"/></g></g></g></g></g><g transform="translate(89.242 45.296)"><g transform="translate(0)"><path d="M153.58-338.845H561.287V-588.713H153.58Z" transform="translate(-153.58 588.713)" fill="url(#m)"/></g></g><g clip-path="url(#a)"><path d="M638.9-391.049H373.183V-550.032H638.9Z" transform="translate(-156.334 617.805)" fill="#c0eaf9"/><g transform="translate(235.77 77.986)"><path d="M0-1.128V115.228a1.565,1.565,0,0,0,1.566,1.564H213.093a1.565,1.565,0,0,0,1.566-1.564V-1.128a1.566,1.566,0,0,0-1.566-1.565H1.566A1.565,1.565,0,0,0,0-1.128" transform="translate(0 2.693)" fill="#4f3132"/></g><path d="M618.719-414.446H416.171V-523.309H618.719Z" transform="translate(-174.343 606.611)" fill="#fff"/><g transform="translate(96.094 67.772)"><path d="M-79.761-120.473H-186.249a4.146,4.146,0,0,1-4.147-4.146V-283.434a4.146,4.146,0,0,1,4.147-4.147H-79.761a4.146,4.146,0,0,1,4.147,4.147v158.815a4.146,4.146,0,0,1-4.147,4.146" transform="translate(190.396 287.581)" fill="#c0eaf9"/></g><g transform="translate(405.071 239.501)"><path d="M-51.79-32.294h-67.651a4.186,4.186,0,0,1-4.186-4.185V-72.9a4.186,4.186,0,0,1,4.186-4.185H-51.79A4.185,4.185,0,0,1-47.6-72.9V-36.48a4.185,4.185,0,0,1-4.185,4.185" transform="translate(123.628 77.089)" fill="#c0eaf9"/></g><g transform="translate(438.346 255.709)"><path d="M0-8.925V-21.3l9.474,6.4Z" transform="translate(0 21.304)" fill="#fff"/></g><g transform="translate(115.473 239.501)"><path d="M-51.79-32.294h-67.651a4.186,4.186,0,0,1-4.186-4.185V-72.9a4.186,4.186,0,0,1,4.186-4.185H-51.79A4.186,4.186,0,0,1-47.6-72.9V-36.48a4.186,4.186,0,0,1-4.185,4.185" transform="translate(123.628 77.089)" fill="#c0eaf9"/></g><g transform="translate(148.748 255.709)"><path d="M0-8.925V-21.3l9.473,6.4Z" transform="translate(0 21.304)" fill="#fff"/></g><g transform="translate(103.621 71.8)"><path d="M-69.282-24.316H-161.3a4.085,4.085,0,0,1-4.085-4.085V-53.96a4.085,4.085,0,0,1,4.085-4.085h92.016A4.086,4.086,0,0,1-65.2-53.96V-28.4a4.086,4.086,0,0,1-4.085,4.085" transform="translate(165.382 58.045)" fill="#493bb6"/></g><g transform="translate(138.242 82.017)"><path d="M-36.474-1.286h-49.7a.893.893,0,0,1-.893-.893.892.892,0,0,1,.893-.892h49.7a.892.892,0,0,1,.893.892.892.892,0,0,1-.893.893" transform="translate(87.068 3.071)" fill="#fff"/></g><g transform="translate(138.242 85.854)"><path d="M-27.562-1.286H-64.9a.893.893,0,0,1-.893-.893.892.892,0,0,1,.893-.892h37.339a.891.891,0,0,1,.892.892.892.892,0,0,1-.892.893" transform="translate(65.793 3.071)" fill="#fff"/></g><g transform="translate(138.242 93.527)"><path d="M-22.647-1.287H-53.169a.893.893,0,0,1-.892-.893.893.893,0,0,1,.892-.893h30.522a.892.892,0,0,1,.892.893.892.892,0,0,1-.892.893" transform="translate(54.061 3.072)" fill="#fff"/></g><g transform="translate(138.242 89.691)"><path d="M-31.687-1.286H-74.748a.892.892,0,0,1-.892-.892.892.892,0,0,1,.892-.893h43.061a.892.892,0,0,1,.892.893.892.892,0,0,1-.892.892" transform="translate(75.64 3.071)" fill="#fff"/></g><g transform="translate(109.376 77.756)"><path d="M-15.728-7.865A10.909,10.909,0,0,1-26.636,3.044,10.909,10.909,0,0,1-37.545-7.865,10.909,10.909,0,0,1-26.636-18.773,10.909,10.909,0,0,1-15.728-7.865" transform="translate(37.545 18.773)" fill="#c0eaf9"/></g><g transform="translate(103.621 113.719)"><path d="M-69.282-24.316H-161.3a4.084,4.084,0,0,1-4.085-4.085V-53.96a4.085,4.085,0,0,1,4.085-4.085h92.016A4.086,4.086,0,0,1-65.2-53.96V-28.4a4.085,4.085,0,0,1-4.085,4.085" transform="translate(165.382 58.045)" fill="#00b9f6"/></g><g transform="translate(138.242 125.854)"><path d="M-36.474-1.287h-49.7a.893.893,0,0,1-.893-.893.893.893,0,0,1,.893-.893h49.7a.892.892,0,0,1,.893.893.892.892,0,0,1-.893.893" transform="translate(87.068 3.072)" fill="#fff"/></g><g transform="translate(138.242 129.691)"><path d="M-27.562-1.287H-64.9a.893.893,0,0,1-.893-.893.893.893,0,0,1,.893-.893h37.339a.892.892,0,0,1,.892.893.892.892,0,0,1-.892.893" transform="translate(65.793 3.072)" fill="#fff"/></g><g transform="translate(138.242 133.527)"><path d="M-31.687-1.287H-74.748a.892.892,0,0,1-.892-.892.892.892,0,0,1,.892-.893h43.061a.892.892,0,0,1,.892.893.892.892,0,0,1-.892.892" transform="translate(75.64 3.072)" fill="#fff"/></g><g transform="translate(109.376 119.675)"><path d="M-15.728-7.865A10.909,10.909,0,0,1-26.636,3.044,10.909,10.909,0,0,1-37.545-7.865,10.909,10.909,0,0,1-26.636-18.773,10.909,10.909,0,0,1-15.728-7.865" transform="translate(37.545 18.773)" fill="#493bb6"/></g><g transform="translate(103.621 155.367)"><path d="M-69.282-24.316H-161.3a4.085,4.085,0,0,1-4.085-4.085V-53.961a4.084,4.084,0,0,1,4.085-4.085h92.016A4.085,4.085,0,0,1-65.2-53.961V-28.4a4.086,4.086,0,0,1-4.085,4.085" transform="translate(165.382 58.045)" fill="#493bb6"/></g><g transform="translate(138.242 165.584)"><path d="M-36.474-1.287h-49.7a.893.893,0,0,1-.893-.893.893.893,0,0,1,.893-.893h49.7a.892.892,0,0,1,.893.893.892.892,0,0,1-.893.893" transform="translate(87.068 3.072)" fill="#fff"/></g><g transform="translate(138.242 169.42)"><path d="M-19.235-1.287H-45.169a.747.747,0,0,1-.747-.748v-.29a.747.747,0,0,1,.747-.748h25.934a.747.747,0,0,1,.747.748v.29a.747.747,0,0,1-.747.748" transform="translate(45.916 3.072)" fill="#fff"/></g><g transform="translate(138.242 177.094)"><path d="M-27.875-1.287H-65.648a.892.892,0,0,1-.892-.892.893.893,0,0,1,.892-.893h37.773a.893.893,0,0,1,.892.893.892.892,0,0,1-.892.892" transform="translate(66.54 3.072)" fill="#fff"/></g><g transform="translate(138.242 173.257)"><path d="M-31.687-1.287H-74.748a.892.892,0,0,1-.892-.892.892.892,0,0,1,.892-.893h43.061a.892.892,0,0,1,.892.893.892.892,0,0,1-.892.892" transform="translate(75.64 3.072)" fill="#fff"/></g><g transform="translate(109.376 161.323)"><path d="M-15.728-7.864A10.909,10.909,0,0,1-26.636,3.045,10.909,10.909,0,0,1-37.545-7.864,10.909,10.909,0,0,1-26.636-18.772,10.909,10.909,0,0,1-15.728-7.864" transform="translate(37.545 18.772)" fill="#c0eaf9"/></g><g transform="translate(103.621 197.151)"><path d="M-69.282-24.316H-161.3a4.085,4.085,0,0,1-4.085-4.085V-53.96a4.084,4.084,0,0,1,4.085-4.085h92.016A4.085,4.085,0,0,1-65.2-53.96V-28.4a4.086,4.086,0,0,1-4.085,4.085" transform="translate(165.382 58.045)" fill="#00b9f6"/></g><g transform="translate(138.242 207.367)"><path d="M-23.831-1.287H-56.164a.723.723,0,0,1-.723-.723v-.339a.723.723,0,0,1,.723-.724h32.333a.723.723,0,0,1,.724.724v.339a.723.723,0,0,1-.724.723" transform="translate(56.887 3.072)" fill="#fff"/></g><g transform="translate(138.242 211.204)"><path d="M-27.562-1.286H-64.9a.893.893,0,0,1-.893-.892.893.893,0,0,1,.893-.893h37.339a.892.892,0,0,1,.892.893.892.892,0,0,1-.892.892" transform="translate(65.793 3.071)" fill="#fff"/></g><g transform="translate(138.242 218.878)"><path d="M-22.647-1.287H-53.169a.893.893,0,0,1-.892-.893.893.893,0,0,1,.892-.893h30.522a.892.892,0,0,1,.892.893.893.893,0,0,1-.892.893" transform="translate(54.061 3.072)" fill="#fff"/></g><g transform="translate(138.242 215.041)"><path d="M-31.687-1.286H-74.748a.892.892,0,0,1-.892-.892.892.892,0,0,1,.892-.893h43.061a.892.892,0,0,1,.892.893.892.892,0,0,1-.892.892" transform="translate(75.64 3.071)" fill="#fff"/></g><g transform="translate(109.376 203.107)"><path d="M-15.728-7.864A10.909,10.909,0,0,1-26.636,3.045,10.909,10.909,0,0,1-37.545-7.864,10.909,10.909,0,0,1-26.636-18.772,10.909,10.909,0,0,1-15.728-7.864" transform="translate(37.545 18.772)" fill="#493bb6"/></g></g><text transform="translate(216.85 235.173)" fill="#00b9f6" font-size="7" font-family="Montserrat-Bold, Montserrat" font-weight="700"><tspan x="0" y="0">Online</tspan></text><g clip-path="url(#a)"><g transform="translate(216.848 247.756)"><path d="M-115.794-1.853H-275.125a1.286,1.286,0,0,1-1.286-1.285,1.286,1.286,0,0,1,1.286-1.285h159.331a1.286,1.286,0,0,1,1.285,1.285,1.286,1.286,0,0,1-1.285,1.285" transform="translate(276.411 4.424)" fill="#c0eaf9"/></g><g transform="translate(216.849 254.954)"><path d="M-84.475-1.853H-200.364a1.285,1.285,0,0,1-1.285-1.285,1.285,1.285,0,0,1,1.285-1.285H-84.475a1.285,1.285,0,0,1,1.285,1.285,1.285,1.285,0,0,1-1.285,1.285" transform="translate(201.649 4.423)" fill="#c0eaf9"/></g><g transform="translate(216.848 262.838)"><path d="M-97.293-1.853H-230.961a1.286,1.286,0,0,1-1.286-1.285,1.286,1.286,0,0,1,1.286-1.285H-97.293a1.286,1.286,0,0,1,1.285,1.285,1.286,1.286,0,0,1-1.285,1.285" transform="translate(232.247 4.424)" fill="#c0eaf9"/></g><path d="M561.287-577.525H153.58v-11.188H561.287Z" transform="translate(-64.338 634.009)" fill="#00b9f6"/><g transform="translate(126.974 48.268)"><path d="M-258.606-4.252H-614.367A2.949,2.949,0,0,1-617.316-7.2a2.949,2.949,0,0,1,2.949-2.949h355.761A2.949,2.949,0,0,1-255.657-7.2a2.949,2.949,0,0,1-2.949,2.949" transform="translate(617.316 10.149)" fill="#fff"/></g><g transform="translate(96.994 48.138)"><path d="M-3.969-1.985A2.753,2.753,0,0,1-6.723.768,2.752,2.752,0,0,1-9.475-1.985,2.752,2.752,0,0,1-6.723-4.737,2.753,2.753,0,0,1-3.969-1.985" transform="translate(9.475 4.737)" fill="#493bb6"/></g><g transform="translate(104.059 48.138)"><g clip-path="url(#p)"><g transform="translate(0.001 0)"><path d="M-3.969-1.985A2.753,2.753,0,0,1-6.723.768,2.752,2.752,0,0,1-9.475-1.985,2.752,2.752,0,0,1-6.723-4.737,2.753,2.753,0,0,1-3.969-1.985" transform="translate(9.475 4.737)" fill="#00b9f6"/></g></g></g><g transform="translate(111.126 48.138)"><path d="M-3.969-1.985A2.753,2.753,0,0,1-6.721.768,2.752,2.752,0,0,1-9.473-1.985,2.752,2.752,0,0,1-6.721-4.737,2.753,2.753,0,0,1-3.969-1.985" transform="translate(9.473 4.737)" fill="#ff7960"/></g></g><g transform="translate(271.084 71.8)"><g transform="translate(0 0)" clip-path="url(#q)"><g transform="translate(101.869 96.784)"><path d="M-4.917-42.2S6.6-33.922,12.451-31.7L-7.225-73.738-7.073-90.9A9.807,9.807,0,0,1,7.191-99.608l.26.14A26.069,26.069,0,0,1,19.708-84.022c6.374,20.978,13.714,41.762,18.8,63.073a21.266,21.266,0,0,1,.507,7.479C36.821,4.651,14.027-9.776,6.5-15.572,4.267-17.293-11.737-34.082-11.737-34.082s6.149-8.2,6.82-8.116" transform="translate(11.737 100.729)" fill="#ff7960"/></g><g transform="translate(30.291 87.105)"><path d="M-64.525-7.391s-2.827,11.9-5.6,29.716c-1.029,6.492-2.031,13.766-2.9,21.535-1.949,17.527-3.171,37.566-2.045,56.768a49.507,49.507,0,0,1-.92,12.888l-1.825,3.706-.44.879-.673.123a143.638,143.638,0,0,1-16.223,2.251c-18.323,1.455-33.624,2.166-49.134-5.822-.247-1.234-2.871-12.665-2.6-13.873l2.155-9.608,1.374-6.094A353.323,353.323,0,0,0-146.439,37a203.623,203.623,0,0,0-7.589-34.979c3.381-5.887,8.292-9.494,11.673-15.382l12.157-2.389a82.2,82.2,0,0,1,19.311-1.87A82.157,82.157,0,0,1-90.7-14.651Z" transform="translate(154.028 17.643)" fill="#ff7960"/></g><g transform="translate(64.678 99.197)"><path d="M-8.77-9.9l4.545-8.44a.37.37,0,0,0-.13-.489l-7.537-4.71v-.1l-.08.05-.079-.05v.1l-7.539,4.711a.369.369,0,0,0-.129.489L-15.175-9.9a.373.373,0,0,1,.043.208L-20.872,54.6A15.775,15.775,0,0,0-19,63.573l7.243,13.245a.369.369,0,0,0,.651-.005l6.984-13.239A15.8,15.8,0,0,0-2.376,54.64L-8.812-9.692A.375.375,0,0,1-8.77-9.9" transform="translate(20.934 23.641)" fill="#493bb6"/></g><g transform="translate(35.033 118.29)"><g clip-path="url(#r)"><g transform="translate(0 0)"><path d="M-1.2-7.182q-.5-4.818-.938-9.64a.361.361,0,0,0-.719.051Q-1.3.2.96,17.091q.644,4.8,1.345,9.592c.066.456.785.408.718-.051Q.558,9.771-1.2-7.182" transform="translate(2.855 17.144)" fill="#ff7960"/></g></g></g><g transform="translate(109.645 118.29)"><g clip-path="url(#s)"><g transform="translate(0 0)"><path d="M-3.045-7.182q.5-4.818.938-9.64a.361.361,0,0,1,.719.051Q-2.938.2-5.2,17.091q-.644,4.8-1.345,9.592c-.066.456-.786.408-.718-.051Q-4.8,9.771-3.045-7.182" transform="translate(7.269 17.144)" fill="#ff7960"/></g></g></g><g transform="translate(63.453 60.445)"><path d="M-14.577-21.214v.064c.011,1.074.594,6.353-3.407,7.735-6.547,2.26-16.462,1.12-16.546-5.8L-34.8-43.357a7.133,7.133,0,0,1,7.037-7.218l5.719-.064a7.066,7.066,0,0,1,4.922,1.9,7.085,7.085,0,0,1,2.286,5.155Z" transform="translate(34.797 50.639)" fill="#ffb08a"/></g><g transform="translate(66.888 62.24)"><g clip-path="url(#t)"><g transform="translate(0 0.001)"><path d="M-12.1-19.919c-.266,0-.521,0-.776-.011C-21.837-20.4-28.737-28.1-28.833-37.076l-.053-4.539c-.032-3.2,3.125-5.825,7.058-5.867l5.719-.064a8.341,8.341,0,0,1,1.467.106,7.085,7.085,0,0,1,2.286,5.155Z" transform="translate(28.886 47.548)" fill="#ffb08a"/></g></g></g><g transform="translate(45.158 23.58)"><path d="M-40.75-23.58c-1.093,4.949-4.762,6.581-8.216,7.618l-.121.04a33.813,33.813,0,0,1-2.28,4.06,36.867,36.867,0,0,1-4.1,5.245A19.722,19.722,0,0,1-65.705.1c-.122.027-.243.067-.364.095-.229.04-.458.121-.688.162-.162.04-.323.04-.485.067-.135.014-.27.014-.405.026a7.294,7.294,0,0,1-.944.067q-.465,0-.93-.04c-.135-.013-.269-.027-.4-.027-.161-.027-.323-.013-.485-.054a4.063,4.063,0,0,1-.7-.162,3.457,3.457,0,0,1-.364-.067A19.805,19.805,0,0,1-81.848-6.325,36.733,36.733,0,0,1-88.442-15.5c-.053-.012-.107-.04-.161-.053h-.013a.884.884,0,0,1-.176-.054c-3.412-.971-6.985-2.551-8.145-7.365-.943-3.939.07-9.145,3.36-9.468a5.616,5.616,0,0,1,3.2.891,43.055,43.055,0,0,1,8.973-18.515,14.643,14.643,0,0,1,6.057-4.962,10.442,10.442,0,0,1,3.641-1.132q1.275-.121,2.509-.121a22.407,22.407,0,0,1,2.509.067,10.562,10.562,0,0,1,3.682,1.053,14.662,14.662,0,0,1,6.149,4.83,43.2,43.2,0,0,1,9.383,18.316,5.586,5.586,0,0,1,3.17-.957c3.291.257,4.423,5.436,3.559,9.388" transform="translate(97.274 56.288)" fill="#ffb08a"/></g><g transform="translate(87.899 34.908)"><path d="M0,0A59.762,59.762,0,0,1,3.309,30.078c-.3,1.887-.755,3.847-1.9,4.945,3.43,1.344,6.982-.849,8.747-4.534s1.961-8.557,1.266-13.158a77.14,77.14,0,0,0-3.707-13.4" fill="#4f3132"/></g><g transform="translate(62.24 46.109)"><path d="M-.141-3.229s-.006-.005-.01-.006a.553.553,0,0,0-.185-.03,6.984,6.984,0,0,1,5.1-4.377,2.068,2.068,0,0,1,1.1.017.888.888,0,0,1,.622.826c-.025.41-.405.7-.773.882a10.792,10.792,0,0,1-2.434.741A7.4,7.4,0,0,0,.887-4.3,3.209,3.209,0,0,0-.141-3.229" transform="translate(0.336 7.707)" fill="#4f3132"/></g><g transform="translate(80.121 45.453)"><path d="M-.429-.073A2.083,2.083,0,0,1,.665-.13a6.967,6.967,0,0,1,5.354,4.5,3.442,3.442,0,0,0-.751-.855c-.019-.014-.038-.021-.057-.033a3.41,3.41,0,0,0-.556-.418,7.422,7.422,0,0,0-2.413-.785A10.872,10.872,0,0,1-.217,1.63c-.373-.17-.765-.446-.8-.855A.891.891,0,0,1-.429-.073" transform="translate(1.025 0.175)" fill="#4f3132"/></g><g transform="translate(67.444 65.471)"><g clip-path="url(#u)"><g transform="translate(0 0)"><path d="M-.843-.124a9.091,9.091,0,0,0,8.385,1.8c.824-.239,1.156,1.049.335,1.287A10.457,10.457,0,0,1-1.8.8c-.648-.56.31-1.484.954-.927" transform="translate(2.012 0.297)" fill="#ffb08a"/></g></g></g><g transform="translate(74.242 55.281)"><g clip-path="url(#v)"><g transform="translate(0 0)"><path d="M-.526-5.071A4.505,4.505,0,0,0,1.7-5.195a3.725,3.725,0,0,0,1-.483c.051-.037.169-.119.19-.186-.019.058-.018,0-.02-.031a2.308,2.308,0,0,0-.249-.6A30.165,30.165,0,0,0,.152-11.02a.685.685,0,0,1,.09-.937.67.67,0,0,1,.936.091c.6.9,1.165,1.833,1.676,2.792q.363.681.691,1.381a8.115,8.115,0,0,1,.628,1.509c.27,1.146-.886,1.821-1.8,2.158a5.755,5.755,0,0,1-3.028.28.682.682,0,0,1-.6-.726.67.67,0,0,1,.726-.6" transform="translate(1.255 12.105)" fill="#ffb08a"/></g></g></g><g transform="translate(65.766 51.946)"><path d="M0-1.648C.071-.421.815.546,1.658.512S3.122-.545,3.046-1.773s-.82-2.195-1.663-2.161S-.08-2.876,0-1.648" transform="translate(0.011 3.935)" fill="#4f3132"/></g><g transform="translate(80.936 51.946)"><path d="M0-1.648C.071-.421.815.546,1.658.512S3.122-.545,3.046-1.773s-.82-2.195-1.662-2.161S-.08-2.876,0-1.648" transform="translate(0.011 3.935)" fill="#4f3132"/></g><g transform="translate(47.21 15.268)"><path d="M-44.962-28.1c-2.282-.111-4.1-2.076-4.929-4.2s-.928-4.46-1.354-6.706-1.3-4.576-3.188-5.867l5.24-1.405c-3.181.167-6.031-2.05-7.922-4.614s-3.146-5.559-5.1-8.075-4.945-4.6-8.1-4.2A9.3,9.3,0,0,0-65.428-65.8c-5.581-1.121-11.348-1.744-16.965-.819S-93.5-63.088-97.072-58.652a3.841,3.841,0,0,0,.228-2.728,25.528,25.528,0,0,0-6.973,9.489A24.2,24.2,0,0,0-107-43.176a31.673,31.673,0,0,0,1.961,16.122,13.584,13.584,0,0,0,2.46,4.394,5.948,5.948,0,0,0,4.436,2.1,3.859,3.859,0,0,0,3.685-2.9c-2.429-1.14-2.884-4.445-2.344-7.073,1.452-7.068,7.273-12.282,12.767-16.96a10.759,10.759,0,0,0,2.183,12.145,19,19,0,0,1,10.877-8.263,7.345,7.345,0,0,1-2.049,4.391,17.953,17.953,0,0,0,10.03-2.445,26.433,26.433,0,0,1,2.259,21.1A24.714,24.714,0,0,0-44.962-28.1" transform="translate(107.328 67.068)" fill="#4f3132"/></g><g transform="translate(61.495 121.769)"><path d="M-18.787-37.422-44.845-49.747V-89.33c11.04,2.771,20.507,6.436,26.059,12.325Z" transform="translate(44.845 89.33)" fill="#c0eaf9"/></g><g transform="translate(87.554 121.769)"><path d="M0-37.422,25.117-49.747V-89.33A62.622,62.622,0,0,0,0-77.005Z" transform="translate(0 89.33)" fill="#c0eaf9"/></g><g transform="translate(60.261 124.212)"><path d="M-19.706-33.9-47.04-45.066V-80.924c10.483,3.1,19.783,6.741,27.334,11.165Z" transform="translate(47.04 80.924)" fill="#fff"/></g><g transform="translate(87.595 124.212)"><path d="M0-33.9,26.345-45.066V-80.924C15.306-77.275,4.274-73.628,0-69.759Z" transform="translate(0 80.924)" fill="#fff"/></g><g transform="translate(58.121 123.291)"><path d="M-18.448-36.583-44.036-48.632V-87.326l25.588,12.048Z" transform="translate(44.036 87.326)" fill="#00b9f6"/></g><g transform="translate(90.458 123.291)"><path d="M0-36.583,25.588-48.632V-87.326L0-75.278Z" transform="translate(0 87.326)" fill="#00b9f6"/></g><g transform="translate(94.059 133.143)"><path d="M0-14.358l10.044-4.729V-34.275L0-29.546Z" transform="translate(0 34.275)" fill="#fff"/></g><path d="M617.605-271.96h-7.03v-38.233h7.03Z" transform="translate(-526.866 445.531)" fill="#493bb6"/><g transform="translate(93.642 145.182)"><path d="M-.25-7.346a.347.347,0,0,1-.311-.2A.345.345,0,0,1-.4-8.007L19.093-17.5a.344.344,0,0,1,.463.16.344.344,0,0,1-.16.463L-.1-7.382a.339.339,0,0,1-.152.036" transform="translate(0.598 17.537)" fill="#4f3132"/></g><g transform="translate(93.642 148.011)"><path d="M-.25-7.346a.346.346,0,0,1-.311-.2A.346.346,0,0,1-.4-8.007L19.093-17.5a.344.344,0,0,1,.463.16.344.344,0,0,1-.16.463L-.1-7.382a.339.339,0,0,1-.152.036" transform="translate(0.598 17.537)" fill="#4f3132"/></g><g transform="translate(93.642 150.839)"><path d="M-.25-7.346a.347.347,0,0,1-.311-.2A.345.345,0,0,1-.4-8.007L19.093-17.5a.344.344,0,0,1,.463.16.344.344,0,0,1-.16.463L-.1-7.382a.339.339,0,0,1-.152.036" transform="translate(0.598 17.537)" fill="#4f3132"/></g><g transform="translate(93.642 153.667)"><path d="M-.25-7.346a.347.347,0,0,1-.311-.2A.346.346,0,0,1-.4-8.006L19.093-17.5a.344.344,0,0,1,.463.16.344.344,0,0,1-.16.463L-.1-7.381a.338.338,0,0,1-.152.035" transform="translate(0.598 17.535)" fill="#4f3132"/></g><g transform="translate(93.642 156.495)"><path d="M-.25-7.346a.346.346,0,0,1-.311-.2A.346.346,0,0,1-.4-8.007L19.093-17.5a.344.344,0,0,1,.463.16.344.344,0,0,1-.16.463L-.1-7.382a.339.339,0,0,1-.152.036" transform="translate(0.598 17.537)" fill="#4f3132"/></g><g transform="translate(9.369 91.384)"><path d="M-21.444-27.508l-2.255,9.3L-34.628,27a6.855,6.855,0,0,1-11.292,3.483L-46,30.4a17.616,17.616,0,0,1-4.955-15.513c3.538-22.562,7.6-43.544,12.638-61.758.135-.487.283-.959.445-1.445a26.1,26.1,0,0,1,9.91-13.07,28.055,28.055,0,0,1,9.371-4.28Z" transform="translate(51.19 65.665)" fill="#ff7960"/></g><g transform="translate(8.247 96.765)"><path d="M-13.013-13.585v6.34h-11.62l-.181-5.371c-4.578-2.29-6.25-10.92-6.25-10.92l1.144-2.2.308-.591,16.118-5.626,1.359-.475c2.6,8.186,2.7,14.722-.879,18.843" transform="translate(31.064 32.428)" fill="#ffb08a"/></g><g transform="translate(9.061 97.548)"><g opacity="0.56" clip-path="url(#w)"><g transform="translate(0 0)"><path d="M-10.681-2.477a16.56,16.56,0,0,0-.7-2.5,5.92,5.92,0,0,0-.448-.932l-13.407,4.68L-25.5-.74c.009.02.017.042.026.061A29.381,29.381,0,0,0-22.99,3.867a13.248,13.248,0,0,0,3.431,3.645,5.785,5.785,0,0,0,2.183.913,5.035,5.035,0,0,0,2.338-.163,6.326,6.326,0,0,0,3.6-2.988A9.479,9.479,0,0,0-10.324.385a15.431,15.431,0,0,0-.357-2.862" transform="translate(25.497 5.912)" fill="#ffb08a"/></g></g></g><g transform="translate(21.151 75.186)"><path d="M-1.746-.25A1.157,1.157,0,0,0-3.658.164c-1.231,3.433.09,16.159.555,26.248L2,22.891S1.45,3.085-1.746-.25" transform="translate(4.169 0.597)" fill="#ffb08a"/></g><g transform="translate(8.152 92.84)"><path d="M-.894-8.036S3.684-.068,6.942-1.477c2.377,1.419,3.562.8,3.742-1.54,0,0,2.334.308,2.509-1.762.229-7.159.377-14.123-2.327-14.4,0,0-4.514-.308-4.659,2.84,0,0-3.755-.2-4.24,3.455,0,0-4.666-.44-3.741,4.711,0,0-.583.475-.265,1.805L-.41-4.91Z" transform="translate(2.134 19.182)" fill="#ffb08a"/></g><g transform="translate(18.707 95.688)"><path d="M-6.6-2.449-6.672-2.7a3.69,3.69,0,0,0-2.8-2.575,20.238,20.238,0,0,0-4.972-.547,1.415,1.415,0,0,0-1.3,1.4c0,1.333.824,3.228,5.158,4.491,0,0,.044,4.043,3.349,5.855a1.058,1.058,0,0,0,1.535-.694c.462-2.116,0-4.775-.89-7.679" transform="translate(15.748 5.847)" fill="#ffb08a"/></g><g transform="translate(18.36 95.469)"><g opacity="0.56" clip-path="url(#x)"><g transform="translate(0 0)"><path d="M-6.3-8.129a6.26,6.26,0,0,1-2.341-2.8,7.091,7.091,0,0,1-.46-1.824,1.5,1.5,0,0,0-.39-.913,1.883,1.883,0,0,0-.829-.413A9.233,9.233,0,0,1-12.3-14.82a5.668,5.668,0,0,1-1.62-1.217,2.12,2.12,0,0,1-.575-1.615,1.3,1.3,0,0,1,.98-1.164,3.263,3.263,0,0,1,1.091-.028c.437.043.873.1,1.307.167q1.342.2,2.665.5c.332.075.475-.436.141-.512q-1.244-.28-2.5-.473-.625-.1-1.254-.17a5.96,5.96,0,0,0-1.12-.062,1.864,1.864,0,0,0-1.622.979,2.273,2.273,0,0,0-.064,1.819,3.842,3.842,0,0,0,1.319,1.607,8.037,8.037,0,0,0,1.991,1.085c.354.135.717.231,1.082.33a1.081,1.081,0,0,1,.743.445,3.3,3.3,0,0,1,.194.978,6.24,6.24,0,0,0,.253.982,6.838,6.838,0,0,0,2.728,3.5c.287.186.554-.273.268-.459" transform="translate(15.036 19.404)" fill="#ffb08a"/></g></g></g><g transform="translate(12.66 96.566)"><g opacity="0.53" clip-path="url(#y)"><g transform="translate(0 4.331)"><path d="M-3.592-6.714Q-5.347-10.3-7.1-13.878q-.493-1.006-.986-2.014c-.15-.306-.608-.038-.459.268L-5.036-8.46l.986,2.014c.151.306.608.038.459-.268" transform="translate(8.575 16.027)" fill="#ffb08a"/></g><g transform="translate(4.873 0)"><path d="M-2.543-8.711a1.666,1.666,0,0,1-1.239-1.367c-.1-.386-.16-.784-.225-1.178q-.108-.654-.217-1.307l-.849-5.129L-5.554-20.6a.267.267,0,0,0-.326-.185.271.271,0,0,0-.185.326q.443,2.68.887,5.358.221,1.34.443,2.679l.216,1.306A10.757,10.757,0,0,0-4.27-9.851,2.142,2.142,0,0,0-2.684-8.2a.273.273,0,0,0,.326-.185.267.267,0,0,0-.185-.326" transform="translate(6.07 20.793)" fill="#ffb08a"/></g><g transform="translate(5.648 14.517)"><path d="M-1.483-2.452A3.438,3.438,0,0,1-3-5.6c.029-.34-.5-.338-.531,0A3.965,3.965,0,0,0-1.751-1.994c.287.187.553-.272.268-.458" transform="translate(3.54 5.853)" fill="#ffb08a"/></g></g></g><g transform="translate(9.469 121.304)"><path d="M-16.077,0H-37.67l-.707,60.395a9.145,9.145,0,0,0,9.1,9.4,9.943,9.943,0,0,0,9.749-9.4Z" transform="translate(38.377)" fill="#ff7960"/></g><g transform="translate(27.454 131.581)"><g clip-path="url(#z)"><g transform="translate(0 0)"><path d="M-2.731-.013a.619.619,0,0,0-.756.429Q-4.588,8.461-5.3,16.552-6,24.6-6.3,32.67q-.172,4.584-.215,9.171a.615.615,0,0,0,1.229,0q.077-8.036.546-16.063T-3.406,9.76Q-2.917,5.244-2.3.742a.637.637,0,0,0-.429-.755" transform="translate(6.519 0.032)" fill="#ff7960"/></g></g></g><g transform="translate(79.694 142.908)"><path d="M-16.529-14.576C-28.693-11.816-33.672-12.4-35.68-13.562a1.256,1.256,0,0,1,.748-2.329c9.03.639,11.024-1.446,11.024-1.446-11,1.4-14.428-.332-15.388-1.99A1.243,1.243,0,0,1-37.861-21.1c10.386,2.8,12.024-.34,12.024-.34l-6.151.227c-3.425,0-5.391-.524-6.47-1.207a1.667,1.667,0,0,1,1.114-3.035c16.851,1.665,17.067-3.917,17.067-3.917-6.959-2.324-9.433-4.082-5.6-5.047a12.61,12.61,0,0,1,13.761,5.65,19.5,19.5,0,0,1,2.4,6.081Z" transform="translate(39.457 34.795)" fill="#ffb08a"/></g><g transform="translate(102.622 155.01)"><path d="M-4.917,0l-6.82,8.116S1.443,23.462,7.957,27.711L12.45,10.5Z" transform="translate(11.737)" fill="#ff7960"/></g><g transform="translate(52.604 83.043)"><path d="M-29.827-4.072-40.3-9.72C-41.337,0-45.113,4.234-50.243,5.765-55.372,4.234-59.149,0-60.181-9.72L-70.659-4.072c-2.063,1.217,2.449,23.6,2.449,23.6.119-.06,14.69-10.7,17.967-13.09,3.277,2.392,17.848,13.029,17.967,13.09,0,0,4.512-22.379,2.449-23.6" transform="translate(71.199 9.72)" fill="#fff"/></g></g></g><g clip-path="url(#a)"><g transform="translate(417.657 74.313)"><path d="M-43.491-21.745A30.163,30.163,0,0,1-73.653,8.417a30.163,30.163,0,0,1-30.163-30.163A30.163,30.163,0,0,1-73.653-51.908,30.163,30.163,0,0,1-43.491-21.745" transform="translate(103.816 51.908)" fill="#00b9f6"/></g><g transform="translate(433.514 81.392)"><g opacity="0.89" clip-path="url(#ab)"><g transform="translate(0 1.872)"><path d="M-20.481-24.917a9.362,9.362,0,0,1-4.057,6.3c-2.681,1.689-5.949,1.887-9.032,1.857l-1.016-.017-1.016.017c-3.082.029-6.351-.168-9.032-1.857A8.512,8.512,0,0,1-46.807-20.6a10.034,10.034,0,0,1-1.886-4.313,12.439,12.439,0,0,1-.022-4.3,15.471,15.471,0,0,1,1.068-3.639,30.767,30.767,0,0,1,4.928-7.488c.022-.023.04-.046.064-.07a24.993,24.993,0,0,0,5.909-16.079v-2.984h4.319v2.984a24.754,24.754,0,0,0,2.073,9.9,25.191,25.191,0,0,0,3.837,6.176c.023.023.041.046.064.07.807.969,1.6,1.956,2.327,2.984a23.791,23.791,0,0,1,2.6,4.5,13.78,13.78,0,0,1,1.045,7.941" transform="translate(48.891 59.479)" fill="#fff"/></g><g transform="translate(10.868 0)"><path d="M-4.547-1.352H-9.916a.938.938,0,0,1-.938-.938.938.938,0,0,1,.938-.937h5.369a.938.938,0,0,1,.938.937.939.939,0,0,1-.938.938" transform="translate(10.855 3.228)" fill="#fff"/></g></g></g><g transform="translate(434.38 108.289)"><path d="M-18.1-.511a7.365,7.365,0,0,1-5.915,1.685A33.414,33.414,0,0,1-27.825-.15a5.256,5.256,0,0,0-2.052-.212,7.151,7.151,0,0,0-2.135.683,9.66,9.66,0,0,1-3.366,1.22,4.582,4.582,0,0,1-2.933-1,14.868,14.868,0,0,0-2.234-1.6,2.036,2.036,0,0,0-.526-.162A19.776,19.776,0,0,0-42.034.719a12.756,12.756,0,0,0-.992,7.436,8.423,8.423,0,0,0,3.669,5.729c2.41,1.521,5.4,1.724,8.023,1.724h.534l.505-.011.511-.006.528.006.505.011h.534c2.618,0,5.613-.2,8.023-1.724a8.42,8.42,0,0,0,3.668-5.729A12.744,12.744,0,0,0-17.52.719C-17.7.3-17.9-.108-18.1-.511" transform="translate(43.216 1.219)" fill="#ff7960"/></g><g transform="translate(435.599 105.38)"><g clip-path="url(#ac)"><g clip-path="url(#ac)"><g transform="translate(0 0)"><path d="M0-12.082c.332-.046.668-.087,1.016-.122q1.636-.192,3.552-.331c7.134-.528,12.127-4.859,15.6-10.989a41.069,41.069,0,0,0,2.507-5.317,23.794,23.794,0,0,1,2.6,4.5,13.78,13.78,0,0,1,1.045,7.941,9.363,9.363,0,0,1-4.058,6.3C19.585-8.4,16.318-8.2,13.235-8.233L12.219-8.25,11.2-8.233C8.121-8.2,4.853-8.4,2.172-10.09A8.473,8.473,0,0,1,0-12.082" transform="translate(0 28.84)" fill="#c0eaf9"/></g></g></g></g><g transform="translate(419.129 90.421)"><g opacity="0.33" clip-path="url(#ae)"><g transform="translate(-0.001 0)"><path d="M-24.8-13.944C-35.319-8.4-47.836-6.25-59.193-9.89a30.17,30.17,0,0,0,28.605,20.6A30.163,30.163,0,0,0-.424-19.454,30.021,30.021,0,0,0-3.785-33.285,54.908,54.908,0,0,1-24.8-13.944" transform="translate(59.193 33.285)" fill="#00b9f6"/></g></g></g><g transform="translate(221.873 158.904)"><path d="M-43.49-21.745A30.163,30.163,0,0,1-73.653,8.417a30.162,30.162,0,0,1-30.162-30.163A30.162,30.162,0,0,1-73.653-51.908,30.163,30.163,0,0,1-43.49-21.745" transform="translate(103.814 51.908)" fill="#00b9f6"/></g><g transform="translate(226.942 173.995)"><path d="M-7.8-6.638-10.2-12.417-12.59-6.638Zm1.1,2.653h-7.008L-15.049-.75h-3.579L-11.9-15.845h3.45L-1.7-.75H-5.366Z" transform="translate(18.628 15.845)" fill="#eef9fe"/></g><g transform="translate(246.027 180.271)"><path d="M-7.447-7.648c0-1.273-.97-1.876-2.781-1.876H-14.3v3.731h4.076c1.811,0,2.781-.561,2.781-1.855M-14.3-15.627v3.558h3.473c1.7,0,2.63-.6,2.63-1.79s-.927-1.768-2.63-1.768ZM-3.932-7.282c0,2.609-2.07,4.119-6.038,4.119h-7.807V-18.257H-10.4c3.774,0,5.715,1.574,5.715,3.924a3.629,3.629,0,0,1-2.005,3.321,3.728,3.728,0,0,1,2.76,3.731" transform="translate(17.776 18.257)" fill="#eef9fe"/></g><g transform="translate(261.579 188.656)"><path d="M0-5.627c0-4.55,3.493-7.806,8.194-7.806A7.794,7.794,0,0,1,14.4-10.76l-2.243,2.07a4.857,4.857,0,0,0-3.795-1.768,4.63,4.63,0,0,0-4.831,4.83A4.63,4.63,0,0,0,8.367-.8a4.81,4.81,0,0,0,3.795-1.79L14.4-.517a7.757,7.757,0,0,1-6.232,2.7C3.493,2.178,0-1.078,0-5.627" transform="translate(0 13.433)" fill="#eef9fe"/></g><g transform="translate(223.429 175.235)"><g opacity="0.33" clip-path="url(#af)"><g transform="translate(0 0)"><path d="M-24.8-13.944C-35.317-8.4-47.835-6.25-59.192-9.891a30.168,30.168,0,0,0,28.605,20.6A30.162,30.162,0,0,0-.424-19.454,30.021,30.021,0,0,0-3.785-33.285,54.908,54.908,0,0,1-24.8-13.944" transform="translate(59.192 33.285)" fill="#00b9f6"/></g></g></g><g transform="translate(497.622 145.24)"><path d="M-17.38-4.2V135.018a4.244,4.244,0,0,1-4.244,4.244h-15.62a4.243,4.243,0,0,1-4.243-4.244V-4.2c0-3.221,1.334-5.831,2.974-5.831h18.18c1.639,0,2.954,2.61,2.954,5.831" transform="translate(41.488 10.035)" fill="#ff7960"/></g><path d="M868.573-403.767h9.95v108.211h-9.95Z" transform="translate(-363.863 556.532)" fill="#fff"/><path d="M861.8-208.5h17.82v16.074H861.8Z" transform="translate(-361.025 474.729)" fill="#493bb6"/><g transform="translate(497.621 145.239)"><g clip-path="url(#ag)"><g transform="translate(0 0)"><path d="M-7.79,0V149.3h-6.562a4.243,4.243,0,0,1-4.243-4.243V5.831C-18.6,2.61-17.262,0-15.622,0Z" transform="translate(18.596)" fill="#c0eaf9"/></g></g></g><g transform="translate(521.729 178.779)"><path d="M-26.576-3.262V103.82a4.15,4.15,0,0,1-4.15,4.15H-59.289a4.15,4.15,0,0,1-4.15-4.15V-3.262a4.524,4.524,0,0,1,4.525-4.525H-31.1a4.524,4.524,0,0,1,4.525,4.525" transform="translate(63.44 7.787)" fill="#00b9f6"/></g><path d="M914.248-348.955h17.82v83.906h-17.82Z" transform="translate(-382.997 533.57)" fill="#fff"/><path d="M914.248-197.544h17.82v12.465h-17.82Z" transform="translate(-382.997 470.14)" fill="#493bb6"/><g transform="translate(521.73 178.779)"><g clip-path="url(#ah)"><g transform="translate(-0.001)"><path d="M-12.381,0V115.757H-25.4a4.15,4.15,0,0,1-4.15-4.15V4.525A4.524,4.524,0,0,1-25.03,0Z" transform="translate(29.555)" fill="#c0eaf9"/></g></g></g><g transform="translate(366.457 317.57)"><g clip-path="url(#ai)"><g transform="translate(0 0)"><path d="M-133.811-6.173c0-4.729-41.549-8.563-92.8-8.563s-92.8,3.834-92.8,8.563,41.549,8.564,92.8,8.564,92.8-3.834,92.8-8.564" transform="translate(319.419 14.736)" fill="#c0eaf9"/></g></g></g><g transform="translate(431.034 215.184)"><path d="M-4.942-33.161C-2.492-23.8-7.525-12.569-11.8-3.88c0,0,23.984,17.144,54.126,1.357L39.863-9.092a40.288,40.288,0,0,1-2.436-22.53l5.1-28.352A13.4,13.4,0,0,0,33.411-75.1L26.584-77.27l-2.131-.675a25.954,25.954,0,0,0-7.84-1.213H13.83A25.959,25.959,0,0,0,1.873-76.239L-4.58-72.892a13.364,13.364,0,0,0-6.773,15.275Z" transform="translate(11.796 79.157)" fill="#00b9f6"/></g><g transform="translate(452.333 203.398)"><path d="M-8.538-12.425v.037A14.849,14.849,0,0,1-8.8-9.835c-.542,3.156-1.912,4.384-3.667,4.813a6.392,6.392,0,0,1-7.759-6.232L-20.38-25.4a4.178,4.178,0,0,1,4.122-4.228l3.349-.037a4.134,4.134,0,0,1,2.883,1.114,4.155,4.155,0,0,1,1.34,3.02Z" transform="translate(20.38 29.66)" fill="#ffb08a"/></g><g transform="translate(454.344 204.45)"><g opacity="0.45" clip-path="url(#aj)"><g transform="translate(0 -0.001)"><path d="M-7.088-11.668c-.156,0-.305,0-.454-.007a10.068,10.068,0,0,1-9.346-10.043l-.031-2.658c-.019-1.873,1.831-3.412,4.133-3.437l3.351-.038a4.908,4.908,0,0,1,.858.063,4.155,4.155,0,0,1,1.34,3.02Z" transform="translate(16.919 27.852)" fill="#ffb08a"/></g></g></g><g transform="translate(441.684 181.801)"><path d="M-23.891-13.251c-.5,2.925-2.6,3.985-4.591,4.686-.026.006-.046.017-.073.023a21.3,21.3,0,0,1-3.476,5.624A11.57,11.57,0,0,1-37.83,1.3c-.067.019-.141.042-.209.06-.136.036-.266.089-.4.12-.094.024-.189.027-.278.046s-.158.022-.236.035c-.184.027-.368.05-.552.06s-.365.008-.549,0l-.238-.007c-.1-.008-.19,0-.285-.012-.139-.017-.276-.049-.415-.076-.069-.009-.143-.021-.213-.035a11.572,11.572,0,0,1-6.248-3.508A21.352,21.352,0,0,1-51.565-7.2c-.069-.014-.143-.033-.212-.051-2.017-.47-4.156-1.3-4.964-4.085-.664-2.274-.215-5.351,1.7-5.627a3.261,3.261,0,0,1,1.894.432,25.185,25.185,0,0,1,4.742-11.083,8.542,8.542,0,0,1,3.4-3.072,6.126,6.126,0,0,1,2.107-.763,13.742,13.742,0,0,1,1.463-.139,13.509,13.509,0,0,1,1.466-.034,6.273,6.273,0,0,1,2.182.516,8.531,8.531,0,0,1,3.733,2.654,25.261,25.261,0,0,1,6,10.458,3.275,3.275,0,0,1,1.831-.648c1.929.056,2.733,3.058,2.337,5.394" transform="translate(57.029 31.631)" fill="#ffb08a"/></g><g transform="translate(439.319 176.982)"><path d="M-26.813-11.459c-2.022-.079-2.681-2.421-3.2-3.992a38.945,38.945,0,0,0-1.914-5.008c-1.426-2.924-3.807-5.657-7.1-6.425a7.3,7.3,0,0,0-2.433-.153,13.4,13.4,0,0,1-2.767.222c-.946-.1-1.859-.4-2.808-.5a9.542,9.542,0,0,0-2.564.108,12.112,12.112,0,0,0-7.921,5.592c-2.047,3.17-2.506,8.039-6.256,9.808a.491.491,0,0,0,.116.89,4.514,4.514,0,0,0,1.637.054c-.931,1.644-1.605,3.525-.633,5.314a3.52,3.52,0,0,0,2.461,1.672,14.1,14.1,0,0,1,2.08.461,3.144,3.144,0,0,1,.635,3.021A.488.488,0,0,0-56.63.1a10.581,10.581,0,0,0,1.883-5.562,2.864,2.864,0,0,0,1.367.632.491.491,0,0,0,.473-.814c-.863-.855-.478-2.265.235-3.089a16.015,16.015,0,0,1,3.039-2.248,12.354,12.354,0,0,0,3.351-3.634A2.887,2.887,0,0,0-46-14.1a2.541,2.541,0,0,0,1.188.934c.6.223,2.159.182,2.042,1.126-.064.518.67.609.908.246a6.078,6.078,0,0,0,.711-1.563,12.4,12.4,0,0,0,2.788,2.733,7.227,7.227,0,0,1,2.276,2.465A2.607,2.607,0,0,1-36.381-5.2a.494.494,0,0,0,.346.831,2.187,2.187,0,0,0,.919-.109,7.249,7.249,0,0,0,.271,2.306c.3,1.2.838,2.789-.066,3.867a.49.49,0,0,0,.591.765c2.4-1.27,2.2-4.266,2.721-6.541a4.912,4.912,0,0,1,.753-1.832,11.138,11.138,0,0,1,1.6-1.343,1.884,1.884,0,0,0,.528-1.822,4.99,4.99,0,0,0,2.248-1.545.494.494,0,0,0-.344-.832" transform="translate(64.005 27.354)" fill="#4f3132"/></g><g transform="translate(451.622 195.001)"><path d="M-.082-1.891l-.006,0A.345.345,0,0,0-.2-1.912,4.092,4.092,0,0,1,2.788-4.476a1.2,1.2,0,0,1,.642.01.519.519,0,0,1,.365.483c-.015.239-.239.41-.453.518a6.32,6.32,0,0,1-1.426.433,4.358,4.358,0,0,0-1.4.511,1.885,1.885,0,0,0-.6.629" transform="translate(0.196 4.515)" fill="#4f3132"/></g><g transform="translate(462.095 194.617)"><path d="M-.252-.043A1.221,1.221,0,0,1,.389-.076,4.08,4.08,0,0,1,3.525,2.561a2.013,2.013,0,0,0-.44-.5c-.011-.009-.022-.012-.033-.02A2.033,2.033,0,0,0,2.726,1.8a4.333,4.333,0,0,0-1.412-.459A6.357,6.357,0,0,1-.128.954C-.346.854-.575.692-.6.454a.52.52,0,0,1,.347-.5" transform="translate(0.6 0.103)" fill="#4f3132"/></g><g transform="translate(458.652 200.374)"><g opacity="0.45" clip-path="url(#ak)"><g transform="translate(0 0)"><path d="M-.308-2.97A2.643,2.643,0,0,0,1-3.043a2.177,2.177,0,0,0,.587-.284c.03-.021.1-.07.112-.109-.011.034-.01,0-.012-.018A1.309,1.309,0,0,0,1.541-3.8,17.757,17.757,0,0,0,.09-6.455.4.4,0,0,1,.141-7a.393.393,0,0,1,.549.053c.353.53.683,1.074.982,1.636.142.265.277.535.4.808a4.781,4.781,0,0,1,.369.884c.158.671-.52,1.067-1.054,1.264a3.368,3.368,0,0,1-1.773.164A.4.4,0,0,1-.733-2.62a.393.393,0,0,1,.425-.35" transform="translate(0.735 7.09)" fill="#ffb08a"/></g></g></g><g transform="translate(453.687 198.419)"><path d="M0-.966C.042-.247.477.318.971.3s.857-.619.813-1.339S1.3-2.325.81-2.306-.048-1.686,0-.966" transform="translate(0.006 2.306)" fill="#4f3132"/></g><g transform="translate(462.572 198.419)"><path d="M0-.966C.042-.247.478.318.971.3s.857-.619.813-1.339S1.3-2.325.811-2.306-.047-1.686,0-.966" transform="translate(0.006 2.306)" fill="#4f3132"/></g><g transform="translate(454.973 205.466)"><g opacity="0.45" clip-path="url(#al)"><g transform="translate(0 0)"><path d="M-4.693-1.587a7.555,7.555,0,0,1-3.629-.063,3.3,3.3,0,0,1-2.1-1.881c-.177-.475-.93-.232-.751.246A4.046,4.046,0,0,0-8.759-.973a7.841,7.841,0,0,0,4.1.176.409.409,0,0,0,.376-.415.4.4,0,0,0-.414-.375" transform="translate(11.202 3.788)" fill="#ffb08a"/></g></g></g><g transform="translate(479.7 220.801)"><path d="M-.06,0A12.8,12.8,0,0,1,5.73,3.551c2.63,2.679,26.142,44.2,26.142,44.2.841,4.982-16.445,7.79-16.445,7.79L-.144,29.523Z" transform="translate(0.144)" fill="#00b9f6"/></g><g transform="translate(407.421 220.801)"><path d="M-23.042,0a12.8,12.8,0,0,0-5.79,3.551c-2.63,2.679-26.142,44.2-26.142,44.2-.841,4.982,16.445,7.79,16.445,7.79l15.571-26.019Z" transform="translate(55.004)" fill="#00b9f6"/></g><g transform="translate(409.733 234.221)"><g clip-path="url(#am)"><g transform="translate(25.383 0.537)"><path d="M-.707-.176c.044-.327-.471-.324-.514,0C-2.429,8.913-1.158,17.187,1.025,26a.258.258,0,0,0,.5-.137C-.636,17.154-1.9,8.776-.707-.176" transform="translate(1.689 0.42)" fill="#00b9f6"/></g><g transform="translate(69.198 0)"><path d="M-2.744-.179c-.016-.33-.531-.332-.515,0C-2.746,10.49-4.568,20.9-6.545,31.347c-.061.324.435.463.5.136C-4.064,21-2.229,10.534-2.744-.179" transform="translate(6.55 0.428)" fill="#00b9f6"/></g><g transform="translate(86.967 35.259)"><path d="M-8.98-.021c-3.653,1.832-8.042,4.1-12.208,4.251-.33.012-.332.527,0,.514C-16.909,4.592-12.5,2.318-8.721.422c.3-.148.036-.592-.26-.444" transform="translate(21.436 0.051)" fill="#00b9f6"/></g><g transform="translate(88.796 34.071)"><path d="M-6.445-.045A17.856,17.856,0,0,1-15.2,3.8c-.327.048-.188.545.137.5A18.344,18.344,0,0,0-6.081.319c.257-.21-.109-.573-.364-.364" transform="translate(15.385 0.107)" fill="#00b9f6"/></g><g transform="translate(0 34.263)"><path d="M-9.387-3.511A20.788,20.788,0,0,1-21.958-8.319c-.253-.209-.62.153-.363.365A21.389,21.389,0,0,0-9.387-3c.332.014.331-.5,0-.515" transform="translate(22.409 8.381)" fill="#00b9f6"/></g><g transform="translate(33.152 57.765)"><path d="M-25.123-.469A52.557,52.557,0,0,1-59.658-1.1c-.312-.114-.446.384-.137.5A52.976,52.976,0,0,0-24.987.028c.314-.1.18-.6-.136-.5" transform="translate(59.971 1.12)" fill="#00b9f6"/></g><g transform="translate(38.803 56.156)"><path d="M-21.447-.764A89.563,89.563,0,0,1-50.873-1.818c-.324-.065-.463.43-.137.5A90.148,90.148,0,0,0-21.447-.249c.324-.042.329-.557,0-.514" transform="translate(51.195 1.823)" fill="#00b9f6"/></g></g></g><g transform="translate(415.027 290.346)"><path d="M-50.561-1.061h16.607L-60.592,22.181l-25.664,1.855L-120.693-1.918l19.7-.615Z" transform="translate(120.693 2.533)" fill="#493bb6"/></g><g transform="translate(415.027 290.346)"><g transform="translate(0 0)"><g clip-path="url(#an)"><g transform="translate(0 0)"><path d="M-50.561-1.061h16.607L-60.592,22.181l-25.664,1.855L-120.693-1.918l19.7-.615Z" transform="translate(120.693 2.533)" fill="#493bb6"/></g></g></g></g><g transform="translate(462.202 267.115)"><path d="M-1.006-16.027l-1.342-6.925A3.09,3.09,0,0,1-.6-26.333l1.477-.676a4.818,4.818,0,0,1,4.959.587l5.215,4.061a2.512,2.512,0,0,0,2.835.2l.291-.17,4.129-2.4S40.651-43.5,47.112-36.821a8.076,8.076,0,0,1-4.7,12.278L21.87-19.216l-5.519,1.433-3.634.949a4.249,4.249,0,0,1-2.244-.057L3-19.219a.867.867,0,0,0-1.117.684L1.029-15.9a1.054,1.054,0,0,1-2.035-.125" transform="translate(2.401 38.259)" fill="#ffb08a"/></g><g transform="translate(406.1 267.115)"><path d="M-35.664-16.027l1.343-6.925a3.092,3.092,0,0,0-1.749-3.38l-1.477-.676a4.818,4.818,0,0,0-4.959.587L-47.72-22.36a2.513,2.513,0,0,1-2.836.2l-.291-.17-4.129-2.4S-77.321-43.5-83.782-36.821a8.076,8.076,0,0,0,4.7,12.278l20.544,5.327,5.519,1.433,3.633.949a4.249,4.249,0,0,0,2.244-.057l7.475-2.328a.867.867,0,0,1,1.117.684L-37.7-15.9a1.054,1.054,0,0,0,2.035-.125" transform="translate(85.133 38.259)" fill="#ffb08a"/></g><g transform="translate(427.089 257.682)"><path d="M-42.194-29.067H-96.632a4.089,4.089,0,0,1-4.089-4.089V-65.3a4.089,4.089,0,0,1,4.089-4.089h54.438A4.089,4.089,0,0,1-38.1-65.3v32.141a4.089,4.089,0,0,1-4.089,4.089" transform="translate(100.721 69.387)" fill="#fff"/></g><g transform="translate(424.514 298.002)"><path d="M-47.726,0h-64.634a1.566,1.566,0,0,0-1.566,1.566,1.566,1.566,0,0,0,1.566,1.567h64.634A1.566,1.566,0,0,0-46.16,1.566,1.566,1.566,0,0,0-47.726,0" transform="translate(113.925 0)" fill="#c0eaf9"/></g><g transform="translate(424.514 298.002)"><g transform="translate(0 0)"><g clip-path="url(#ao)"><g transform="translate(0 0)"><path d="M-47.726,0h-64.634a1.566,1.566,0,0,0-1.566,1.566,1.566,1.566,0,0,0,1.566,1.567h64.634A1.566,1.566,0,0,0-46.16,1.566,1.566,1.566,0,0,0-47.726,0" transform="translate(113.925 0)" fill="#c0eaf9"/></g></g></g></g><g transform="translate(453.319 273.201)"><g transform="translate(0 0)"><g clip-path="url(#ap)"><g transform="translate(0 0)"><path d="M-7.866-3.933a5.455,5.455,0,0,1-5.455,5.455,5.455,5.455,0,0,1-5.455-5.455,5.455,5.455,0,0,1,5.455-5.455A5.455,5.455,0,0,1-7.866-3.933" transform="translate(18.776 9.388)" fill="#c0eaf9"/></g></g></g></g><g transform="translate(403.39 290.949)"><path d="M-.213-10.369A11.788,11.788,0,0,0,8.838-1.463,11.106,11.106,0,0,0,10-1.279a315.969,315.969,0,0,0,49.562,9c4.873.536,9.85.982,14.906,1.361L83.209,17.2c.078.066.157.144.249.209,3.929,3.092,9.588-.484,8.736-5.409l-.511-2.908c0-.026-.012-.04-.012-.053A8.6,8.6,0,0,0,85.083,3.62l-9.038-1.65C71.683.593,67.387-.8,63.208-2.2c-18.192-6.1-34.4-12.6-46.9-21.415a11.755,11.755,0,0,0-7.636-.851A11.783,11.783,0,0,0-.213-10.369" transform="translate(0.507 24.751)" fill="#493bb6"/></g><g transform="translate(463.464 313.504)"><path d="M0-7.148c4.873.536,9.85.982,14.906,1.362l8.737,8.12c.078.066.157.145.249.21,3.929,3.091,9.588-.484,8.736-5.409l-.511-2.908c0-.026-.012-.039-.012-.053a8.6,8.6,0,0,0-6.588-5.423L16.478-12.9c-4.361-1.375-8.657-2.764-12.836-4.165Z" transform="translate(0 17.064)" fill="#4f3132"/></g><g transform="translate(423.01 290.187)"><path d="M-6.36-30.418c.092-.079.17-.145.249-.21l8.855-8.238c4.518-.472,8.986-.957,13.36-1.467,19.489-2.252,37.25-4.938,50.336-8.815.393-.039.772-.1,1.165-.183a11.737,11.737,0,0,0,9.038-8.906,11.763,11.763,0,0,0-8.867-14.081,11.681,11.681,0,0,0-7.636.851C46.727-62.8,30.826-55.789,13.274-49.921,8.86-48.428,4.342-47.027-.27-45.677l.013.052L-8-44.21A8.613,8.613,0,0,0-14.573-38.8c0,.026-.013.04-.013.066l-.511,2.908c-.851,4.924,4.807,8.488,8.736,5.409" transform="translate(15.183 72.61)" fill="#493bb6"/></g><g transform="translate(423.01 312.876)"><path d="M-6.36-14.061c.092-.079.17-.145.249-.21l8.855-8.238c4.518-.472,8.986-.957,13.36-1.467-.707-2.423-1.873-6.339-2.829-9.588C8.86-32.071,4.342-30.669-.27-29.32l.013.052L-8-27.853a8.613,8.613,0,0,0-6.575,5.409c0,.026-.013.04-.013.066L-15.1-19.47c-.851,4.924,4.807,8.488,8.736,5.409" transform="translate(15.183 33.564)" fill="#4f3132"/></g><g transform="translate(433.989 299.884)"><g transform="translate(0 0)"><g clip-path="url(#aq)"><g transform="translate(0 0)"><path d="M-35.09-.663c-7.835,3.02-15.777,5.908-23.56,9.09a.224.224,0,0,0-.129-.1,99.973,99.973,0,0,1-24.6-9.87.258.258,0,0,0-.26.445A99.748,99.748,0,0,0-59.319,8.706c-2.3.948-4.6,1.919-6.866,2.933-.3.135-.041.579.26.444,5-2.233,10.154-3.826,15.146-6.059,5.158-2.307,10.554-4.158,15.827-6.19.305-.119.172-.617-.137-.5" transform="translate(83.762 1.583)" fill="#493bb6"/></g></g></g></g><g transform="translate(454.041 316.921)"><g transform="translate(0 0)"><g clip-path="url(#ar)"><g transform="translate(0 0)"><path d="M-23.939,0C-34.881,2.268-45.684,4.7-56.9,5.093c-.331.012-.332.527,0,.514C-45.627,5.209-34.8,2.777-23.8.492c.324-.067.187-.564-.137-.5" transform="translate(57.145 0.011)" fill="#493bb6"/></g></g></g></g><g transform="translate(445.672 215.051)"><path d="M-4.8,0C-6.887-.116-8.811,1.33-11.464,2.563c0,0,1.242,10.309,5.164,16.6l7.317-6.324L7.23,19.159s6.658-8.32,6.015-16.842L6.976-.011C6.969,2.349,5.425,5.1,3.065,5.112L.028,5.127A4.3,4.3,0,0,1-4.286.711Z" transform="translate(11.464 0.011)" fill="#fff"/></g><g transform="translate(469.284 147.721)"><path d="M-9.917-16.591a11.619,11.619,0,0,1-13.552-9.272,12.235,12.235,0,0,1-.2-1.781A11.62,11.62,0,0,1-14.194-39.4,11.6,11.6,0,0,1-.867-31.067c.082.307.152.614.21.926a11.606,11.606,0,0,1-9.26,13.55" transform="translate(23.672 39.605)" fill="#ffb08a"/></g><g transform="translate(474.396 155.852)"><path d="M-1.443-7.073l5.869-4.05a1.218,1.218,0,0,0,.122-1.715,1.252,1.252,0,0,0-1.715-.123L-.6-10.593c.218-1.667.475-3.33.818-4.977A1.219,1.219,0,0,0-.89-16.883,1.252,1.252,0,0,0-2.2-15.773,66.536,66.536,0,0,0-3.29-8.607a1.264,1.264,0,0,0,.132,1.412,1.252,1.252,0,0,0,1.715.122" transform="translate(3.445 16.885)" fill="#fff"/></g><g transform="translate(464.446 162.443)"><path d="M-3.535-9.465a4.076,4.076,0,0,1-1.273-.094,4.878,4.878,0,0,1-3.62-4.453c-.187-2.91,2.107-5.654,4.013-7.6a5.652,5.652,0,0,1,1.264-.979A11.583,11.583,0,0,0,4-14.955a4.768,4.768,0,0,1-.773.934A35.867,35.867,0,0,1-.228-10.837,6.738,6.738,0,0,1-3.535-9.465" transform="translate(8.438 22.595)" fill="#493bb6"/></g><g transform="translate(469.29 156.26)"><g clip-path="url(#as)"><g transform="translate(0 -0.001)"><path d="M-9.913-10.436a11.619,11.619,0,0,1-13.552-9.272,12.234,12.234,0,0,1-.2-1.781C-12.673-13.877-5-19.657-.863-24.912c.082.307.152.614.21.926a11.606,11.606,0,0,1-9.26,13.55" transform="translate(23.663 24.912)" fill="#ffb08a"/></g></g></g><g transform="translate(456.289 138.371)"><path d="M-10.55-7.435-17-12.457a1.031,1.031,0,0,0-.3-.352l-6.215-4.72a1.037,1.037,0,0,0-1.272,1.636L-11.822-5.8A1.037,1.037,0,0,0-10.55-7.435" transform="translate(25.184 17.748)" fill="#ffb08a"/></g><g transform="translate(489.676 168.212)"><path d="M-10.55-7.435-17-12.457a1.031,1.031,0,0,0-.3-.352l-6.215-4.72a1.037,1.037,0,0,0-1.272,1.636L-11.822-5.8A1.037,1.037,0,0,0-10.55-7.435" transform="translate(25.184 17.748)" fill="#ffb08a"/></g><g transform="translate(449.437 152.635)"><path d="M-12.559-1.636l-8.1-1.124a1.027,1.027,0,0,0-.435-.154L-28.835-3.9a1.037,1.037,0,0,0-.282,2.053L-12.842.417a1.037,1.037,0,0,0,.283-2.053" transform="translate(29.98 3.905)" fill="#ffb08a"/></g><g transform="translate(493.272 161.785)"><path d="M-12.559-1.635l-8.1-1.123a1.017,1.017,0,0,0-.435-.155l-7.744-.98a1.037,1.037,0,0,0-.282,2.053L-12.842.418a1.037,1.037,0,0,0,.283-2.053" transform="translate(29.98 3.904)" fill="#ffb08a"/></g><g transform="translate(493.139 148.246)"><path d="M-11.424-.06-19,3.016a1.027,1.027,0,0,0-.454.083l-7.2,3.023a1.037,1.037,0,0,0,.782,1.919L-10.642,1.86a1.037,1.037,0,0,0-.782-1.92" transform="translate(27.269 0.143)" fill="#ffb08a"/></g><g transform="translate(489.331 135.171)"><path d="M-7.435-.285l-5.021,6.45a1.02,1.02,0,0,0-.353.3l-4.72,6.215a1.037,1.037,0,0,0,1.637,1.271L-5.8.987A1.037,1.037,0,0,0-7.435-.285" transform="translate(17.748 0.681)" fill="#ffb08a"/></g><g transform="translate(482.904 128.321)"><path d="M-1.635-.622q-.561,4.048-1.123,8.1a1.024,1.024,0,0,0-.155.435q-.489,3.872-.98,7.743a1.037,1.037,0,0,0,2.053.283L.419-.339A1.037,1.037,0,0,0-1.635-.622" transform="translate(3.904 1.484)" fill="#ffb08a"/></g><g transform="translate(483.359 172.021)"><path d="M-.06-1.014Q1.478,2.773,3.016,6.559a1.025,1.025,0,0,0,.083.454q1.512,3.6,3.023,7.2a1.037,1.037,0,0,0,1.919-.781L1.861-1.8A1.038,1.038,0,0,0-.06-1.014" transform="translate(0.143 2.421)" fill="#ffb08a"/></g><g transform="translate(469.365 129.485)"><path d="M-.06-1.014,3.016,6.56a1.024,1.024,0,0,0,.083.453q1.512,3.6,3.023,7.2a1.037,1.037,0,0,0,1.919-.781L1.861-1.8A1.037,1.037,0,0,0-.06-1.014" transform="translate(0.143 2.42)" fill="#ffb08a"/></g><g transform="translate(20.041 324.963)"><g transform="translate(0 0)"><g clip-path="url(#at)"><g transform="translate(0.001 0)"><path d="M-133.811-6.174c0-4.729-41.55-8.564-92.8-8.564s-92.8,3.834-92.8,8.564,41.549,8.563,92.8,8.563,92.8-3.834,92.8-8.563" transform="translate(319.419 14.737)" fill="#c0eaf9"/></g></g></g></g><g transform="translate(51.909 281.278)"><path d="M-2.306,0H123.626a2.47,2.47,0,0,1,2.47,2.47V23.851a2.47,2.47,0,0,1-2.47,2.47H-2.306a3.447,3.447,0,0,1-3.2-3.651V3.641A3.438,3.438,0,0,1-2.306,0" transform="translate(5.505)" fill="#493bb6"/></g><path d="M106.338-157.25H99.856V-176.7h6.483Z" transform="translate(-41.832 461.409)" fill="#ff7960"/><path d="M210.463-158.189H117.394v-12.724h93.069Z" transform="translate(-49.179 458.984)" fill="#fff"/><path d="M295.642-158.189H281.817v-12.724h13.825Z" transform="translate(-118.059 458.984)" fill="#ff7960"/><g transform="translate(51.91 295.333)"><g transform="translate(0 0)"><g clip-path="url(#au)"><g transform="translate(0 0)"><path d="M0,0H131.6V9.8a2.469,2.469,0,0,1-2.469,2.469H3.2A2.98,2.98,0,0,1,0,9.569Z" transform="translate(0)" fill="#c0eaf9"/></g></g></g></g><g transform="translate(42.18 328.509)"><path d="M-101.89-2.075h0A2.878,2.878,0,0,1-104.768.8H-240.342a2.878,2.878,0,0,1-2.878-2.878,2.878,2.878,0,0,1,2.878-2.878h135.574a2.878,2.878,0,0,1,2.878,2.878" transform="translate(243.221 4.953)" fill="#ff7960"/></g><g transform="translate(42.18 307.738)"><path d="M-101.89-2.075h0A2.878,2.878,0,0,1-104.768.8H-240.342a2.878,2.878,0,0,1-2.878-2.877,2.878,2.878,0,0,1,2.878-2.878h135.574a2.878,2.878,0,0,1,2.878,2.878" transform="translate(243.221 4.953)" fill="#ff7960"/></g><g transform="translate(46.407 312.125)"><path d="M0-13.259H135.3V-31.651H0c1.47,6.327,1.914,12.516,0,18.392" transform="translate(0 31.651)" fill="#fff"/></g><g transform="translate(51.231 325.177)"><path d="M-.333-.689H82.274a.478.478,0,0,0,0-.955H-.333a.478.478,0,0,0,0,.955" transform="translate(0.794 1.644)" fill="#c0eaf9"/></g><g transform="translate(56.65 315.505)"><path d="M-.333-.689H102.251a.478.478,0,0,0,0-.955H-.333a.478.478,0,0,0,0,.955" transform="translate(0.794 1.644)" fill="#c0eaf9"/></g><g transform="translate(98.797 320.421)"><path d="M-.333-.689h74.2a.478.478,0,0,0,0-.955H-.333a.478.478,0,0,0,0,.955" transform="translate(0.795 1.644)" fill="#c0eaf9"/></g><g transform="translate(56.445 260.912)"><path d="M-58.811-12.655s.6,2.847-1.244,4.535c-.99.914-2.706,1.489-5.628,1.075l-17.9-2.083c-.528-.056-1.065-.1-1.6-.122-.452-.019-.924-.019-1.376,0h-.028a19.367,19.367,0,0,0-3.205.358c-22.616,4.4-38.68,4.45-47.455-4.28a10.4,10.4,0,0,1-2.875-4.892c-.961-3.922.038-10.276,15.526-11.859a56.223,56.223,0,0,1,8.636-.208l11.2.518a33.495,33.495,0,0,1,4.845.576l-.452.584.273.415a7.834,7.834,0,0,0-8.522.848,3.985,3.985,0,0,0-1.3,3,97,97,0,0,1,14.989,3.159c2.527.782,5.3,1.735,8.344,2.866q2.375.876,4.976,1.914a17.77,17.77,0,0,0,4.044.462,18.274,18.274,0,0,0,4.337-.528,35.274,35.274,0,0,1,5.486-.924c3.667-.3,7.561.113,9.889,2.545,0,0,.829,1.3-.952,2.045" transform="translate(140.388 30.208)" fill="#4f3132"/></g><g transform="translate(56.444 260.912)"><path d="M-38.783-8.68V.238A19.3,19.3,0,0,0-41.988.6C-64.6,5-80.668,5.046-89.444-3.684a10.41,10.41,0,0,1-2.875-4.892c-.961-3.922.038-10.276,15.526-11.859a56.125,56.125,0,0,1,8.636-.207l11.2.518a33.385,33.385,0,0,1,4.845.575l-.452.585.273.415a7.836,7.836,0,0,0-8.522.848,3.986,3.986,0,0,0-1.3,3,96.9,96.9,0,0,1,14.988,3.158c2.527.783,5.3,1.735,8.344,2.866" transform="translate(92.579 20.719)" fill="#ffc3a6"/></g><g transform="translate(86.908 260.197)"><path d="M-56.1-13.674c-5.647,4.062-18.26,4.336-27.951,3.836,1.848-1.687,1.244-4.534,1.244-4.534,1.781-.745.952-2.045.952-2.045-1.735-1.81-4.346-2.507-7.08-2.612a23.3,23.3,0,0,0-2.809.067,35.294,35.294,0,0,0-5.486.924,17.992,17.992,0,0,1-8.381.066c-5.053-2.017-9.474-3.583-13.321-4.78a97.02,97.02,0,0,0-14.988-3.158,3.983,3.983,0,0,1,1.3-3,7.836,7.836,0,0,1,8.522-.848,8.262,8.262,0,0,1,1.462.848,13.471,13.471,0,0,0,4.477,2.433c1.641.423,3.252-.264,4.921-.208a9.068,9.068,0,0,1,6.023,2.828s5.807,2.716,13.782-.839l4.5-1.658,2.31-.849L-84.27-31c-.377-.387-.745-.793-1.094-1.2,7.57-.651,31.081-2.055,33.607,8.663,0,0,1.5,5.666-4.346,9.861" transform="translate(133.921 32.64)" fill="#4f3132"/></g><g transform="translate(131.893 260.197)"><path d="M-23.671-13.674c-5.647,4.062-18.26,4.336-27.951,3.836,1.848-1.687,1.244-4.534,1.244-4.534,1.781-.745.952-2.045.952-2.045-1.735-1.81-4.346-2.507-7.08-2.612v-7.324l2.31-.849,2.356-3.8c-.377-.387-.745-.793-1.094-1.2,7.57-.651,31.081-2.055,33.607,8.663,0,0,1.5,5.666-4.346,9.861" transform="translate(56.505 32.64)" fill="#ffc3a6"/></g><g transform="translate(133.634 264.304)"><g transform="translate(0 0)"><g clip-path="url(#av)"><g clip-path="url(#av)"><g transform="translate(0 0)"><path d="M-15.923-3.518a.355.355,0,0,1-.3-.16c-4.547-6.895-21.177-2.742-21.343-2.7A.357.357,0,0,1-38-6.635a.357.357,0,0,1,.257-.435c.7-.18,17.292-4.319,22.116,3a.358.358,0,0,1-.1.5.356.356,0,0,1-.2.059" transform="translate(38.01 8.399)" fill="#ffc3a6"/></g></g></g></g></g><g transform="translate(96.459 254.105)"><path d="M-28.914-5.573l-2.358,3.8-.214.343C-34.643-.6-38.079.735-38.079.735c-7.979,3.557-13.788.842-13.788.842C-55.1-1.651-58.4-1.508-60.4-.95a6.911,6.911,0,0,1-4.751-.486c-1.443-.9-2.05-2.172-3.6-2.887l-.272-.421.45-.586.807-1.05a30.177,30.177,0,0,0,3.73-6.315A47.879,47.879,0,0,0-34.279-13.3a28.214,28.214,0,0,0,4.265,6.537c.35.407.722.807,1.1,1.193" transform="translate(69.02 13.303)" fill="#4b829d"/></g><g transform="translate(100.608 258.628)"><path d="M0-.27A2.69,2.69,0,0,1,.147-.645Z" transform="translate(0 0.645)" fill="#1e195c"/></g><g transform="translate(129.029 197.068)"><path d="M0,0S7.391,1.987,9.8,4.445C12.014,6.7,31.771,41.587,31.771,41.587c.707,4.186-13.818,6.547-13.818,6.547L4.868,26.269Z" fill="#ff7960"/></g><g transform="translate(73.161 198.529)"><path d="M-19.363,0a10.748,10.748,0,0,0-4.865,2.984C-26.439,5.235-46.2,40.125-46.2,40.125c-.707,4.186,13.818,6.547,13.818,6.547l13.085-21.864Z" transform="translate(46.22)" fill="#ff7960"/></g><g transform="translate(75.104 238.435)"><g clip-path="url(#ax)"><g transform="translate(73.079 0.999)"><path d="M-7.546-.018C-10.615,1.521-14.3,3.429-17.8,3.554c-.278.01-.28.443,0,.433,3.594-.128,7.3-2.039,10.476-3.632.249-.125.03-.5-.218-.373" transform="translate(18.012 0.043)" fill="#ff7960"/></g><g transform="translate(74.615 0)"><path d="M-5.416-.038a15.017,15.017,0,0,1-7.356,3.23c-.275.041-.158.458.115.417A15.412,15.412,0,0,0-5.11.269c.216-.177-.092-.481-.306-.307" transform="translate(12.929 0.09)" fill="#ff7960"/></g><g transform="translate(0 0.162)"><path d="M-7.889-2.95A17.471,17.471,0,0,1-18.452-6.989c-.213-.176-.521.128-.305.306A17.977,17.977,0,0,0-7.889-2.517c.278.012.277-.421,0-.433" transform="translate(18.831 7.042)" fill="#ff7960"/></g></g></g><g transform="translate(119.193 237.446)"><path d="M-.846-13.468l-1.128-5.819A2.6,2.6,0,0,1-.5-22.127L.737-22.7A4.049,4.049,0,0,1,4.9-22.2L9.285-18.79a2.112,2.112,0,0,0,2.383.166l.244-.143,3.469-2.018S34.159-36.554,39.588-30.94A6.786,6.786,0,0,1,35.64-20.624L18.377-16.148,13.74-14.942l-3.053.8A3.554,3.554,0,0,1,8.8-14.194L2.519-16.149a.728.728,0,0,0-.939.575L.864-13.362a.885.885,0,0,1-1.71-.105" transform="translate(2.018 32.149)" fill="#ffc3a6"/></g><g transform="translate(72.051 237.446)"><path d="M-29.969-13.468l1.127-5.819a2.6,2.6,0,0,0-1.469-2.841l-1.241-.568a4.048,4.048,0,0,0-4.167.494L-40.1-18.79a2.112,2.112,0,0,1-2.383.166l-.244-.143L-46.2-20.785S-64.974-36.554-70.4-30.94a6.786,6.786,0,0,0,3.947,10.317l17.263,4.476,4.639,1.206,3.053.8a3.557,3.557,0,0,0,1.886-.048l6.281-1.956a.728.728,0,0,1,.939.575l.716,2.212a.886.886,0,0,0,1.711-.105" transform="translate(71.538 32.149)" fill="#ffc3a6"/></g><g transform="translate(96.459 194.584)"><path d="M-28.121-47.623a28.214,28.214,0,0,1-4.265-6.537,27.679,27.679,0,0,1-2.628-11.751,27.357,27.357,0,0,1,.785-6.509c.036-.142.072-.285.108-.414a4.093,4.093,0,0,1,1.658-2.308c7.05-4.958,4.371-14.9,4.371-14.9l-2.957-20.031-3.508-1.123-2.422-.771a7.463,7.463,0,0,1-1.233-.448,12.16,12.16,0,0,0-5.482-1.261q-.576.017-1.153.036c-1.987.07-3.968.2-5.949.366-.975.083-1.949.188-2.925.273a11.369,11.369,0,0,0-3.214.765,7.288,7.288,0,0,1-.8.267l-.942.3-4.979,1.594-2.965,20.031s-2.671,9.944,4.372,14.9a4.112,4.112,0,0,1,1.665,2.308c.036.129.064.257.1.4a29.513,29.513,0,0,1-1.65,18.881,30.177,30.177,0,0,1-3.73,6.315l-.807,1.051-.45.585.272.421c1.55.715,2.158,1.987,3.6,2.887a6.911,6.911,0,0,0,4.751.486c2-.558,5.293-.7,8.529,2.529,0,0,5.808,2.714,13.788-.843,0,0,3.436-1.336,6.594-2.165l.214-.343,2.358-3.8c-.378-.386-.75-.786-1.1-1.193" transform="translate(67.127 113.68)" fill="#ff7960"/></g><g transform="translate(102.86 229.568)"><g clip-path="url(#ay)"><g transform="translate(0 0)"><path d="M-7.049-.06a10.5,10.5,0,0,1-9.448,3.3c-.332-.057-.474.45-.14.507A11.038,11.038,0,0,0-6.678.312c.226-.251-.144-.624-.372-.372" transform="translate(16.828 0.144)" fill="#ff7960"/></g></g></g><g transform="translate(118.459 229.568)"><g clip-path="url(#az)"><g transform="translate(0 0)"><path d="M-.318-.06a10.506,10.506,0,0,0,9.448,3.3c.332-.057.474.45.14.507A11.038,11.038,0,0,1-.69.312C-.916.06-.545-.312-.318-.06" transform="translate(0.76 0.144)" fill="#ff7960"/></g></g></g><g transform="translate(96.143 207.016)"><g clip-path="url(#ba)"><g transform="translate(0.001 0)"><path d="M-1.467-.245A102.638,102.638,0,0,0-3.5,15.965c-.028.607.915.605.942,0A101.183,101.183,0,0,1-.558.007c.123-.592-.786-.846-.909-.251" transform="translate(3.501 0.584)" fill="#ff7960"/></g></g></g><g transform="translate(133.611 207.016)"><g clip-path="url(#bb)"><g transform="translate(0 0)"><path d="M-.663-.245a102.73,102.73,0,0,1,2.035,16.21c.027.607-.916.605-.943,0a101.092,101.092,0,0,0-2-15.959c-.122-.592.786-.846.909-.251" transform="translate(1.583 0.584)" fill="#ff7960"/></g></g></g><g transform="translate(110.942 189.785)"><path d="M-5.928-9.561h0a4.1,4.1,0,0,1-7.7-1.354l-.052-.4a11.346,11.346,0,0,1-.443-4.087l.1-1.447v-.247l.065-4.68,9.655-1.05-.14,3.866c-.026.7-.059,1.431-.126,2.141-.007.168-.01.961-.011,1.849a4.5,4.5,0,0,1-.026.6A11.356,11.356,0,0,1-5.928-9.561" transform="translate(14.15 22.824)" fill="#ffc3a6"/></g><g transform="translate(111.125 189.785)"><g clip-path="url(#bc)"><g transform="translate(0 0)"><path d="M-6.477-6.135a11.447,11.447,0,0,1-4.391-.305l-.053-.014a6.324,6.324,0,0,1-4.539-6.24l.013-.9,9.656-1.05-.141,3.866c-.026.7-.059,1.431-.126,2.141-.008.179-.011,1.07-.011,2.029l-.408.473" transform="translate(15.462 14.645)" fill="#ffc3a6"/></g></g></g><g transform="translate(98.563 160.459)"><path d="M-1.609-9.5A3.18,3.18,0,0,1,.2-8.928,24.647,24.647,0,0,1,5.68-19.34a8.351,8.351,0,0,1,3.548-2.719,6.017,6.017,0,0,1,2.112-.58,14.273,14.273,0,0,1,1.431-.02,14.173,14.173,0,0,1,1.427.084,6,6,0,0,1,2.085.673,8.359,8.359,0,0,1,3.424,2.873A24.653,24.653,0,0,1,24.72-8.384a3.186,3.186,0,0,1,1.832-.488c1.871.2,2.417,3.189,1.852,5.429C27.687-.6,25.511.244,23.5.77a20.83,20.83,0,0,1-3.823,5.2A11.287,11.287,0,0,1,13.7,9.614c-.068.016-.136.029-.2.044-.135.026-.266.064-.4.085-.091.015-.184.012-.277.021s-.155.012-.232.018c-.178.011-.358.019-.537.013s-.358-.018-.537-.036c-.077-.009-.154-.017-.231-.029-.092-.013-.185-.015-.276-.033-.136-.027-.265-.071-.4-.1-.067-.017-.135-.033-.2-.053A11.275,11.275,0,0,1,4.6,5.638,20.838,20.838,0,0,1,1.013.271C-.973-.341-3.109-1.283-3.7-4.153c-.466-2.264.212-5.222,2.09-5.343" transform="translate(3.842 22.668)" fill="#ffc3a6"/></g><g transform="translate(99.192 154.488)"><path d="M-21.228-5.613a2.892,2.892,0,0,0,1.852-1.876.477.477,0,0,0-.693-.532c-1.3.682-2.664-.732-3.7-1.34a3.432,3.432,0,0,0-2.814-.526,6.943,6.943,0,0,0-4.727-3.294,9.254,9.254,0,0,0-3.447.212c-1.259.252-2.626.466-3.73-.353-.334-.248-.807.163-.692.532a5.224,5.224,0,0,0,.73,1.459,10.157,10.157,0,0,0-7.869,3.939,10.673,10.673,0,0,0-1.975,4.576c-.324,1.71-.524,3.8-2.169,4.8-.438.264-.147,1.072.363.861l.827-.341a12.382,12.382,0,0,0-1.285,7.4c.358,2.585,1.664,5.889,4.614,6.263.429.055.59-.538.334-.8-1.985-2.068.4-5.336.839-7.557a12.675,12.675,0,0,0,.227-2.313,7.678,7.678,0,0,0,2.423-1.132,11.533,11.533,0,0,0,2.155-2.028c1.329-1.876,2.586-4.372,5.239-3.987a7,7,0,0,1,5.107,4.374A14.264,14.264,0,0,1-27.366,6.4a8.542,8.542,0,0,1,.631,3.731c-.064.943-.077,2.053.821,2.521A2.437,2.437,0,0,1-27.67,15.2c-.416.114-.483.84,0,.909a4.7,4.7,0,0,0,4.659-2.564c1.08-1.919.94-4.221.728-6.347A2.654,2.654,0,0,1-19.49,9.384a.474.474,0,0,0,.909,0,23.184,23.184,0,0,0-2.646-15" transform="translate(50.672 13.398)" fill="#4f3132"/></g><g transform="translate(110.473 177.38)"><g clip-path="url(#bd)"><g transform="translate(0 0)"><path d="M-.088-3.62A5.064,5.064,0,0,1,.569-4.6a7.206,7.206,0,0,0,.673-1.142,7.452,7.452,0,0,0,.68-2.529.463.463,0,0,1,.514-.366.425.425,0,0,1,.339.5,8.253,8.253,0,0,1-1.557,4.09c-.339.464-.833.965-.347,1.476s1.317.374,1.962.292c.56-.071.617.8.059.874A3.3,3.3,0,0,1,.456-1.744,1.561,1.561,0,0,1-.088-3.62" transform="translate(0.209 8.642)" fill="#ffc3a6"/></g></g></g><g transform="translate(117.212 176.651)"><path d="M-1.446-1.109C-1.556-.3-2.09.326-2.639.287s-.9-.727-.793-1.537.644-1.434,1.193-1.4.9.727.793,1.536" transform="translate(3.452 2.647)" fill="#4f3132"/></g><g transform="translate(108.559 176.61)"><path d="M-1.447-1.109C-1.558-.3-2.091.326-2.64.287s-.9-.727-.793-1.536.645-1.434,1.194-1.4.9.726.793,1.536" transform="translate(3.453 2.647)" fill="#4f3132"/></g><g transform="translate(107.416 172.321)"><path d="M-2.04-.056a.969.969,0,0,0-.571-.061A2.78,2.78,0,0,0-4.869,2.477a1.449,1.449,0,0,1,.292-.5.148.148,0,0,1,.025-.019,1.277,1.277,0,0,1,.24-.239,2.731,2.731,0,0,1,1.158-.414,4.089,4.089,0,0,0,1.2-.334.512.512,0,0,0,.32-.5.729.729,0,0,0-.4-.53" transform="translate(4.869 0.133)" fill="#4f3132"/></g><g transform="translate(117.419 171.844)"><path d="M-.23-.15a1.043,1.043,0,0,1,.553-.2A2.467,2.467,0,0,1,2.91,1.67a1.274,1.274,0,0,0-.358-.421c-.009-.006-.019-.008-.027-.013a1.086,1.086,0,0,0-.27-.177,2.56,2.56,0,0,0-1.2-.134A3.917,3.917,0,0,1-.165.878.453.453,0,0,1-.55.465.818.818,0,0,1-.23-.15" transform="translate(0.55 0.359)" fill="#4f3132"/></g><g transform="translate(112.016 185.019)"><g clip-path="url(#be)"><g transform="translate(0 0)"><path d="M-3.98-.079A5.488,5.488,0,0,1-9.02,1.11c-.5-.135-.686.648-.187.782A6.318,6.318,0,0,0-3.392.469C-3.008.122-3.6-.423-3.98-.079" transform="translate(9.5 0.188)" fill="#ffc3a6"/></g></g></g><g transform="translate(89.687 229.52)"><path d="M-35.281-24.425h-45.26A3.679,3.679,0,0,1-84.22-28.1V-54.627a3.678,3.678,0,0,1,3.679-3.679h45.26A3.678,3.678,0,0,1-31.6-54.627V-28.1a3.679,3.679,0,0,1-3.679,3.679" transform="translate(84.22 58.305)" fill="#fff"/></g><g transform="translate(87.525 263.4)"><path d="M-40.1,0H-94.415A1.316,1.316,0,0,0-95.73,1.316a1.315,1.315,0,0,0,1.316,1.316H-40.1a1.316,1.316,0,0,0,1.316-1.316A1.316,1.316,0,0,0-40.1,0" transform="translate(95.73)" fill="#c0eaf9"/></g><g transform="translate(87.524 263.4)"><g transform="translate(0 0)"><g clip-path="url(#bf)"><g transform="translate(0 0)"><path d="M-40.1,0H-94.415A1.316,1.316,0,0,0-95.73,1.316a1.315,1.315,0,0,0,1.316,1.316H-40.1a1.316,1.316,0,0,0,1.316-1.316A1.316,1.316,0,0,0-40.1,0" transform="translate(95.73)" fill="#c0eaf9"/></g></g></g></g><g transform="translate(111.73 244.286)"><g transform="translate(0 0)"><g clip-path="url(#bg)"><g transform="translate(0 0)"><path d="M-6.609-3.3A4.583,4.583,0,0,1-11.192,1.28,4.583,4.583,0,0,1-15.776-3.3a4.583,4.583,0,0,1,4.584-4.584A4.583,4.583,0,0,1-6.609-3.3" transform="translate(15.776 7.888)" fill="#c0eaf9"/></g></g></g></g><g transform="translate(90.599 156.839)"><path d="M-14.8-25.388c-6.255-3.124-8.836-10.87-8.526-17.855L-14.674-60.6A11.667,11.667,0,0,0-24.8-55.1c-1.328,2.192-1.922,4.828-3.6,6.766-1.476,1.705-3.627,2.674-5.279,4.21-1.223,1.139-2.179,3-1.324,4.436.657,1.1,2.076,1.438,3.127,2.178a4.569,4.569,0,0,1,1.808,4.521,4.568,4.568,0,0,1-3.4,3.481A9.383,9.383,0,0,0-26.892-31.2a15.2,15.2,0,0,0-2.585,3.832,5.141,5.141,0,0,0,.079,4.48c1.265,2.168,4.507,2.875,5.183,5.293a4.087,4.087,0,0,1-.69,3.288,12.078,12.078,0,0,1-2.431,2.454,10.133,10.133,0,0,0,8.583-8.123,4.587,4.587,0,0,0,4.333,4.994,83.587,83.587,0,0,1-.381-10.4" transform="translate(35.332 60.605)" fill="#4f3132"/></g><g transform="translate(117.926 156.839)"><path d="M-2.929-23.2C.479-27.025,1.9-32.74,1.662-38.02L-6.992-55.376a11.667,11.667,0,0,1,10.129,5.5c1.329,2.192,1.922,4.828,3.6,6.766,1.476,1.705,3.628,2.674,5.279,4.21,1.224,1.139,2.179,3,1.324,4.436-.658,1.1-2.076,1.438-3.127,2.178a4.569,4.569,0,0,0-1.808,4.521,4.569,4.569,0,0,0,3.4,3.481,9.383,9.383,0,0,1-6.581-1.694,15.18,15.18,0,0,1,2.585,3.832,5.141,5.141,0,0,1-.078,4.48C6.468-15.5,3.226-14.792,2.55-12.374a4.084,4.084,0,0,0,.69,3.288,12.075,12.075,0,0,0,2.43,2.454c-9.71.215-10.06-9.795-10.06-9.795l.245-5.411L-2.929-23.2" transform="translate(6.992 55.381)" fill="#4f3132"/></g><g transform="translate(85.039 101.572)"><path d="M-35.379-5.546v22a7.718,7.718,0,0,1-7.694,7.693H-54.547L-59.808,29.4l-5.261-5.261h-11.7a7.711,7.711,0,0,1-7.686-7.693v-22a7.711,7.711,0,0,1,7.686-7.693h33.694A7.726,7.726,0,0,1-35.41-6.267c.023.24.031.48.031.721" transform="translate(84.453 13.24)" fill="#ff7960"/></g><g transform="translate(91.508 109.444)"><path d="M-1.007-2.012H33.184a1.4,1.4,0,0,0,1.4-1.4,1.4,1.4,0,0,0-1.4-1.4H-1.007a1.4,1.4,0,0,0-1.4,1.4,1.4,1.4,0,0,0,1.4,1.4" transform="translate(2.403 4.803)" fill="#fff"/></g><g transform="translate(91.508 117.984)"><path d="M-1.007-2.012H33.184a1.4,1.4,0,0,0,1.4-1.4,1.4,1.4,0,0,0-1.4-1.4H-1.007a1.4,1.4,0,0,0-1.4,1.4,1.4,1.4,0,0,0,1.4,1.4" transform="translate(2.403 4.804)" fill="#fff"/></g><g transform="translate(101.885 126.634)"><path d="M-.836-1.933H23.449a1.16,1.16,0,0,0,1.16-1.16v-.36a1.16,1.16,0,0,0-1.16-1.161H-.836A1.16,1.16,0,0,0-2-3.453v.36a1.16,1.16,0,0,0,1.16,1.16" transform="translate(1.996 4.613)" fill="#fff"/></g><g transform="translate(85.039 108.545)"><g opacity="0.4" clip-path="url(#bh)"><g transform="translate(0 0)"><path d="M-35.379-.519v22a7.718,7.718,0,0,1-7.694,7.693H-54.547l-5.261,5.261-5.261-5.261h-11.7a7.711,7.711,0,0,1-7.686-7.693V20.368A42.884,42.884,0,0,0-65.6,19.532a50.789,50.789,0,0,0,7.669-2.681c1.171-.5,2.317-1.061,3.441-1.65a56.1,56.1,0,0,0,6.779-4.215Q-45.87,9.673-44.143,8.2A53.624,53.624,0,0,0-35.41-1.24c.023.24.031.48.031.721" transform="translate(84.453 1.24)" fill="#ff7960"/></g></g></g></g></g><text transform="translate(1023.155 166)" fill="#00b9f6" font-size="40" font-family="Montserrat-Bold, Montserrat" font-weight="700"><tspan x="0" y="0">Free Online </tspan><tspan x="0" y="49">Learning</tspan><tspan x="0" y="98">Platform</tspan></text></g></g></svg>